<?xml version="1.0" encoding="utf-8"?>
<svg version="1.1" viewBox="0 0 480 240" width="480" height="240" style="stroke:none;stroke-linecap:butt;stroke-linejoin:miter;stroke-width:1;stroke-dasharray:none;fill:#000000;fill-opacity:1;fill-rule:evenodd" font-family="Arial" font-size="15px" xmlns:xlink="http://www.w3.org/1999/xlink" xmlns="http://www.w3.org/2000/svg">
  <line id="Line" x1="450" y1="120" x2="30" y2="120" style="stroke:#000000;stroke-dasharray:10 5;" />
  <line id="Line1" x1="448.606" y1="119.8682" x2="449.3499" y2="29.6731" style="stroke:#0080FF;stroke-width:3;" />
  <path id="Shape" d="M444.5805,39.9402L449.0867,27.246L453.2999,39.2903" style="stroke:#0080FF;stroke-linecap:round;stroke-width:3;fill:none;" />
  <line id="Line2" x1="190" y1="230" x2="310" y2="10" style="stroke:#000000;" />
  <line id="Line3" x1="190" y1="10" x2="310" y2="230" style="stroke:#000000;" />
  <path id="x" d="M311.8346,10.3571L315.7594,10.3571L315.7594,10.694C315.5105,10.694 315.336,10.7365 315.2358,10.8215C315.1357,10.9065 315.0856,11.0188 315.0856,11.1585C315.0856,11.3042 315.1918,11.5288 315.4043,11.8323C315.4711,11.9295 315.5712,12.0813 315.7048,12.2877L316.2967,13.2347L316.9797,12.2877C317.4168,11.6866 317.6354,11.3072 317.6354,11.1494C317.6354,11.0219 317.5838,10.9141 317.4806,10.8261C317.3774,10.7381 317.2104,10.694 316.9797,10.694L316.9797,10.3571L319.8027,10.3571L319.8027,10.694C319.5052,10.7122 319.2472,10.7942 319.0287,10.9399C318.7312,11.1463 318.3244,11.5956 317.8084,12.2877L316.6701,13.8084L318.7464,16.7954C319.2563,17.5299 319.6206,17.9716 319.8391,18.1203C320.0577,18.2691 320.34,18.3526 320.686,18.3708L320.686,18.6986L316.752,18.6986L316.752,18.3708C317.0252,18.3708 317.2377,18.3101 317.3895,18.1886C317.5048,18.1036 317.5625,17.9913 317.5625,17.8517C317.5625,17.7121 317.3682,17.36 316.9797,16.7954L315.7594,15.0105L314.4208,16.7954C314.008,17.3478 313.8016,17.6756 313.8016,17.7789C313.8016,17.9246 313.8699,18.0566 314.0065,18.175C314.143,18.2934 314.3479,18.3586 314.6211,18.3708L314.6211,18.6986L311.8983,18.6986L311.8983,18.3708C312.1169,18.3404 312.3081,18.2645 312.472,18.1431C312.7027,17.9671 313.0913,17.5178 313.6376,16.7954L315.3861,14.4732L313.8016,12.1784C313.3523,11.5227 313.0047,11.1114 312.7589,10.9445C312.513,10.7775 312.2049,10.694 311.8346,10.694zM322.1613,11.3861L322.4436,8.6906C322.5225,7.9196 322.6014,7.4005 322.6803,7.1334C322.7957,6.757 322.9581,6.4853 323.1675,6.3184C323.377,6.1514 323.6122,6.068 323.8733,6.068C324.0918,6.068 324.2649,6.1287 324.3924,6.2501C324.5198,6.3715 324.5836,6.5263 324.5836,6.7145C324.5836,6.8542 324.5532,7.0059 324.4925,7.1698C324.4136,7.4066 324.189,7.9166 323.8186,8.6997L322.562,11.3861z" />
  <path id="y" d="M173.2294,17.8861L177.1179,17.8861L177.1179,18.223L176.9266,18.223C176.6534,18.223 176.4485,18.2822 176.3119,18.4006C176.1753,18.519 176.1071,18.6662 176.1071,18.8423C176.1071,19.079 176.2072,19.4069 176.4076,19.8258L178.4383,24.033L180.3051,19.4251C180.4083,19.1762 180.4599,18.9303 180.4599,18.6875C180.4599,18.5782 180.4387,18.4962 180.3962,18.4416C180.3476,18.3748 180.2717,18.3217 180.1685,18.2822C180.0653,18.2428 179.8832,18.223 179.6221,18.223L179.6221,17.8861L182.3359,17.8861L182.3359,18.223C182.1112,18.2473 181.9382,18.2959 181.8168,18.3687C181.6954,18.4416 181.5618,18.5782 181.4161,18.7785C181.3615,18.8635 181.2583,19.0973 181.1065,19.4797L177.7098,27.803C177.382,28.6105 176.9524,29.2206 176.4212,29.6334C175.89,30.0462 175.3785,30.2527 174.8868,30.2527C174.5286,30.2527 174.2342,30.1495 174.0035,29.943C173.7728,29.7366 173.6574,29.4999 173.6574,29.2327C173.6574,28.9778 173.7409,28.7729 173.9078,28.6181C174.0748,28.4632 174.304,28.3858 174.5954,28.3858C174.7957,28.3858 175.0689,28.4526 175.415,28.5862C175.6578,28.6772 175.8096,28.7228 175.8703,28.7228C176.0524,28.7228 176.2512,28.6287 176.4668,28.4405C176.6823,28.2523 176.8993,27.888 177.1179,27.3477L177.7098,25.8998L174.7138,19.6072C174.6227,19.419 174.477,19.1853 174.2767,18.906C174.1249,18.6935 174.0004,18.5509 173.9033,18.478C173.7637,18.3809 173.539,18.2959 173.2294,18.223zM183.6927,18.9151L183.975,16.2196C184.0539,15.4486 184.1329,14.9295 184.2118,14.6624C184.3271,14.286 184.4895,14.0143 184.699,13.8474C184.9084,13.6804 185.1437,13.597 185.4047,13.597C185.6233,13.597 185.7963,13.6577 185.9238,13.7791C186.0513,13.9005 186.115,14.0553 186.115,14.2435C186.115,14.3832 186.0847,14.5349 186.024,14.6988C185.945,14.9356 185.7204,15.4456 185.3501,16.2287L184.0934,18.9151z" />
  <line id="Line4" x1="250.1994" y1="119.6312" x2="250.9433" y2="29.4361" style="stroke:#999999;stroke-width:2;" />
  <path id="Shape1" d="M246.1739,39.7033L250.6801,27.009L254.8934,39.0533" style="stroke:#999999;stroke-linecap:round;stroke-width:2;fill:none;" />
  <line id="Line5" x1="250.3995" y1="120.2227" x2="207.0732" y2="41.1118" style="stroke:#0080FF;stroke-width:3;" />
  <path id="Shape2" d="M207.9149,52.4014L205.66,39.1211L215.2109,47.5826" style="stroke:#0080FF;stroke-linecap:round;stroke-width:3;fill:none;" />
  <path id="Arc" d="M237.8742,96.2684C241.7747,94.1741 246.1281,93.0632 250.5551,93.0326" style="stroke:#000000;stroke-width:2;fill:none;" />
  <line id="Line6" x1="90" y1="10" x2="90" y2="230" style="stroke:#000000;" />
  <line id="Line7" x1="10" y1="120" x2="170" y2="120" style="stroke:#000000;" />
  <path id="x1" d="M11.0475,125.0958L14.9724,125.0958L14.9724,125.4327C14.7235,125.4327 14.549,125.4752 14.4488,125.5602C14.3486,125.6452 14.2985,125.7575 14.2985,125.8972C14.2985,126.0429 14.4048,126.2675 14.6173,126.5711C14.684,126.6682 14.7842,126.82 14.9178,127.0264L15.5097,127.9734L16.1927,127.0264C16.6298,126.4254 16.8483,126.0459 16.8483,125.8881C16.8483,125.7606 16.7967,125.6528 16.6935,125.5648C16.5903,125.4768 16.4234,125.4327 16.1927,125.4327L16.1927,125.0958L19.0157,125.0958L19.0157,125.4327C18.7182,125.451 18.4602,125.5329 18.2416,125.6786C17.9441,125.885 17.5374,126.3343 17.0214,127.0264L15.883,128.5472L17.9593,131.5341C18.4693,132.2687 18.8335,132.7103 19.0521,132.8591C19.2706,133.0078 19.5529,133.0913 19.899,133.1095L19.899,133.4373L15.965,133.4373L15.965,133.1095C16.2382,133.1095 16.4507,133.0488 16.6025,132.9274C16.7178,132.8424 16.7755,132.73 16.7755,132.5904C16.7755,132.4508 16.5812,132.0987 16.1927,131.5341L14.9724,129.7492L13.6338,131.5341C13.2209,132.0865 13.0145,132.4144 13.0145,132.5176C13.0145,132.6633 13.0828,132.7953 13.2194,132.9137C13.356,133.0321 13.5609,133.0973 13.8341,133.1095L13.8341,133.4373L11.1113,133.4373L11.1113,133.1095C11.3298,133.0791 11.5211,133.0032 11.685,132.8818C11.9157,132.7058 12.3042,132.2565 12.8506,131.5341L14.599,129.2119L13.0145,126.9171C12.5653,126.2614 12.2177,125.8501 11.9718,125.6832C11.726,125.5162 11.4179,125.4327 11.0475,125.4327z" />
  <path id="y1" d="M74.1762,12.8719L78.0647,12.8719L78.0647,13.2089L77.8734,13.2089C77.6002,13.2089 77.3953,13.2681 77.2587,13.3865C77.1222,13.5048 77.0539,13.6521 77.0539,13.8281C77.0539,14.0649 77.154,14.3927 77.3544,14.8116L79.3851,19.0188L81.2519,14.4109C81.3551,14.162 81.4067,13.9161 81.4067,13.6733C81.4067,13.564 81.3855,13.4821 81.343,13.4274C81.2944,13.3606 81.2185,13.3075 81.1153,13.2681C81.0121,13.2286 80.83,13.2089 80.5689,13.2089L80.5689,12.8719L83.2827,12.8719L83.2827,13.2089C83.058,13.2332 82.885,13.2817 82.7636,13.3546C82.6422,13.4274 82.5086,13.564 82.3629,13.7644C82.3083,13.8494 82.2051,14.0831 82.0533,14.4656L78.6566,22.7889C78.3288,23.5963 77.8992,24.2064 77.368,24.6193C76.8368,25.0321 76.3253,25.2385 75.8336,25.2385C75.4754,25.2385 75.181,25.1353 74.9503,24.9289C74.7196,24.7225 74.6042,24.4857 74.6042,24.2186C74.6042,23.9636 74.6877,23.7587 74.8546,23.6039C75.0216,23.4491 75.2508,23.3717 75.5422,23.3717C75.7425,23.3717 76.0157,23.4384 76.3618,23.572C76.6046,23.6631 76.7564,23.7086 76.8171,23.7086C76.9992,23.7086 77.198,23.6145 77.4136,23.4263C77.6291,23.2381 77.8461,22.8738 78.0647,22.3335L78.6566,20.8856L75.6606,14.5931C75.5695,14.4049 75.4238,14.1711 75.2235,13.8919C75.0717,13.6794 74.9472,13.5367 74.8501,13.4639C74.7105,13.3667 74.4858,13.2817 74.1762,13.2089z" />
  <line id="Line8" x1="90.0641" y1="120.3086" x2="46.9339" y2="41.0906" style="stroke:#999999;stroke-width:2;" />
  <path id="Shape3" d="M47.7476,52.3822L45.5256,39.0964L55.0555,47.5815" style="stroke:#999999;stroke-linecap:round;stroke-width:2;fill:none;" />
  <line id="Line9" x1="89.693" y1="120.4127" x2="90.4369" y2="30.2176" style="stroke:#0080FF;stroke-width:3;" />
  <path id="Shape4" d="M85.6674,40.4848L90.1737,27.7905L94.3869,39.8348" style="stroke:#0080FF;stroke-linecap:round;stroke-width:3;fill:none;" />
  <path id="Arc1" d="M76.7018,94.7674C80.6022,92.673 84.9556,91.5621 89.3826,91.5315" style="stroke:#000000;stroke-width:2;fill:none;" />
  <line id="Line10" x1="449.2653" y1="23.6421" x2="250.4467" y2="23.6421" style="stroke:#000000;stroke-dasharray:2 5;" />
  <line id="Line11" x1="203.7126" y1="35.5976" x2="43.632" y2="35.5976" style="stroke:#000000;stroke-dasharray:2 5;" />
</svg>