<?xml version="1.0" encoding="utf-8"?>
<svg version="1.1" viewBox="0 0 240 240" width="240" height="240" style="stroke:none;stroke-linecap:butt;stroke-linejoin:miter;stroke-width:1;stroke-dasharray:none;fill:#000000;fill-opacity:1;fill-rule:evenodd" font-family="Arial" font-size="15px" xmlns:xlink="http://www.w3.org/1999/xlink" xmlns="http://www.w3.org/2000/svg">
  <line id="Line" x1="49.2218" y1="190.6431" x2="190.7782" y2="49.3569" style="stroke:#000000;" />
  <line id="Line1" x1="49.3569" y1="49.2218" x2="190.6431" y2="190.7782" style="stroke:#000000;" />
  <path id="x" d="M191.8623,51.8066L195.7872,51.8066L195.7872,52.1436C195.5382,52.1436 195.3637,52.1861 195.2635,52.2711C195.1634,52.3561 195.1133,52.4684 195.1133,52.608C195.1133,52.7537 195.2195,52.9783 195.432,53.2819C195.4988,53.379 195.599,53.5308 195.7325,53.7372L196.3244,54.6843L197.0074,53.7372C197.4445,53.1362 197.6631,52.7567 197.6631,52.5989C197.6631,52.4714 197.6115,52.3637 197.5083,52.2756C197.4051,52.1876 197.2381,52.1436 197.0074,52.1436L197.0074,51.8066L199.8304,51.8066L199.8304,52.1436C199.5329,52.1618 199.2749,52.2438 199.0564,52.3895C198.7589,52.5959 198.3521,53.0451 197.8361,53.7372L196.6978,55.258L198.7741,58.2449C199.284,58.9795 199.6483,59.4211 199.8668,59.5699C200.0854,59.7186 200.3677,59.8021 200.7137,59.8203L200.7137,60.1481L196.7798,60.1481L196.7798,59.8203C197.053,59.8203 197.2654,59.7596 197.4172,59.6382C197.5326,59.5532 197.5902,59.4409 197.5902,59.3012C197.5902,59.1616 197.396,58.8095 197.0074,58.2449L195.7872,56.46L194.4485,58.2449C194.0357,58.7974 193.8293,59.1252 193.8293,59.2284C193.8293,59.3741 193.8976,59.5061 194.0342,59.6245C194.1708,59.7429 194.3757,59.8082 194.6489,59.8203L194.6489,60.1481L191.926,60.1481L191.926,59.8203C192.1446,59.79 192.3358,59.7141 192.4997,59.5927C192.7304,59.4166 193.119,58.9673 193.6654,58.2449L195.4138,55.9228L193.8293,53.6279C193.38,52.9723 193.0325,52.561 192.7866,52.394C192.5407,52.2271 192.2326,52.1436 191.8623,52.1436zM202.189,52.8357L202.4713,50.1402C202.5502,49.3692 202.6291,48.8501 202.7081,48.583C202.8234,48.2066 202.9858,47.9349 203.1953,47.7679C203.4047,47.601 203.6399,47.5175 203.901,47.5175C204.1196,47.5175 204.2926,47.5782 204.4201,47.6996C204.5476,47.8211 204.6113,47.9759 204.6113,48.1641C204.6113,48.3037 204.5809,48.4555 204.5202,48.6194C204.4413,48.8562 204.2167,49.3661 203.8464,50.1493L202.5897,52.8357z" />
  <path id="y" d="M51.8784,37.5604L55.7668,37.5604L55.7668,37.8974L55.5756,37.8974C55.3024,37.8974 55.0975,37.9566 54.9609,38.0749C54.8243,38.1933 54.756,38.3405 54.756,38.5166C54.756,38.7534 54.8562,39.0812 55.0565,39.5001L57.0872,43.7073L58.9541,39.0994C59.0573,38.8505 59.1089,38.6046 59.1089,38.3618C59.1089,38.2525 59.0876,38.1706 59.0451,38.1159C58.9966,38.0491 58.9207,37.996 58.8175,37.9566C58.7143,37.9171 58.5321,37.8974 58.2711,37.8974L58.2711,37.5604L60.9848,37.5604L60.9848,37.8974C60.7602,37.9216 60.5871,37.9702 60.4657,38.0431C60.3443,38.1159 60.2107,38.2525 60.065,38.4529C60.0104,38.5378 59.9072,38.7716 59.7554,39.1541L56.3587,47.4773C56.0309,48.2848 55.6014,48.8949 55.0702,49.3077C54.539,49.7206 54.0275,49.927 53.5357,49.927C53.1775,49.927 52.8831,49.8238 52.6524,49.6174C52.4217,49.4109 52.3064,49.1742 52.3064,48.9071C52.3064,48.6521 52.3898,48.4472 52.5568,48.2924C52.7237,48.1376 52.9529,48.0602 53.2443,48.0602C53.4447,48.0602 53.7179,48.1269 54.0639,48.2605C54.3067,48.3516 54.4585,48.3971 54.5192,48.3971C54.7014,48.3971 54.9002,48.303 55.1157,48.1148C55.3312,47.9266 55.5482,47.5623 55.7668,47.022L56.3587,45.5741L53.3627,39.2815C53.2716,39.0933 53.1259,38.8596 52.9256,38.5803C52.7738,38.3679 52.6494,38.2252 52.5522,38.1523C52.4126,38.0552 52.188,37.9702 51.8784,37.8974zM62.3417,38.5895L62.624,35.8939C62.7029,35.1229 62.7818,34.6039 62.8607,34.3367C62.9761,33.9603 63.1385,33.6887 63.3479,33.5217C63.5574,33.3548 63.7926,33.2713 64.0537,33.2713C64.2722,33.2713 64.4452,33.332 64.5727,33.4534C64.7002,33.5748 64.764,33.7296 64.764,33.9178C64.764,34.0575 64.7336,34.2093 64.6729,34.3732C64.594,34.6099 64.3694,35.1199 63.999,35.903L62.7423,38.5895z" />
  <line id="Line2" x1="120.0507" y1="119.8719" x2="120.7946" y2="29.6769" style="stroke:#0080FF;stroke-width:3;" />
  <path id="Shape" d="M116.0252,39.944L120.5314,27.2497L124.7446,39.294" style="stroke:#0080FF;stroke-linecap:round;stroke-width:3;fill:none;" />
  <path id="Arc" d="M100.2113,100.9464C105.2831,95.7696 112.2182,92.827 119.4653,92.7769" style="stroke:#000000;stroke-width:2;fill:none;" />
  <path id="x1" d="M109.3627,81.8875L110.9108,81.8875L109.9728,86.1038C109.7907,86.9052 109.6662,87.3969 109.5995,87.579C109.8423,88.6961 110.1944,89.2546 110.6558,89.2546C111.2022,89.2546 111.4845,88.8782 111.5027,88.1254L111.8305,88.1254C111.8123,88.8297 111.6833,89.3988 111.4435,89.8329C111.2037,90.267 110.8895,90.484 110.501,90.484C110.1792,90.484 109.9394,90.3535 109.7816,90.0924C109.6237,89.8314 109.4538,89.2971 109.2716,88.4897C108.6402,89.8192 107.6082,90.484 106.1754,90.484C105.198,90.484 104.4209,90.103 103.8442,89.3411C103.2674,88.5792 102.9791,87.488 102.9791,86.0674C102.9791,84.671 103.2948,83.5843 103.9261,82.8073C104.5575,82.0302 105.3164,81.6416 106.2028,81.6416C106.8281,81.6416 107.3411,81.8632 107.7417,82.3064C108.1424,82.7496 108.4976,83.472 108.8072,84.4737zM108.5613,85.4572C108.276,84.4798 107.9573,83.7164 107.6052,83.167C107.253,82.6175 106.8311,82.3428 106.3394,82.3428C105.2284,82.3428 104.6729,83.642 104.6729,86.2404C104.6729,88.7052 105.2041,89.9376 106.2665,89.9376C107.1893,89.9376 107.8723,88.8509 108.3155,86.6775z" />
</svg>