<?xml version="1.0" encoding="utf-8"?>
<svg version="1.1" viewBox="0 0 240 240" width="240" height="240" style="stroke:none;stroke-linecap:butt;stroke-linejoin:miter;stroke-width:1;stroke-dasharray:none;fill:#000000;fill-opacity:1;fill-rule:evenodd" font-family="Arial" font-size="15px" xmlns:xlink="http://www.w3.org/1999/xlink" xmlns="http://www.w3.org/2000/svg">
  <line id="Line" x1="0" y1="120" x2="200" y2="120" style="stroke:#000000;" />
  <line id="Line1" x1="100" y1="20" x2="100" y2="220" style="stroke:#000000;" />
  <path id="x" d="M195.351,123.7586L199.2759,123.7586L199.2759,124.0955C199.0269,124.0955 198.8524,124.138 198.7522,124.223C198.6521,124.308 198.602,124.4203 198.602,124.56C198.602,124.7057 198.7082,124.9303 198.9207,125.2338C198.9875,125.331 199.0877,125.4827 199.2212,125.6892L199.8131,126.6362L200.4961,125.6892C200.9332,125.0881 201.1518,124.7087 201.1518,124.5508C201.1518,124.4234 201.1002,124.3156 200.997,124.2276C200.8938,124.1395 200.7268,124.0955 200.4961,124.0955L200.4961,123.7586L203.3191,123.7586L203.3191,124.0955C203.0216,124.1137 202.7636,124.1957 202.5451,124.3414C202.2476,124.5478 201.8408,124.9971 201.3248,125.6892L200.1865,127.2099L202.2628,130.1968C202.7727,130.9314 203.137,131.3731 203.3555,131.5218C203.5741,131.6706 203.8564,131.754 204.2024,131.7723L204.2024,132.1001L200.2685,132.1001L200.2685,131.7723C200.5417,131.7723 200.7541,131.7115 200.9059,131.5901C201.0213,131.5051 201.0789,131.3928 201.0789,131.2532C201.0789,131.1136 200.8847,130.7614 200.4961,130.1968L199.2759,128.412L197.9372,130.1968C197.5244,130.7493 197.318,131.0771 197.318,131.1803C197.318,131.326 197.3863,131.4581 197.5229,131.5765C197.6595,131.6949 197.8644,131.7601 198.1376,131.7723L198.1376,132.1001L195.4147,132.1001L195.4147,131.7723C195.6333,131.7419 195.8245,131.666 195.9884,131.5446C196.2191,131.3685 196.6077,130.9193 197.1541,130.1968L198.9025,127.8747L197.318,125.5799C196.8687,124.9242 196.5212,124.5129 196.2753,124.346C196.0294,124.179 195.7213,124.0955 195.351,124.0955z" />
  <path id="y" d="M102.7544,16.583L106.6429,16.583L106.6429,16.9199L106.4516,16.9199C106.1784,16.9199 105.9735,16.9791 105.8369,17.0975C105.7003,17.2159 105.632,17.3631 105.632,17.5392C105.632,17.7759 105.7322,18.1038 105.9326,18.5227L107.9633,22.7298L109.8301,18.122C109.9333,17.8731 109.9849,17.6272 109.9849,17.3843C109.9849,17.2751 109.9637,17.1931 109.9212,17.1385C109.8726,17.0717 109.7967,17.0186 109.6935,16.9791C109.5903,16.9396 109.4082,16.9199 109.1471,16.9199L109.1471,16.583L111.8608,16.583L111.8608,16.9199C111.6362,16.9442 111.4632,16.9928 111.3418,17.0656C111.2204,17.1385 111.0868,17.2751 110.9411,17.4754C110.8865,17.5604 110.7833,17.7941 110.6315,18.1766L107.2348,26.4999C106.9069,27.3073 106.4774,27.9175 105.9462,28.3303C105.415,28.7431 104.9035,28.9495 104.4118,28.9495C104.0536,28.9495 103.7591,28.8463 103.5285,28.6399C103.2978,28.4335 103.1824,28.1967 103.1824,27.9296C103.1824,27.6746 103.2659,27.4697 103.4328,27.3149C103.5998,27.1601 103.829,27.0827 104.1204,27.0827C104.3207,27.0827 104.5939,27.1495 104.9399,27.2831C105.1828,27.3741 105.3346,27.4196 105.3953,27.4196C105.5774,27.4196 105.7762,27.3255 105.9917,27.1373C106.2073,26.9491 106.4243,26.5849 106.6429,26.0446L107.2348,24.5967L104.2388,18.3041C104.1477,18.1159 104.002,17.8822 103.8016,17.6029C103.6499,17.3904 103.5254,17.2477 103.4283,17.1749C103.2886,17.0778 103.064,16.9928 102.7544,16.9199z" />
  <line id="Line2" x1="100.2425" y1="119.8739" x2="175.1807" y2="69.6746" style="stroke:#0080FF;stroke-width:3;" />
  <path id="Shape" d="M164.011,71.5184L177.0377,68.0898L169.4603,78.3562" style="stroke:#0080FF;stroke-linecap:round;stroke-width:3;fill:none;" />
  <line id="Line3" x1="180.1664" y1="65.7187" x2="180.1664" y2="119.7187" style="stroke:#000000;stroke-dasharray:2 5;" />
  <line id="Line4" x1="180.2209" y1="66.1187" x2="100.2229" y2="66.1187" style="stroke:#000000;stroke-dasharray:2 5;" />
  <path id="Arc" d="M99.454,92.5349C108.5011,92.4335 117.0273,96.8496 122.1643,104.2976" style="stroke:#000000;stroke-width:2;fill:none;" />
  <path id="x1" d="M117.1904,84.057L118.7385,84.057L117.8005,88.2733C117.6184,89.0746 117.4939,89.5664 117.4271,89.7485C117.67,90.8656 118.0221,91.4241 118.4835,91.4241C119.0299,91.4241 119.3122,91.0477 119.3304,90.2949L119.6582,90.2949C119.64,90.9991 119.511,91.5683 119.2712,92.0024C119.0314,92.4364 118.7172,92.6535 118.3287,92.6535C118.0069,92.6535 117.7671,92.523 117.6093,92.2619C117.4514,92.0009 117.2814,91.4666 117.0993,90.6592C116.4679,91.9887 115.4359,92.6535 114.0031,92.6535C113.0257,92.6535 112.2486,92.2725 111.6719,91.5106C111.0951,90.7487 110.8067,89.6575 110.8067,88.2369C110.8067,86.8405 111.1224,85.7538 111.7538,84.9767C112.3852,84.1997 113.1441,83.8111 114.0304,83.8111C114.6557,83.8111 115.1687,84.0327 115.5694,84.4759C115.9701,84.9191 116.3253,85.6415 116.6349,86.6432zM116.389,87.6267C116.1037,86.6493 115.7849,85.8859 115.4328,85.3365C115.0807,84.787 114.6588,84.5123 114.167,84.5123C113.056,84.5123 112.5005,85.8115 112.5005,88.4099C112.5005,90.8747 113.0318,92.1071 114.0942,92.1071C115.017,92.1071 115.6999,91.0204 116.1431,88.847z" />
  <path id="x2" d="M123.9907,54.1916L123.9907,57.0328L123.6902,57.0328C123.4595,56.1404 123.1636,55.5333 122.8024,55.2115C122.4411,54.8898 121.9813,54.7289 121.4227,54.7289C120.9978,54.7289 120.6548,54.8412 120.3937,55.0658C120.1327,55.2905 120.0021,55.5394 120.0021,55.8126C120.0021,56.1525 120.0993,56.4439 120.2935,56.6868C120.4817,56.9357 120.8642,57.1998 121.4409,57.479L122.7705,58.1256C124.0029,58.7266 124.6191,59.5189 124.6191,60.5024C124.6191,61.2613 124.3322,61.8729 123.7585,62.3373C123.1848,62.8018 122.5428,63.034 121.8325,63.034C121.3226,63.034 120.7397,62.9429 120.0841,62.7608C119.8837,62.7001 119.7198,62.6697 119.5923,62.6697C119.4527,62.6697 119.3434,62.7486 119.2645,62.9065L118.964,62.9065L118.964,59.9287L119.2645,59.9287C119.4345,60.7786 119.7593,61.4191 120.2389,61.8501C120.7185,62.2812 121.2558,62.4967 121.8507,62.4967C122.2696,62.4967 122.6111,62.3738 122.8752,62.1279C123.1393,61.882 123.2713,61.5861 123.2713,61.24C123.2713,60.8211 123.1241,60.469 122.8297,60.1837C122.5352,59.8983 121.9479,59.5371 121.0676,59.1C120.1873,58.6629 119.6105,58.2683 119.3374,57.9162C119.0642,57.5701 118.9276,57.133 118.9276,56.6048C118.9276,55.9188 119.1628,55.3451 119.6333,54.8837C120.1038,54.4223 120.7124,54.1916 121.4592,54.1916C121.787,54.1916 122.1846,54.2614 122.6521,54.4011C122.9617,54.4921 123.1681,54.5377 123.2713,54.5377C123.3685,54.5377 123.4444,54.5164 123.499,54.4739C123.5536,54.4314 123.6174,54.3373 123.6902,54.1916zM127.9794,49.8296C128.2344,49.8296 128.4514,49.9192 128.6305,50.0983C128.8096,50.2774 128.8991,50.4944 128.8991,50.7494C128.8991,51.0044 128.8096,51.2229 128.6305,51.405C128.4514,51.5872 128.2344,51.6782 127.9794,51.6782C127.7244,51.6782 127.5058,51.5872 127.3237,51.405C127.1416,51.2229 127.0505,51.0044 127.0505,50.7494C127.0505,50.4944 127.1401,50.2774 127.3192,50.0983C127.4982,49.9192 127.7183,49.8296 127.9794,49.8296zM128.7352,54.1916L128.7352,60.894C128.7352,61.4161 128.7732,61.7636 128.849,61.9367C128.9249,62.1097 129.0372,62.2387 129.186,62.3237C129.3347,62.4087 129.6064,62.4512 130.001,62.4512L130.001,62.779L125.9486,62.779L125.9486,62.4512C126.3554,62.4512 126.6286,62.4117 126.7682,62.3328C126.9078,62.2539 127.0186,62.1233 127.1006,61.9412C127.1826,61.7591 127.2235,61.41 127.2235,60.894L127.2235,57.6794C127.2235,56.7748 127.1962,56.189 127.1416,55.9218C127.0991,55.7276 127.0323,55.5925 126.9412,55.5166C126.8502,55.4407 126.7257,55.4028 126.5679,55.4028C126.3979,55.4028 126.1915,55.4483 125.9486,55.5394L125.8211,55.2115L128.3345,54.1916zM133.4706,55.9583C134.448,54.7805 135.3799,54.1916 136.2662,54.1916C136.7216,54.1916 137.1131,54.3055 137.441,54.5331C137.7688,54.7608 138.0299,55.1357 138.2241,55.6578C138.3577,56.022 138.4245,56.5805 138.4245,57.3333L138.4245,60.894C138.4245,61.4221 138.467,61.7803 138.552,61.9685C138.6187,62.1203 138.7265,62.2387 138.8752,62.3237C139.024,62.4087 139.2987,62.4512 139.6994,62.4512L139.6994,62.779L135.5741,62.779L135.5741,62.4512L135.7472,62.4512C136.1357,62.4512 136.4074,62.392 136.5622,62.2736C136.717,62.1552 136.8248,61.9807 136.8855,61.75C136.9098,61.6589 136.9219,61.3736 136.9219,60.894L136.9219,57.479C136.9219,56.7202 136.8232,56.1692 136.6259,55.8262C136.4286,55.4832 136.0963,55.3117 135.6288,55.3117C134.9063,55.3117 134.1869,55.7063 133.4706,56.4955L133.4706,60.894C133.4706,61.4586 133.5039,61.8076 133.5707,61.9412C133.6557,62.1173 133.7726,62.2463 133.9213,62.3282C134.0701,62.4102 134.3721,62.4512 134.8274,62.4512L134.8274,62.779L130.7022,62.779L130.7022,62.4512L130.8843,62.4512C131.3093,62.4512 131.5961,62.3434 131.7449,62.1279C131.8936,61.9124 131.968,61.5011 131.968,60.894L131.968,57.7978C131.968,56.7961 131.9452,56.1859 131.8997,55.9674C131.8542,55.7488 131.7843,55.6001 131.6902,55.5212C131.5961,55.4422 131.4702,55.4028 131.3123,55.4028C131.1423,55.4028 130.939,55.4483 130.7022,55.5394L130.5656,55.2115L133.079,54.1916L133.4706,54.1916zM151.6197,54.4375L153.1678,54.4375L152.2298,58.6538C152.0477,59.4551 151.9233,59.9469 151.8565,60.129C152.0993,61.2461 152.4514,61.8046 152.9128,61.8046C153.4592,61.8046 153.7415,61.4282 153.7597,60.6754L154.0876,60.6754C154.0693,61.3796 153.9403,61.9488 153.7005,62.3829C153.4607,62.8169 153.1466,63.034 152.758,63.034C152.4362,63.034 152.1964,62.9035 152.0386,62.6424C151.8808,62.3813 151.7108,61.8471 151.5286,61.0397C150.8973,62.3692 149.8652,63.034 148.4324,63.034C147.455,63.034 146.6779,62.653 146.1012,61.8911C145.5245,61.1292 145.2361,60.038 145.2361,58.6174C145.2361,57.221 145.5518,56.1343 146.1832,55.3572C146.8145,54.5802 147.5734,54.1916 148.4598,54.1916C149.0851,54.1916 149.5981,54.4132 149.9988,54.8564C150.3994,55.2996 150.7546,56.022 151.0642,57.0237zM150.8183,58.0072C150.533,57.0298 150.2143,56.2664 149.8622,55.7169C149.51,55.1675 149.0881,54.8928 148.5964,54.8928C147.4854,54.8928 146.9299,56.192 146.9299,58.7904C146.9299,61.2552 147.4611,62.4876 148.5235,62.4876C149.4463,62.4876 150.1293,61.4009 150.5725,59.2275z" />
  <path id="x3" d="M190.8636,96.7533C190.639,97.8522 190.1988,98.6975 189.5432,99.2895C188.8875,99.8814 188.162,100.1773 187.3667,100.1773C186.4196,100.1773 185.594,99.7797 184.8898,98.9844C184.1855,98.1891 183.8334,97.1145 183.8334,95.7607C183.8334,94.4494 184.2235,93.3839 185.0036,92.5644C185.7837,91.7448 186.7202,91.335 187.8129,91.335C188.6325,91.335 189.3064,91.552 189.8346,91.9861C190.3627,92.4202 190.6268,92.8709 190.6268,93.3384C190.6268,93.5691 190.5524,93.7558 190.4037,93.8985C190.255,94.0411 190.047,94.1125 189.7799,94.1125C189.4217,94.1125 189.1516,93.9971 188.9694,93.7664C188.8662,93.6389 188.7979,93.3961 188.7646,93.0379C188.7312,92.6797 188.6082,92.4065 188.3957,92.2183C188.1833,92.0362 187.8888,91.9451 187.5124,91.9451C186.9053,91.9451 186.4166,92.1697 186.0463,92.619C185.5545,93.2139 185.3087,94.0001 185.3087,94.9776C185.3087,95.9732 185.553,96.852 186.0417,97.6139C186.5304,98.3758 187.1907,98.7567 188.0224,98.7567C188.6173,98.7567 189.1516,98.5534 189.6251,98.1466C189.959,97.8673 190.2838,97.3604 190.5995,96.6258zM196.1362,91.335C197.399,91.335 198.4128,91.8146 199.1778,92.7738C199.8274,93.5934 200.1522,94.5344 200.1522,95.5968C200.1522,96.3435 199.9731,97.0994 199.6149,97.8643C199.2567,98.6292 198.7634,99.206 198.1351,99.5945C197.5067,99.9831 196.8071,100.1773 196.036,100.1773C194.7794,100.1773 193.7807,99.6765 193.04,98.6748C192.4147,97.8309 192.1021,96.8838 192.1021,95.8336C192.1021,95.0686 192.2918,94.3082 192.6712,93.5524C193.0507,92.7966 193.55,92.238 194.1692,91.8768C194.7885,91.5156 195.4441,91.335 196.1362,91.335zM195.8539,91.9269C195.5322,91.9269 195.2089,92.0225 194.8841,92.2138C194.5593,92.405 194.2967,92.7404 194.0964,93.22C193.896,93.6996 193.7959,94.3158 193.7959,95.0686C193.7959,96.2828 194.0372,97.3301 194.5198,98.2104C195.0025,99.0906 195.6384,99.5308 196.4276,99.5308C197.0165,99.5308 197.5022,99.2879 197.8847,98.8023C198.2671,98.3166 198.4584,97.4818 198.4584,96.298C198.4584,94.8167 198.1396,93.6511 197.5022,92.8011C197.0711,92.2183 196.5217,91.9269 195.8539,91.9269zM206.7725,91.335L206.7725,94.1762L206.472,94.1762C206.2413,93.2838 205.9454,92.6767 205.5842,92.3549C205.2229,92.0331 204.7631,91.8723 204.2045,91.8723C203.7796,91.8723 203.4366,91.9846 203.1755,92.2092C202.9144,92.4338 202.7839,92.6827 202.7839,92.9559C202.7839,93.2959 202.8811,93.5873 203.0753,93.8302C203.2635,94.0791 203.646,94.3431 204.2227,94.6224L205.5523,95.269C206.7847,95.87 207.4009,96.6623 207.4009,97.6458C207.4009,98.4046 207.114,99.0163 206.5403,99.4807C205.9666,99.9451 205.3246,100.1773 204.6143,100.1773C204.1044,100.1773 203.5215,100.0863 202.8659,99.9042C202.6655,99.8434 202.5016,99.8131 202.3741,99.8131C202.2345,99.8131 202.1252,99.892 202.0463,100.0499L201.7458,100.0499L201.7458,97.072L202.0463,97.072C202.2163,97.922 202.5411,98.5625 203.0207,98.9935C203.5003,99.4245 204.0376,99.6401 204.6325,99.6401C205.0514,99.6401 205.3929,99.5171 205.657,99.2713C205.9211,99.0254 206.0531,98.7294 206.0531,98.3834C206.0531,97.9645 205.9059,97.6124 205.6115,97.327C205.317,97.0417 204.7297,96.6805 203.8494,96.2434C202.9691,95.8063 202.3923,95.4116 202.1192,95.0595C201.846,94.7135 201.7094,94.2764 201.7094,93.7482C201.7094,93.0622 201.9446,92.4885 202.4151,92.0271C202.8856,91.5657 203.4942,91.335 204.241,91.335C204.5688,91.335 204.9664,91.4048 205.4339,91.5444C205.7435,91.6355 205.9499,91.681 206.0531,91.681C206.1503,91.681 206.2262,91.6598 206.2808,91.6173C206.3354,91.5748 206.3992,91.4807 206.472,91.335zM219.8949,91.5809L221.443,91.5809L220.5051,95.7971C220.3229,96.5985 220.1985,97.0903 220.1317,97.2724C220.3745,98.3894 220.7267,98.948 221.188,98.948C221.7344,98.948 222.0167,98.5716 222.0349,97.8188L222.3628,97.8188C222.3446,98.523 222.2156,99.0922 221.9758,99.5262C221.736,99.9603 221.4218,100.1773 221.0332,100.1773C220.7115,100.1773 220.4717,100.0468 220.3138,99.7858C220.156,99.5247 219.986,98.9905 219.8039,98.183C219.1725,99.5126 218.1404,100.1773 216.7077,100.1773C215.7303,100.1773 214.9532,99.7964 214.3764,99.0345C213.7997,98.2726 213.5113,97.1813 213.5113,95.7607C213.5113,94.3644 213.827,93.2777 214.4584,92.5006C215.0898,91.7235 215.8486,91.335 216.735,91.335C217.3603,91.335 217.8733,91.5566 218.274,91.9998C218.6747,92.4429 219.0298,93.1654 219.3394,94.1671zM219.0936,95.1506C218.8082,94.1732 218.4895,93.4097 218.1374,92.8603C217.7853,92.3109 217.3633,92.0362 216.8716,92.0362C215.7606,92.0362 215.2051,93.3354 215.2051,95.9337C215.2051,98.3986 215.7363,99.631 216.7987,99.631C217.7215,99.631 218.4045,98.5443 218.8477,96.3708z" />
  <path id="x4" d="M183.2714,36.4369L183.2714,35.74C182.9213,36.2878 182.4064,36.5617 181.7269,36.5617C181.2867,36.5617 180.8819,36.4403 180.5127,36.1977C180.1435,35.955 179.8575,35.6161 179.6547,35.181C179.4519,34.7459 179.3505,34.2458 179.3505,33.6808C179.3505,33.1295 179.4423,32.6294 179.6261,32.1805C179.8098,31.7315 180.0854,31.3875 180.4529,31.1483C180.8204,30.9091 181.2312,30.7894 181.6853,30.7894C182.0182,30.7894 182.3146,30.8596 182.5746,31.0001C182.8346,31.1405 183.0461,31.3233 183.209,31.5487L183.209,28.8134L184.1398,28.8134L184.1398,36.4369zM180.3125,33.6808C180.3125,34.388 180.4616,34.9167 180.7597,35.2668C181.0579,35.617 181.4097,35.792 181.8153,35.792C182.2244,35.792 182.572,35.6248 182.858,35.2902C183.144,34.9557 183.287,34.4452 183.287,33.7588C183.287,33.003 183.1414,32.4483 182.8502,32.0947C182.559,31.7411 182.2002,31.5643 181.7737,31.5643C181.3577,31.5643 181.0102,31.7341 180.7311,32.0739C180.452,32.4136 180.3125,32.9493 180.3125,33.6808zM185.6167,29.8898L185.6167,28.8134L186.5527,28.8134L186.5527,29.8898zM185.6167,36.4369L185.6167,30.9143L186.5527,30.9143L186.5527,36.4369zM187.9672,36.4369L187.9672,30.9143L188.8096,30.9143L188.8096,31.7515C189.0246,31.3597 189.223,31.1015 189.405,30.9767C189.587,30.8518 189.7872,30.7894 190.0057,30.7894C190.3211,30.7894 190.6418,30.89 190.9677,31.0911L190.6453,31.9595C190.4165,31.8243 190.1877,31.7567 189.9589,31.7567C189.7543,31.7567 189.5706,31.8182 189.4076,31.9413C189.2447,32.0644 189.1286,32.2351 189.0592,32.4535C188.9552,32.7863 188.9032,33.1503 188.9032,33.5456L188.9032,36.4369zM195.3047,34.6584L196.2719,34.778C196.1194,35.3431 195.8368,35.7816 195.4243,36.0936C195.0117,36.4057 194.4848,36.5617 193.8434,36.5617C193.0356,36.5617 192.3951,36.3129 191.9219,35.8154C191.4487,35.318 191.2121,34.6203 191.2121,33.7224C191.2121,32.7933 191.4513,32.0722 191.9297,31.5591C192.4081,31.046 193.0287,30.7894 193.7914,30.7894C194.5298,30.7894 195.1331,31.0408 195.6011,31.5435C196.0691,32.0462 196.3031,32.7534 196.3031,33.6652C196.3031,33.7206 196.3014,33.8038 196.2979,33.9148L192.1793,33.9148C192.214,34.5215 192.3856,34.986 192.6942,35.3084C193.0027,35.6308 193.3875,35.792 193.8486,35.792C194.1918,35.792 194.4848,35.7019 194.7274,35.5216C194.9701,35.3414 195.1625,35.0536 195.3047,34.6584zM192.2313,33.1451L195.3151,33.1451C195.2735,32.6806 195.1556,32.3322 194.9614,32.0999C194.6633,31.7393 194.2768,31.5591 193.8018,31.5591C193.3719,31.5591 193.0105,31.7029 192.7176,31.9907C192.4246,32.2784 192.2625,32.6633 192.2313,33.1451zM201.0509,34.414L201.9713,34.5336C201.8708,35.168 201.6134,35.6646 201.1991,36.0234C200.7848,36.3823 200.276,36.5617 199.6728,36.5617C198.9171,36.5617 198.3095,36.3147 197.8502,35.8206C197.3908,35.3266 197.1611,34.6185 197.1611,33.6964C197.1611,33.1001 197.2599,32.5783 197.4575,32.1311C197.6551,31.6839 197.9559,31.3485 198.3598,31.1249C198.7637,30.9013 199.2031,30.7894 199.678,30.7894C200.2778,30.7894 200.7683,30.9411 201.1497,31.2445C201.531,31.5478 201.7754,31.9786 201.8829,32.5367L200.9729,32.6771C200.8862,32.3062 200.7328,32.0271 200.5127,31.8399C200.2925,31.6527 200.0264,31.5591 199.7144,31.5591C199.2429,31.5591 198.8599,31.7281 198.5652,32.0661C198.2705,32.4041 198.1232,32.9389 198.1232,33.6704C198.1232,34.4122 198.2653,34.9513 198.5496,35.2876C198.8339,35.6239 199.2048,35.792 199.6624,35.792C200.0299,35.792 200.3367,35.6794 200.5829,35.454C200.829,35.2287 200.985,34.882 201.0509,34.414zM204.8158,35.5996L204.951,36.4265C204.6875,36.4819 204.4518,36.5097 204.2438,36.5097C203.9041,36.5097 203.6406,36.4559 203.4534,36.3485C203.2662,36.241 203.1344,36.0997 203.0582,35.9246C202.9819,35.7496 202.9437,35.3812 202.9437,34.8196L202.9437,31.6423L202.2573,31.6423L202.2573,30.9143L202.9437,30.9143L202.9437,29.5466L203.8746,28.985L203.8746,30.9143L204.8158,30.9143L204.8158,31.6423L203.8746,31.6423L203.8746,34.8716C203.8746,35.1385 203.891,35.3102 203.924,35.3864C203.9569,35.4627 204.0107,35.5234 204.0852,35.5684C204.1597,35.6135 204.2663,35.636 204.405,35.636C204.509,35.636 204.6459,35.6239 204.8158,35.5996zM205.7362,29.8898L205.7362,28.8134L206.6723,28.8134L206.6723,29.8898zM205.7362,36.4369L205.7362,30.9143L206.6723,30.9143L206.6723,36.4369zM207.7487,33.6756C207.7487,32.6529 208.033,31.8954 208.6016,31.4031C209.0765,30.994 209.6555,30.7894 210.3384,30.7894C211.0976,30.7894 211.7182,31.0382 212.2001,31.5357C212.682,32.0332 212.9229,32.7205 212.9229,33.5976C212.9229,34.3082 212.8163,34.8673 212.6031,35.2746C212.3899,35.682 212.0796,35.9983 211.6723,36.2237C211.2649,36.449 210.8203,36.5617 210.3384,36.5617C209.5653,36.5617 208.9404,36.3138 208.4638,35.818C207.9871,35.3223 207.7487,34.6081 207.7487,33.6756zM208.7108,33.6756C208.7108,34.3828 208.865,34.9123 209.1736,35.2642C209.4821,35.6161 209.8704,35.792 210.3384,35.792C210.803,35.792 211.1895,35.6152 211.4981,35.2616C211.8066,34.908 211.9609,34.3689 211.9609,33.6444C211.9609,32.9614 211.8057,32.444 211.4955,32.0921C211.1852,31.7402 210.7995,31.5643 210.3384,31.5643C209.8704,31.5643 209.4821,31.7393 209.1736,32.0895C208.865,32.4396 208.7108,32.9683 208.7108,33.6756zM214.0202,36.4369L214.0202,30.9143L214.8626,30.9143L214.8626,31.6995C215.2682,31.0928 215.8541,30.7894 216.6203,30.7894C216.9531,30.7894 217.259,30.8492 217.5381,30.9689C217.8172,31.0885 218.026,31.2453 218.1647,31.4395C218.3034,31.6336 218.4005,31.8642 218.4559,32.1311C218.4906,32.3044 218.5079,32.6078 218.5079,33.0411L218.5079,36.4369L217.5719,36.4369L217.5719,33.0775C217.5719,32.6962 217.5355,32.411 217.4627,32.2221C217.3899,32.0332 217.2608,31.8824 217.0753,31.7697C216.8898,31.657 216.6723,31.6007 216.4227,31.6007C216.024,31.6007 215.6799,31.7272 215.3904,31.9803C215.1009,32.2334 214.9562,32.7135 214.9562,33.4207L214.9562,36.4369zM195.0264,45.922C195.0264,44.8993 195.3107,44.1418 195.8793,43.6495C196.3542,43.2404 196.9332,43.0359 197.6161,43.0359C198.3754,43.0359 198.9959,43.2846 199.4778,43.7821C199.9597,44.2796 200.2006,44.9669 200.2006,45.844C200.2006,46.5547 200.094,47.1137 199.8808,47.5211C199.6676,47.9284 199.3573,48.2448 198.95,48.4701C198.5426,48.6955 198.098,48.8081 197.6161,48.8081C196.843,48.8081 196.2182,48.5602 195.7415,48.0645C195.2648,47.5687 195.0264,46.8546 195.0264,45.922zM195.9885,45.922C195.9885,46.6292 196.1428,47.1588 196.4513,47.5107C196.7598,47.8626 197.1481,48.0385 197.6161,48.0385C198.0807,48.0385 198.4672,47.8617 198.7758,47.5081C199.0843,47.1545 199.2386,46.6154 199.2386,45.8908C199.2386,45.2079 199.0835,44.6904 198.7732,44.3386C198.4629,43.9867 198.0772,43.8107 197.6161,43.8107C197.1481,43.8107 196.7598,43.9858 196.4513,44.336C196.1428,44.6861 195.9885,45.2148 195.9885,45.922zM201.5215,48.6833L201.5215,43.8887L200.6947,43.8887L200.6947,43.1607L201.5215,43.1607L201.5215,42.5731C201.5215,42.2021 201.5544,41.9265 201.6203,41.7463C201.7104,41.5036 201.869,41.3068 202.0961,41.156C202.3232,41.0052 202.6413,40.9298 203.0503,40.9298C203.3138,40.9298 203.605,40.961 203.924,41.0234L203.7836,41.8399C203.5894,41.8052 203.4057,41.7879 203.2324,41.7879C202.9481,41.7879 202.747,41.8485 202.6291,41.9699C202.5113,42.0912 202.4523,42.3183 202.4523,42.6511L202.4523,43.1607L203.5288,43.1607L203.5288,43.8887L202.4523,43.8887L202.4523,48.6833zM172.5824,63.0463L172.5824,55.4072L173.4352,55.4072L173.4352,56.1248C173.6363,55.844 173.8634,55.6334 174.1165,55.493C174.3695,55.3526 174.6763,55.2824 175.0369,55.2824C175.5084,55.2824 175.9244,55.4037 176.2849,55.6464C176.6455,55.8891 176.9176,56.2314 177.1014,56.6734C177.2851,57.1154 177.377,57.5999 177.377,58.1269C177.377,58.692 177.2756,59.2007 177.0728,59.6531C176.87,60.1055 176.5753,60.4522 176.1887,60.6932C175.8022,60.9341 175.3957,61.0546 174.9693,61.0546C174.6573,61.0546 174.3773,60.9887 174.1295,60.857C173.8816,60.7252 173.6779,60.5588 173.5184,60.3578L173.5184,63.0463zM173.43,58.1997C173.43,58.9104 173.5739,59.4356 173.8617,59.7753C174.1494,60.1151 174.4978,60.285 174.9069,60.285C175.3229,60.285 175.6791,60.109 175.9755,59.7571C176.2719,59.4053 176.4201,58.8601 176.4201,58.1217C176.4201,57.4179 176.2754,56.891 175.9859,56.5408C175.6965,56.1907 175.3506,56.0156 174.9485,56.0156C174.5498,56.0156 174.1971,56.2019 173.8903,56.5746C173.5834,56.9473 173.43,57.489 173.43,58.1997zM178.157,58.1685C178.157,57.1458 178.4413,56.3883 179.0098,55.896C179.4848,55.4869 180.0638,55.2824 180.7467,55.2824C181.5059,55.2824 182.1265,55.5311 182.6084,56.0286C183.0903,56.5261 183.3312,57.2134 183.3312,58.0905C183.3312,58.8012 183.2246,59.3602 183.0114,59.7675C182.7982,60.1749 182.4879,60.4912 182.0806,60.7166C181.6732,60.9419 181.2286,61.0546 180.7467,61.0546C179.9736,61.0546 179.3487,60.8067 178.872,60.311C178.3954,59.8152 178.157,59.101 178.157,58.1685zM179.119,58.1685C179.119,58.8757 179.2733,59.4053 179.5819,59.7571C179.8904,60.109 180.2787,60.285 180.7467,60.285C181.2113,60.285 181.5978,60.1081 181.9064,59.7545C182.2149,59.4009 182.3692,58.8618 182.3692,58.1373C182.3692,57.4543 182.214,56.9369 181.9038,56.585C181.5935,56.2331 181.2078,56.0572 180.7467,56.0572C180.2787,56.0572 179.8904,56.2323 179.5819,56.5824C179.2733,56.9326 179.119,57.4612 179.119,58.1685zM184.4076,60.9298L184.4076,53.3063L185.3437,53.3063L185.3437,60.9298zM190.3983,60.2486C190.0516,60.5432 189.7179,60.7512 189.3972,60.8726C189.0766,60.9939 188.7325,61.0546 188.365,61.0546C187.7583,61.0546 187.292,60.9064 186.9661,60.61C186.6403,60.3136 186.4773,59.9348 186.4773,59.4737C186.4773,59.2033 186.5389,58.9563 186.6619,58.7327C186.785,58.5091 186.9462,58.3297 187.1456,58.1945C187.3449,58.0593 187.5694,57.957 187.819,57.8877C188.0027,57.8391 188.2801,57.7923 188.651,57.7473C189.4068,57.6571 189.9632,57.5497 190.3203,57.4248C190.3237,57.2966 190.3255,57.2151 190.3255,57.1804C190.3255,56.7991 190.2371,56.5304 190.0603,56.3744C189.8211,56.1629 189.4657,56.0572 188.9942,56.0572C188.5539,56.0572 188.2289,56.1343 188.0192,56.2886C187.8094,56.4429 187.6543,56.7159 187.5538,57.1076L186.6385,56.9828C186.7217,56.5911 186.8587,56.2747 187.0493,56.0338C187.24,55.7929 187.5156,55.6074 187.8762,55.4774C188.2367,55.3474 188.6545,55.2824 189.1294,55.2824C189.6009,55.2824 189.984,55.3378 190.2787,55.4488C190.5733,55.5597 190.79,55.6992 190.9287,55.8674C191.0674,56.0355 191.1644,56.2479 191.2199,56.5044C191.2511,56.6639 191.2667,56.9516 191.2667,57.3676L191.2667,58.6157C191.2667,59.4859 191.2866,60.0362 191.3265,60.2668C191.3664,60.4973 191.4452,60.7183 191.5631,60.9298L190.5855,60.9298C190.4884,60.7356 190.426,60.5086 190.3983,60.2486zM190.3203,58.1581C189.9805,58.2967 189.4709,58.4146 188.7914,58.5117C188.4066,58.5672 188.1345,58.6296 187.975,58.6989C187.8155,58.7682 187.6924,58.8696 187.6058,59.0031C187.5191,59.1366 187.4758,59.2848 187.4758,59.4477C187.4758,59.6973 187.5702,59.9053 187.7592,60.0717C187.9481,60.2382 188.2246,60.3214 188.5886,60.3214C188.9492,60.3214 189.2698,60.2425 189.5506,60.0847C189.8315,59.927 190.0377,59.7112 190.1695,59.4373C190.27,59.2258 190.3203,58.9138 190.3203,58.5013zM192.7072,60.9298L192.7072,55.4072L193.5496,55.4072L193.5496,56.2444C193.7645,55.8527 193.963,55.5944 194.145,55.4696C194.327,55.3448 194.5272,55.2824 194.7456,55.2824C195.0611,55.2824 195.3818,55.3829 195.7077,55.584L195.3853,56.4524C195.1564,56.3172 194.9276,56.2496 194.6988,56.2496C194.4943,56.2496 194.3106,56.3111 194.1476,56.4342C193.9847,56.5573 193.8685,56.728 193.7992,56.9464C193.6952,57.2792 193.6432,57.6433 193.6432,58.0385L193.6432,60.9298zM196.2693,54.3827L196.2693,53.3063L197.2053,53.3063L197.2053,54.3827zM196.2693,60.9298L196.2693,55.4072L197.2053,55.4072L197.2053,60.9298zM198.1362,60.9298L198.1362,60.1706L201.6515,56.1352C201.2528,56.156 200.9009,56.1664 200.5959,56.1664L198.3442,56.1664L198.3442,55.4072L202.8579,55.4072L202.8579,56.026L199.8678,59.5309L199.2906,60.1706C199.7101,60.1394 200.1036,60.1237 200.4711,60.1237L203.0243,60.1237L203.0243,60.9298zM207.5589,60.2486C207.2122,60.5432 206.8786,60.7512 206.5579,60.8726C206.2372,60.9939 205.8931,61.0546 205.5256,61.0546C204.919,61.0546 204.4527,60.9064 204.1268,60.61C203.8009,60.3136 203.638,59.9348 203.638,59.4737C203.638,59.2033 203.6995,58.9563 203.8226,58.7327C203.9456,58.5091 204.1069,58.3297 204.3062,58.1945C204.5055,58.0593 204.73,57.957 204.9796,57.8877C205.1634,57.8391 205.4407,57.7923 205.8117,57.7473C206.5674,57.6571 207.1238,57.5497 207.4809,57.4248C207.4844,57.2966 207.4861,57.2151 207.4861,57.1804C207.4861,56.7991 207.3977,56.5304 207.2209,56.3744C206.9817,56.1629 206.6263,56.0572 206.1549,56.0572C205.7146,56.0572 205.3896,56.1343 205.1798,56.2886C204.9701,56.4429 204.8149,56.7159 204.7144,57.1076L203.7992,56.9828C203.8824,56.5911 204.0193,56.2747 204.21,56.0338C204.4007,55.7929 204.6763,55.6074 205.0368,55.4774C205.3974,55.3474 205.8151,55.2824 206.2901,55.2824C206.7616,55.2824 207.1446,55.3378 207.4393,55.4488C207.734,55.5597 207.9507,55.6992 208.0893,55.8674C208.228,56.0355 208.3251,56.2479 208.3805,56.5044C208.4117,56.6639 208.4274,56.9516 208.4274,57.3676L208.4274,58.6157C208.4274,59.4859 208.4473,60.0362 208.4872,60.2668C208.527,60.4973 208.6059,60.7183 208.7238,60.9298L207.7461,60.9298C207.6491,60.7356 207.5867,60.5086 207.5589,60.2486zM207.4809,58.1581C207.1412,58.2967 206.6316,58.4146 205.9521,58.5117C205.5672,58.5672 205.2951,58.6296 205.1356,58.6989C204.9762,58.7682 204.8531,58.8696 204.7664,59.0031C204.6797,59.1366 204.6364,59.2848 204.6364,59.4477C204.6364,59.6973 204.7309,59.9053 204.9198,60.0717C205.1088,60.2382 205.3852,60.3214 205.7492,60.3214C206.1098,60.3214 206.4305,60.2425 206.7113,60.0847C206.9921,59.927 207.1984,59.7112 207.3301,59.4373C207.4306,59.2258 207.4809,58.9138 207.4809,58.5013zM211.9219,60.0925L212.0571,60.9194C211.7936,60.9748 211.5579,61.0026 211.3499,61.0026C211.0101,61.0026 210.7466,60.9488 210.5594,60.8414C210.3722,60.7339 210.2405,60.5926 210.1642,60.4176C210.0879,60.2425 210.0498,59.8741 210.0498,59.3125L210.0498,56.1352L209.3634,56.1352L209.3634,55.4072L210.0498,55.4072L210.0498,54.0395L210.9806,53.4779L210.9806,55.4072L211.9219,55.4072L211.9219,56.1352L210.9806,56.1352L210.9806,59.3645C210.9806,59.6315 210.9971,59.8031 211.03,59.8793C211.063,59.9556 211.1167,60.0163 211.1913,60.0613C211.2658,60.1064 211.3724,60.1289 211.5111,60.1289C211.6151,60.1289 211.752,60.1168 211.9219,60.0925zM212.8423,54.3827L212.8423,53.3063L213.7784,53.3063L213.7784,54.3827zM212.8423,60.9298L212.8423,55.4072L213.7784,55.4072L213.7784,60.9298zM214.8548,58.1685C214.8548,57.1458 215.1391,56.3883 215.7076,55.896C216.1826,55.4869 216.7615,55.2824 217.4445,55.2824C218.2037,55.2824 218.8243,55.5311 219.3062,56.0286C219.788,56.5261 220.029,57.2134 220.029,58.0905C220.029,58.8012 219.9224,59.3602 219.7092,59.7675C219.496,60.1749 219.1857,60.4912 218.7783,60.7166C218.371,60.9419 217.9264,61.0546 217.4445,61.0546C216.6714,61.0546 216.0465,60.8067 215.5698,60.311C215.0931,59.8152 214.8548,59.101 214.8548,58.1685zM215.8168,58.1685C215.8168,58.8757 215.9711,59.4053 216.2796,59.7571C216.5882,60.109 216.9765,60.285 217.4445,60.285C217.909,60.285 218.2956,60.1081 218.6041,59.7545C218.9127,59.4009 219.067,58.8618 219.067,58.1373C219.067,57.4543 218.9118,56.9369 218.6015,56.585C218.2913,56.2331 217.9056,56.0572 217.4445,56.0572C216.9765,56.0572 216.5882,56.2323 216.2796,56.5824C215.9711,56.9326 215.8168,57.4612 215.8168,58.1685zM221.1262,60.9298L221.1262,55.4072L221.9687,55.4072L221.9687,56.1924C222.3743,55.5857 222.9602,55.2824 223.7263,55.2824C224.0591,55.2824 224.3651,55.3422 224.6442,55.4618C224.9232,55.5814 225.1321,55.7382 225.2708,55.9324C225.4095,56.1265 225.5065,56.3571 225.562,56.624C225.5967,56.7974 225.614,57.1007 225.614,57.5341L225.614,60.9298L224.678,60.9298L224.678,57.5705C224.678,57.1891 224.6416,56.904 224.5688,56.715C224.496,56.5261 224.3668,56.3753 224.1813,56.2626C223.9959,56.1499 223.7783,56.0936 223.5287,56.0936C223.13,56.0936 222.786,56.2201 222.4965,56.4732C222.207,56.7263 222.0623,57.2064 222.0623,57.9137L222.0623,60.9298z" style="fill:#0080FF;" />
</svg>