<?xml version="1.0" encoding="utf-8"?>
<svg version="1.1" viewBox="0 0 240 240" width="240" height="240" style="stroke:none;stroke-linecap:butt;stroke-linejoin:miter;stroke-width:1;stroke-dasharray:none;fill:#000000;fill-opacity:1;fill-rule:evenodd" font-family="Arial" font-size="15px" xmlns:xlink="http://www.w3.org/1999/xlink" xmlns="http://www.w3.org/2000/svg">
  <line id="Line" x1="30" y1="120" x2="230" y2="120" style="stroke:#000000;" />
  <line id="Line1" x1="130" y1="20" x2="130" y2="220" style="stroke:#000000;" />
  <path id="x" d="M225.351,123.7586L229.2759,123.7586L229.2759,124.0955C229.0269,124.0955 228.8524,124.138 228.7522,124.223C228.6521,124.308 228.602,124.4203 228.602,124.56C228.602,124.7057 228.7082,124.9303 228.9207,125.2338C228.9875,125.331 229.0877,125.4827 229.2212,125.6892L229.8131,126.6362L230.4961,125.6892C230.9332,125.0881 231.1518,124.7087 231.1518,124.5508C231.1518,124.4234 231.1002,124.3156 230.997,124.2276C230.8938,124.1395 230.7268,124.0955 230.4961,124.0955L230.4961,123.7586L233.3191,123.7586L233.3191,124.0955C233.0216,124.1137 232.7636,124.1957 232.5451,124.3414C232.2476,124.5478 231.8408,124.9971 231.3248,125.6892L230.1865,127.2099L232.2628,130.1968C232.7727,130.9314 233.137,131.3731 233.3555,131.5218C233.5741,131.6706 233.8564,131.754 234.2024,131.7723L234.2024,132.1001L230.2685,132.1001L230.2685,131.7723C230.5417,131.7723 230.7541,131.7115 230.9059,131.5901C231.0213,131.5051 231.0789,131.3928 231.0789,131.2532C231.0789,131.1136 230.8847,130.7614 230.4961,130.1968L229.2759,128.412L227.9372,130.1968C227.5244,130.7493 227.318,131.0771 227.318,131.1803C227.318,131.326 227.3863,131.4581 227.5229,131.5765C227.6595,131.6949 227.8644,131.7601 228.1376,131.7723L228.1376,132.1001L225.4147,132.1001L225.4147,131.7723C225.6333,131.7419 225.8245,131.666 225.9884,131.5446C226.2191,131.3685 226.6077,130.9193 227.1541,130.1968L228.9025,127.8747L227.318,125.5799C226.8687,124.9242 226.5212,124.5129 226.2753,124.346C226.0294,124.179 225.7213,124.0955 225.351,124.0955z" />
  <path id="y" d="M132.7544,16.583L136.6429,16.583L136.6429,16.9199L136.4516,16.9199C136.1784,16.9199 135.9735,16.9791 135.8369,17.0975C135.7003,17.2159 135.632,17.3631 135.632,17.5392C135.632,17.7759 135.7322,18.1038 135.9326,18.5227L137.9633,22.7298L139.8301,18.122C139.9333,17.8731 139.9849,17.6272 139.9849,17.3843C139.9849,17.2751 139.9637,17.1931 139.9212,17.1385C139.8726,17.0717 139.7967,17.0186 139.6935,16.9791C139.5903,16.9396 139.4082,16.9199 139.1471,16.9199L139.1471,16.583L141.8608,16.583L141.8608,16.9199C141.6362,16.9442 141.4632,16.9928 141.3418,17.0656C141.2204,17.1385 141.0868,17.2751 140.9411,17.4754C140.8865,17.5604 140.7833,17.7941 140.6315,18.1766L137.2348,26.4999C136.9069,27.3073 136.4774,27.9175 135.9462,28.3303C135.415,28.7431 134.9035,28.9495 134.4118,28.9495C134.0536,28.9495 133.7591,28.8463 133.5285,28.6399C133.2978,28.4335 133.1824,28.1967 133.1824,27.9296C133.1824,27.6746 133.2659,27.4697 133.4328,27.3149C133.5998,27.1601 133.829,27.0827 134.1204,27.0827C134.3207,27.0827 134.5939,27.1495 134.9399,27.2831C135.1828,27.3741 135.3346,27.4196 135.3953,27.4196C135.5774,27.4196 135.7762,27.3255 135.9917,27.1373C136.2073,26.9491 136.4243,26.5849 136.6429,26.0446L137.2348,24.5967L134.2388,18.3041C134.1477,18.1159 134.002,17.8822 133.8016,17.6029C133.6499,17.3904 133.5254,17.2477 133.4283,17.1749C133.2886,17.0778 133.064,16.9928 132.7544,16.9199z" />
  <line id="Line2" x1="130.6863" y1="119.6303" x2="55.7481" y2="169.8296" style="stroke:#0080FF;stroke-width:3;" />
  <path id="Shape" d="M66.9178,167.9859L53.8911,171.4145L61.4684,161.148" style="stroke:#0080FF;stroke-linecap:round;stroke-width:3;fill:none;" />
  <line id="Line3" x1="50.2475" y1="120.0225" x2="50.2475" y2="174.0225" style="stroke:#000000;stroke-dasharray:2 5;" />
  <line id="Line4" x1="129.8013" y1="173.7981" x2="49.8033" y2="173.7981" style="stroke:#000000;stroke-dasharray:2 5;" />
  <path id="Arc" d="M129.454,92.5349C149.3252,92.3122 162.9519,113.9251 154.1845,131.7589C145.417,149.5927 119.9808,152.0014 108.0216,136.1303" style="stroke:#000000;stroke-width:2;fill:none;" />
  <path id="x1" d="M162.4412,141.3354L163.9893,141.3354L163.0514,145.5517C162.8692,146.3531 162.7448,146.8448 162.678,147.0269C162.9208,148.144 163.2729,148.7025 163.7343,148.7025C164.2807,148.7025 164.563,148.3261 164.5812,147.5733L164.9091,147.5733C164.8909,148.2775 164.7619,148.8467 164.522,149.2808C164.2822,149.7148 163.9681,149.9319 163.5795,149.9319C163.2578,149.9319 163.018,149.8014 162.8601,149.5403C162.7023,149.2793 162.5323,148.745 162.3502,147.9376C161.7188,149.2671 160.6867,149.9319 159.254,149.9319C158.2765,149.9319 157.4995,149.5509 156.9227,148.789C156.346,148.0271 156.0576,146.9359 156.0576,145.5153C156.0576,144.1189 156.3733,143.0322 157.0047,142.2552C157.6361,141.4781 158.3949,141.0895 159.2813,141.0895C159.9066,141.0895 160.4196,141.3111 160.8203,141.7543C161.221,142.1975 161.5761,142.9199 161.8857,143.9216zM161.6399,144.9051C161.3545,143.9277 161.0358,143.1643 160.6837,142.6149C160.3316,142.0654 159.9096,141.7907 159.4179,141.7907C158.3069,141.7907 157.7514,143.0899 157.7514,145.6883C157.7514,148.1531 158.2826,149.3855 159.345,149.3855C160.2678,149.3855 160.9508,148.2988 161.394,146.1254z" />
  <path id="x2" d="M76.4361,180.6434L76.4361,183.4846L76.1356,183.4846C75.9049,182.5921 75.609,181.985 75.2478,181.6633C74.8865,181.3415 74.4267,181.1806 73.8681,181.1806C73.4432,181.1806 73.1001,181.2929 72.8391,181.5176C72.578,181.7422 72.4475,181.9911 72.4475,182.2643C72.4475,182.6043 72.5447,182.8957 72.7389,183.1385C72.9271,183.3874 73.3096,183.6515 73.8863,183.9308L75.2159,184.5773C76.4483,185.1784 77.0645,185.9706 77.0645,186.9541C77.0645,187.713 76.7776,188.3246 76.2039,188.7891C75.6302,189.2535 74.9882,189.4857 74.2779,189.4857C73.768,189.4857 73.1851,189.3946 72.5295,189.2125C72.3291,189.1518 72.1652,189.1215 72.0377,189.1215C71.8981,189.1215 71.7888,189.2004 71.7099,189.3582L71.4094,189.3582L71.4094,186.3804L71.7099,186.3804C71.8799,187.2303 72.2047,187.8708 72.6843,188.3019C73.1639,188.7329 73.7012,188.9484 74.2961,188.9484C74.715,188.9484 75.0565,188.8255 75.3206,188.5796C75.5847,188.3337 75.7167,188.0378 75.7167,187.6917C75.7167,187.2728 75.5695,186.9207 75.2751,186.6354C74.9806,186.3501 74.3933,185.9888 73.513,185.5517C72.6327,185.1146 72.0559,184.72 71.7827,184.3679C71.5096,184.0218 71.373,183.5847 71.373,183.0566C71.373,182.3705 71.6082,181.7968 72.0787,181.3354C72.5492,180.874 73.1578,180.6434 73.9046,180.6434C74.2324,180.6434 74.63,180.7132 75.0975,180.8528C75.4071,180.9439 75.6135,180.9894 75.7167,180.9894C75.8139,180.9894 75.8898,180.9681 75.9444,180.9257C75.999,180.8832 76.0628,180.7891 76.1356,180.6434zM80.4248,176.2814C80.6797,176.2814 80.8968,176.3709 81.0759,176.55C81.255,176.7291 81.3445,176.9461 81.3445,177.2011C81.3445,177.4561 81.255,177.6747 81.0759,177.8568C80.8968,178.0389 80.6797,178.13 80.4248,178.13C80.1698,178.13 79.9512,178.0389 79.7691,177.8568C79.587,177.6747 79.4959,177.4561 79.4959,177.2011C79.4959,176.9461 79.5855,176.7291 79.7645,176.55C79.9436,176.3709 80.1637,176.2814 80.4248,176.2814zM81.1806,180.6434L81.1806,187.3457C81.1806,187.8678 81.2185,188.2154 81.2944,188.3884C81.3703,188.5614 81.4826,188.6904 81.6314,188.7754C81.7801,188.8604 82.0518,188.9029 82.4464,188.9029L82.4464,189.2307L78.394,189.2307L78.394,188.9029C78.8008,188.9029 79.074,188.8634 79.2136,188.7845C79.3532,188.7056 79.464,188.5751 79.546,188.3929C79.628,188.2108 79.6689,187.8617 79.6689,187.3457L79.6689,184.1311C79.6689,183.2265 79.6416,182.6407 79.587,182.3736C79.5445,182.1793 79.4777,182.0442 79.3866,181.9683C79.2956,181.8925 79.1711,181.8545 79.0133,181.8545C78.8433,181.8545 78.6369,181.9 78.394,181.9911L78.2665,181.6633L80.7799,180.6434zM85.916,182.41C86.8934,181.2322 87.8253,180.6434 88.7116,180.6434C89.1669,180.6434 89.5585,180.7572 89.8864,180.9848C90.2142,181.2125 90.4752,181.5874 90.6695,182.1095C90.8031,182.4737 90.8699,183.0323 90.8699,183.7851L90.8699,187.3457C90.8699,187.8739 90.9124,188.2321 90.9973,188.4203C91.0641,188.572 91.1719,188.6904 91.3206,188.7754C91.4694,188.8604 91.7441,188.9029 92.1448,188.9029L92.1448,189.2307L88.0195,189.2307L88.0195,188.9029L88.1926,188.9029C88.5811,188.9029 88.8528,188.8437 89.0076,188.7253C89.1624,188.6069 89.2702,188.4324 89.3309,188.2017C89.3552,188.1106 89.3673,187.8253 89.3673,187.3457L89.3673,183.9308C89.3673,183.1719 89.2686,182.621 89.0713,182.278C88.874,181.9349 88.5416,181.7634 88.0742,181.7634C87.3517,181.7634 86.6323,182.1581 85.916,182.9473L85.916,187.3457C85.916,187.9103 85.9493,188.2594 86.0161,188.3929C86.1011,188.569 86.218,188.698 86.3667,188.78C86.5155,188.8619 86.8175,188.9029 87.2728,188.9029L87.2728,189.2307L83.1476,189.2307L83.1476,188.9029L83.3297,188.9029C83.7547,188.9029 84.0415,188.7951 84.1903,188.5796C84.339,188.3641 84.4134,187.9528 84.4134,187.3457L84.4134,184.2495C84.4134,183.2478 84.3906,182.6377 84.3451,182.4191C84.2996,182.2006 84.2297,182.0518 84.1356,181.9729C84.0415,181.894 83.9156,181.8545 83.7577,181.8545C83.5877,181.8545 83.3844,181.9 83.1476,181.9911L83.011,181.6633L85.5244,180.6434L85.916,180.6434zM104.0651,180.8892L105.6132,180.8892L104.6752,185.1055C104.4931,185.9069 104.3686,186.3986 104.3019,186.5808C104.5447,187.6978 104.8968,188.2563 105.3582,188.2563C105.9046,188.2563 106.1869,187.8799 106.2051,187.1271L106.5329,187.1271C106.5147,187.8314 106.3857,188.4005 106.1459,188.8346C105.9061,189.2687 105.5919,189.4857 105.2034,189.4857C104.8816,189.4857 104.6418,189.3552 104.484,189.0941C104.3261,188.8331 104.1562,188.2988 103.974,187.4914C103.3427,188.8209 102.3106,189.4857 100.8778,189.4857C99.9004,189.4857 99.1233,189.1048 98.5466,188.3429C97.9699,187.5809 97.6815,186.4897 97.6815,185.0691C97.6815,183.6728 97.9972,182.5861 98.6285,181.809C99.2599,181.0319 100.0188,180.6434 100.9052,180.6434C101.5305,180.6434 102.0435,180.8649 102.4442,181.3081C102.8448,181.7513 103.2,182.4737 103.5096,183.4755zM103.2637,184.459C102.9784,183.4815 102.6597,182.7181 102.3076,182.1687C101.9554,181.6193 101.5335,181.3445 101.0418,181.3445C99.9308,181.3445 99.3753,182.6437 99.3753,185.2421C99.3753,187.7069 99.9065,188.9393 100.9689,188.9393C101.8917,188.9393 102.5747,187.8526 103.0179,185.6792z" />
  <path id="x3" d="M14.8008,146.4063C14.5762,147.5052 14.136,148.3505 13.4804,148.9425C12.8247,149.5344 12.0992,149.8303 11.3039,149.8303C10.3568,149.8303 9.5312,149.4327 8.827,148.6374C8.1227,147.8421 7.7706,146.7675 7.7706,145.4137C7.7706,144.1024 8.1607,143.0369 8.9408,142.2174C9.7209,141.3978 10.6574,140.988 11.7501,140.988C12.5697,140.988 13.2436,141.205 13.7718,141.6391C14.2999,142.0732 14.564,142.5239 14.564,142.9914C14.564,143.2221 14.4896,143.4088 14.3409,143.5514C14.1922,143.6941 13.9842,143.7654 13.7171,143.7654C13.3589,143.7654 13.0888,143.6501 12.9066,143.4194C12.8034,143.2919 12.7351,143.0491 12.7017,142.6909C12.6684,142.3327 12.5454,142.0595 12.3329,141.8713C12.1205,141.6892 11.826,141.5981 11.4496,141.5981C10.8425,141.5981 10.3538,141.8227 9.9835,142.272C9.4917,142.8669 9.2459,143.6531 9.2459,144.6306C9.2459,145.6262 9.4902,146.505 9.9789,147.2669C10.4676,148.0288 11.1279,148.4097 11.9596,148.4097C12.5545,148.4097 13.0888,148.2064 13.5623,147.7996C13.8962,147.5203 14.221,147.0134 14.5367,146.2788zM20.0734,140.988C21.3362,140.988 22.35,141.4676 23.115,142.4268C23.7646,143.2464 24.0894,144.1874 24.0894,145.2498C24.0894,145.9965 23.9103,146.7524 23.5521,147.5173C23.1939,148.2822 22.7006,148.859 22.0723,149.2475C21.4439,149.6361 20.7443,149.8303 19.9732,149.8303C18.7166,149.8303 17.7179,149.3295 16.9772,148.3278C16.3519,147.4839 16.0393,146.5368 16.0393,145.4866C16.0393,144.7216 16.229,143.9612 16.6084,143.2054C16.9878,142.4496 17.4872,141.891 18.1064,141.5298C18.7257,141.1686 19.3813,140.988 20.0734,140.988zM19.7911,141.5799C19.4694,141.5799 19.1461,141.6755 18.8213,141.8668C18.4965,142.058 18.2339,142.3934 18.0336,142.873C17.8332,143.3526 17.7331,143.9688 17.7331,144.7216C17.7331,145.9358 17.9744,146.9831 18.457,147.8633C18.9397,148.7436 19.5756,149.1838 20.3648,149.1838C20.9537,149.1838 21.4394,148.9409 21.8219,148.4553C22.2043,147.9696 22.3956,147.1348 22.3956,145.951C22.3956,144.4697 22.0768,143.3041 21.4394,142.4541C21.0083,141.8713 20.4589,141.5799 19.7911,141.5799zM30.7097,140.988L30.7097,143.8292L30.4092,143.8292C30.1785,142.9368 29.8826,142.3297 29.5214,142.0079C29.1601,141.6861 28.7003,141.5253 28.1417,141.5253C27.7168,141.5253 27.3737,141.6376 27.1127,141.8622C26.8516,142.0868 26.7211,142.3357 26.7211,142.6089C26.7211,142.9489 26.8183,143.2403 27.0125,143.4831C27.2007,143.7321 27.5832,143.9961 28.1599,144.2754L29.4895,144.922C30.7219,145.523 31.3381,146.3153 31.3381,147.2987C31.3381,148.0576 31.0512,148.6693 30.4775,149.1337C29.9038,149.5981 29.2618,149.8303 28.5515,149.8303C28.0416,149.8303 27.4587,149.7393 26.8031,149.5571C26.6027,149.4964 26.4388,149.4661 26.3113,149.4661C26.1717,149.4661 26.0624,149.545 25.9835,149.7029L25.683,149.7029L25.683,146.725L25.9835,146.725C26.1535,147.575 26.4783,148.2155 26.9579,148.6465C27.4375,149.0775 27.9748,149.2931 28.5697,149.2931C28.9886,149.2931 29.3301,149.1701 29.5942,148.9242C29.8583,148.6784 29.9903,148.3824 29.9903,148.0364C29.9903,147.6175 29.8431,147.2654 29.5487,146.98C29.2542,146.6947 28.6669,146.3335 27.7866,145.8964C26.9063,145.4592 26.3295,145.0646 26.0564,144.7125C25.7832,144.3665 25.6466,143.9294 25.6466,143.4012C25.6466,142.7152 25.8818,142.1415 26.3523,141.6801C26.8228,141.2187 27.4314,140.988 28.1782,140.988C28.506,140.988 28.9036,141.0578 29.3711,141.1974C29.6807,141.2885 29.8871,141.334 29.9903,141.334C30.0875,141.334 30.1634,141.3128 30.218,141.2703C30.2726,141.2278 30.3364,141.1337 30.4092,140.988zM43.8321,141.2339L45.3802,141.2339L44.4423,145.4501C44.2601,146.2515 44.1357,146.7433 44.0689,146.9254C44.3117,148.0424 44.6639,148.601 45.1252,148.601C45.6716,148.601 45.9539,148.2246 45.9721,147.4718L46.3,147.4718C46.2818,148.176 46.1528,148.7452 45.913,149.1792C45.6732,149.6133 45.359,149.8303 44.9704,149.8303C44.6487,149.8303 44.4089,149.6998 44.251,149.4388C44.0932,149.1777 43.9232,148.6435 43.7411,147.836C43.1097,149.1656 42.0776,149.8303 40.6449,149.8303C39.6675,149.8303 38.8904,149.4494 38.3136,148.6875C37.7369,147.9256 37.4485,146.8343 37.4485,145.4137C37.4485,144.0174 37.7642,142.9307 38.3956,142.1536C39.027,141.3765 39.7858,140.988 40.6722,140.988C41.2975,140.988 41.8105,141.2096 42.2112,141.6528C42.6119,142.0959 42.967,142.8184 43.2766,143.8201zM43.0308,144.8036C42.7454,143.8262 42.4267,143.0627 42.0746,142.5133C41.7225,141.9639 41.3005,141.6892 40.8088,141.6892C39.6978,141.6892 39.1423,142.9884 39.1423,145.5867C39.1423,148.0515 39.6735,149.284 40.7359,149.284C41.6587,149.284 42.3417,148.1973 42.7849,146.0238z" />
  <path id="x4" d="M11.3518,184.0528L11.3518,183.356C11.0017,183.9037 10.4869,184.1776 9.8074,184.1776C9.3671,184.1776 8.9624,184.0563 8.5931,183.8136C8.2239,183.5709 7.9379,183.2321 7.7351,182.797C7.5323,182.3619 7.4309,181.8618 7.4309,181.2967C7.4309,180.7455 7.5228,180.2454 7.7065,179.7965C7.8902,179.3475 8.1659,179.0034 8.5333,178.7642C8.9008,178.525 9.3116,178.4054 9.7658,178.4054C10.0986,178.4054 10.395,178.4756 10.655,178.616C10.915,178.7564 11.1265,178.9393 11.2894,179.1646L11.2894,176.4293L12.2203,176.4293L12.2203,184.0528zM8.3929,181.2967C8.3929,182.0039 8.542,182.5326 8.8401,182.8828C9.1383,183.2329 9.4902,183.408 9.8958,183.408C10.3049,183.408 10.6524,183.2407 10.9384,182.9062C11.2244,182.5716 11.3674,182.0611 11.3674,181.3747C11.3674,180.619 11.2218,180.0643 10.9306,179.7107C10.6394,179.357 10.2806,179.1802 9.8542,179.1802C9.4382,179.1802 9.0906,179.3501 8.8115,179.6899C8.5325,180.0296 8.3929,180.5652 8.3929,181.2967zM13.6971,177.5058L13.6971,176.4293L14.6332,176.4293L14.6332,177.5058zM13.6971,184.0528L13.6971,178.5302L14.6332,178.5302L14.6332,184.0528zM16.0476,184.0528L16.0476,178.5302L16.8901,178.5302L16.8901,179.3674C17.105,178.9757 17.3035,178.7174 17.4855,178.5926C17.6675,178.4678 17.8677,178.4054 18.0861,178.4054C18.4016,178.4054 18.7223,178.5059 19.0481,178.707L18.7257,179.5755C18.4969,179.4402 18.2681,179.3726 18.0393,179.3726C17.8348,179.3726 17.651,179.4342 17.4881,179.5573C17.3251,179.6803 17.209,179.8511 17.1397,180.0695C17.0357,180.4023 16.9837,180.7663 16.9837,181.1615L16.9837,184.0528zM23.3851,182.2744L24.3523,182.394C24.1998,182.959 23.9172,183.3976 23.5047,183.7096C23.0921,184.0216 22.5652,184.1776 21.9238,184.1776C21.1161,184.1776 20.4756,183.9289 20.0024,183.4314C19.5291,182.9339 19.2925,182.2362 19.2925,181.3383C19.2925,180.4092 19.5317,179.6881 20.0102,179.175C20.4886,178.662 21.1091,178.4054 21.8718,178.4054C22.6103,178.4054 23.2135,178.6568 23.6815,179.1594C24.1495,179.6621 24.3835,180.3694 24.3835,181.2811C24.3835,181.3366 24.3818,181.4198 24.3783,181.5307L20.2598,181.5307C20.2944,182.1374 20.4661,182.602 20.7746,182.9244C21.0831,183.2468 21.468,183.408 21.929,183.408C22.2723,183.408 22.5652,183.3179 22.8079,183.1376C23.0505,182.9573 23.243,182.6696 23.3851,182.2744zM20.3118,180.7611L23.3955,180.7611C23.3539,180.2965 23.236,179.9481 23.0419,179.7159C22.7437,179.3553 22.3572,179.175 21.8822,179.175C21.4524,179.175 21.0909,179.3189 20.798,179.6067C20.5051,179.8944 20.343,180.2792 20.3118,180.7611zM29.1313,182.0299L30.0517,182.1496C29.9512,182.784 29.6938,183.2806 29.2795,183.6394C28.8652,183.9982 28.3565,184.1776 27.7533,184.1776C26.9975,184.1776 26.3899,183.9306 25.9306,183.4366C25.4712,182.9426 25.2416,182.2345 25.2416,181.3123C25.2416,180.716 25.3404,180.1943 25.538,179.7471C25.7356,179.2998 26.0363,178.9644 26.4402,178.7408C26.8441,178.5172 27.2835,178.4054 27.7585,178.4054C28.3582,178.4054 28.8488,178.5571 29.2301,178.8604C29.6115,179.1638 29.8559,179.5945 29.9633,180.1527L29.0533,180.2931C28.9666,179.9221 28.8132,179.6431 28.5931,179.4558C28.3729,179.2686 28.1069,179.175 27.7949,179.175C27.3234,179.175 26.9403,179.344 26.6456,179.6821C26.3509,180.0201 26.2036,180.5548 26.2036,181.2863C26.2036,182.0282 26.3457,182.5673 26.63,182.9036C26.9143,183.2399 27.2852,183.408 27.7429,183.408C28.1103,183.408 28.4171,183.2953 28.6633,183.07C28.9094,182.8446 29.0654,182.498 29.1313,182.0299zM32.8963,183.2156L33.0315,184.0424C32.768,184.0979 32.5322,184.1256 32.3242,184.1256C31.9845,184.1256 31.721,184.0719 31.5338,183.9644C31.3466,183.8569 31.2149,183.7157 31.1386,183.5406C31.0623,183.3655 31.0242,182.9972 31.0242,182.4356L31.0242,179.2582L30.3378,179.2582L30.3378,178.5302L31.0242,178.5302L31.0242,177.1626L31.955,176.6009L31.955,178.5302L32.8963,178.5302L32.8963,179.2582L31.955,179.2582L31.955,182.4876C31.955,182.7545 31.9715,182.9261 32.0044,183.0024C32.0374,183.0787 32.0911,183.1393 32.1656,183.1844C32.2402,183.2295 32.3468,183.252 32.4854,183.252C32.5894,183.252 32.7264,183.2399 32.8963,183.2156zM33.8167,177.5058L33.8167,176.4293L34.7527,176.4293L34.7527,177.5058zM33.8167,184.0528L33.8167,178.5302L34.7527,178.5302L34.7527,184.0528zM35.8292,181.2915C35.8292,180.2688 36.1134,179.5113 36.682,179.019C37.1569,178.61 37.7359,178.4054 38.4189,178.4054C39.1781,178.4054 39.7986,178.6542 40.2805,179.1516C40.7624,179.6491 41.0034,180.3364 41.0034,181.2135C41.0034,181.9242 40.8968,182.4832 40.6835,182.8906C40.4703,183.2979 40.1601,183.6143 39.7527,183.8396C39.3454,184.065 38.9007,184.1776 38.4189,184.1776C37.6458,184.1776 37.0209,183.9298 36.5442,183.434C36.0675,182.9382 35.8292,182.2241 35.8292,181.2915zM36.7912,181.2915C36.7912,181.9987 36.9455,182.5283 37.254,182.8802C37.5626,183.2321 37.9508,183.408 38.4189,183.408C38.8834,183.408 39.27,183.2312 39.5785,182.8776C39.887,182.524 40.0413,181.9849 40.0413,181.2603C40.0413,180.5774 39.8862,180.0599 39.5759,179.7081C39.2656,179.3562 38.8799,179.1802 38.4189,179.1802C37.9508,179.1802 37.5626,179.3553 37.254,179.7055C36.9455,180.0556 36.7912,180.5843 36.7912,181.2915zM42.1006,184.0528L42.1006,178.5302L42.943,178.5302L42.943,179.3154C43.3486,178.7088 43.9345,178.4054 44.7007,178.4054C45.0335,178.4054 45.3395,178.4652 45.6185,178.5848C45.8976,178.7044 46.1065,178.8613 46.2452,179.0554C46.3838,179.2496 46.4809,179.4801 46.5364,179.7471C46.571,179.9204 46.5884,180.2237 46.5884,180.6571L46.5884,184.0528L45.6523,184.0528L45.6523,180.6935C45.6523,180.3121 45.6159,180.027 45.5431,179.8381C45.4703,179.6491 45.3412,179.4983 45.1557,179.3856C44.9702,179.273 44.7527,179.2166 44.5031,179.2166C44.1044,179.2166 43.7603,179.3432 43.4708,179.5963C43.1814,179.8493 43.0366,180.3295 43.0366,181.0367L43.0366,184.0528zM23.1069,193.538C23.1069,192.5153 23.3912,191.7578 23.9597,191.2655C24.4347,190.8564 25.0136,190.6519 25.6966,190.6519C26.4558,190.6519 27.0764,190.9006 27.5583,191.3981C28.0401,191.8956 28.2811,192.5829 28.2811,193.46C28.2811,194.1707 28.1745,194.7297 27.9613,195.137C27.7481,195.5444 27.4378,195.8607 27.0304,196.0861C26.6231,196.3114 26.1785,196.4241 25.6966,196.4241C24.9235,196.4241 24.2986,196.1762 23.8219,195.6805C23.3452,195.1847 23.1069,194.4705 23.1069,193.538zM24.0689,193.538C24.0689,194.2452 24.2232,194.7748 24.5317,195.1266C24.8403,195.4785 25.2286,195.6545 25.6966,195.6545C26.1611,195.6545 26.5477,195.4777 26.8562,195.124C27.1648,194.7704 27.319,194.2313 27.319,193.5068C27.319,192.8238 27.1639,192.3064 26.8536,191.9545C26.5433,191.6026 26.1577,191.4267 25.6966,191.4267C25.2286,191.4267 24.8403,191.6018 24.5317,191.9519C24.2232,192.3021 24.0689,192.8308 24.0689,193.538zM29.6019,196.2993L29.6019,191.5047L28.7751,191.5047L28.7751,190.7767L29.6019,190.7767L29.6019,190.1891C29.6019,189.8181 29.6349,189.5425 29.7007,189.3622C29.7909,189.1195 29.9495,188.9228 30.1765,188.772C30.4036,188.6212 30.7217,188.5458 31.1308,188.5458C31.3943,188.5458 31.6855,188.577 32.0044,188.6394L31.864,189.4558C31.6699,189.4212 31.4861,189.4038 31.3128,189.4038C31.0285,189.4038 30.8274,189.4645 30.7096,189.5858C30.5917,189.7072 30.5328,189.9342 30.5328,190.2671L30.5328,190.7767L31.6092,190.7767L31.6092,191.5047L30.5328,191.5047L30.5328,196.2993zM0.6628,210.6622L0.6628,203.0231L1.5157,203.0231L1.5157,203.7408C1.7167,203.46 1.9438,203.2493 2.1969,203.1089C2.45,202.9685 2.7568,202.8983 3.1173,202.8983C3.5888,202.8983 4.0048,203.0197 4.3654,203.2623C4.7259,203.505 4.9981,203.8474 5.1818,204.2894C5.3655,204.7314 5.4574,205.2159 5.4574,205.7428C5.4574,206.3079 5.356,206.8167 5.1532,207.2691C4.9504,207.7215 4.6557,208.0682 4.2692,208.3091C3.8826,208.5501 3.4761,208.6705 3.0497,208.6705C2.7377,208.6705 2.4578,208.6047 2.2099,208.4729C1.962,208.3412 1.7583,208.1748 1.5989,207.9737L1.5989,210.6622zM1.5105,205.8156C1.5105,206.5263 1.6543,207.0516 1.9421,207.3913C2.2298,207.731 2.5782,207.9009 2.9873,207.9009C3.4033,207.9009 3.7596,207.725 4.056,207.3731C4.3524,207.0212 4.5006,206.4761 4.5006,205.7376C4.5006,205.0339 4.3558,204.5069 4.0664,204.1568C3.7769,203.8066 3.4311,203.6316 3.0289,203.6316C2.6302,203.6316 2.2775,203.8179 1.9707,204.1906C1.6639,204.5633 1.5105,205.1049 1.5105,205.8156zM6.2374,205.7844C6.2374,204.7617 6.5217,204.0042 7.0903,203.512C7.5652,203.1029 8.1442,202.8983 8.8271,202.8983C9.5864,202.8983 10.2069,203.1471 10.6888,203.6446C11.1707,204.142 11.4116,204.8293 11.4116,205.7064C11.4116,206.4171 11.305,206.9761 11.0918,207.3835C10.8786,207.7908 10.5683,208.1072 10.161,208.3325C9.7536,208.5579 9.309,208.6705 8.8271,208.6705C8.054,208.6705 7.4292,208.4227 6.9525,207.9269C6.4758,207.4312 6.2374,206.717 6.2374,205.7844zM7.1995,205.7844C7.1995,206.4917 7.3538,207.0212 7.6623,207.3731C7.9708,207.725 8.3591,207.9009 8.8271,207.9009C9.2917,207.9009 9.6782,207.7241 9.9868,207.3705C10.2953,207.0169 10.4496,206.4778 10.4496,205.7532C10.4496,205.0703 10.2945,204.5529 9.9842,204.201C9.6739,203.8491 9.2882,203.6732 8.8271,203.6732C8.3591,203.6732 7.9708,203.8482 7.6623,204.1984C7.3538,204.5485 7.1995,205.0772 7.1995,205.7844zM12.4881,208.5457L12.4881,200.9223L13.4241,200.9223L13.4241,208.5457zM18.4787,207.8645C18.132,208.1592 17.7983,208.3672 17.4777,208.4885C17.157,208.6099 16.8129,208.6705 16.4454,208.6705C15.8387,208.6705 15.3725,208.5223 15.0466,208.2259C14.7207,207.9295 14.5578,207.5508 14.5578,207.0897C14.5578,206.8193 14.6193,206.5723 14.7424,206.3487C14.8654,206.125 15.0266,205.9456 15.226,205.8104C15.4253,205.6752 15.6498,205.573 15.8994,205.5036C16.0832,205.4551 16.3605,205.4083 16.7314,205.3632C17.4872,205.2731 18.0436,205.1656 18.4007,205.0408C18.4042,204.9125 18.4059,204.8311 18.4059,204.7964C18.4059,204.4151 18.3175,204.1464 18.1407,203.9904C17.9015,203.7789 17.5461,203.6732 17.0747,203.6732C16.6344,203.6732 16.3094,203.7503 16.0996,203.9046C15.8899,204.0588 15.7347,204.3318 15.6342,204.7236L14.719,204.5988C14.8022,204.207 14.9391,203.8907 15.1298,203.6498C15.3205,203.4088 15.5961,203.2233 15.9566,203.0933C16.3172,202.9633 16.7349,202.8983 17.2099,202.8983C17.6813,202.8983 18.0644,202.9538 18.3591,203.0647C18.6538,203.1757 18.8705,203.3152 19.0091,203.4834C19.1478,203.6515 19.2449,203.8638 19.3003,204.1204C19.3315,204.2798 19.3471,204.5676 19.3471,204.9836L19.3471,206.2317C19.3471,207.1018 19.3671,207.6522 19.4069,207.8827C19.4468,208.1133 19.5257,208.3343 19.6436,208.5457L18.6659,208.5457C18.5688,208.3516 18.5064,208.1245 18.4787,207.8645zM18.4007,205.774C18.061,205.9127 17.5513,206.0306 16.8718,206.1277C16.487,206.1831 16.2149,206.2455 16.0554,206.3149C15.8959,206.3842 15.7729,206.4856 15.6862,206.6191C15.5995,206.7525 15.5562,206.9007 15.5562,207.0637C15.5562,207.3133 15.6507,207.5213 15.8396,207.6877C16.0286,207.8541 16.305,207.9373 16.669,207.9373C17.0296,207.9373 17.3503,207.8584 17.6311,207.7007C17.9119,207.543 18.1182,207.3272 18.2499,207.0533C18.3504,206.8418 18.4007,206.5298 18.4007,206.1173zM20.7876,208.5457L20.7876,203.0231L21.63,203.0231L21.63,203.8604C21.845,203.4686 22.0434,203.2103 22.2254,203.0855C22.4075,202.9607 22.6077,202.8983 22.8261,202.8983C23.1416,202.8983 23.4622,202.9989 23.7881,203.1999L23.4657,204.0684C23.2369,203.9332 23.0081,203.8656 22.7793,203.8656C22.5747,203.8656 22.391,203.9271 22.228,204.0502C22.0651,204.1732 21.949,204.344 21.8796,204.5624C21.7756,204.8952 21.7236,205.2592 21.7236,205.6544L21.7236,208.5457zM24.3497,201.9987L24.3497,200.9223L25.2858,200.9223L25.2858,201.9987zM24.3497,208.5457L24.3497,203.0231L25.2858,203.0231L25.2858,208.5457zM26.2166,208.5457L26.2166,207.7865L29.7319,203.7512C29.3332,203.772 28.9814,203.7824 28.6763,203.7824L26.4246,203.7824L26.4246,203.0231L30.9384,203.0231L30.9384,203.642L27.9483,207.1469L27.371,207.7865C27.7905,207.7553 28.184,207.7397 28.5515,207.7397L31.1048,207.7397L31.1048,208.5457zM35.6394,207.8645C35.2927,208.1592 34.959,208.3672 34.6383,208.4885C34.3176,208.6099 33.9736,208.6705 33.6061,208.6705C32.9994,208.6705 32.5331,208.5223 32.2072,208.2259C31.8813,207.9295 31.7184,207.5508 31.7184,207.0897C31.7184,206.8193 31.7799,206.5723 31.903,206.3487C32.0261,206.125 32.1873,205.9456 32.3866,205.8104C32.586,205.6752 32.8104,205.573 33.0601,205.5036C33.2438,205.4551 33.5211,205.4083 33.8921,205.3632C34.6478,205.2731 35.2043,205.1656 35.5614,205.0408C35.5648,204.9125 35.5665,204.8311 35.5666,204.7964C35.5665,204.4151 35.4781,204.1464 35.3013,203.9904C35.0621,203.7789 34.7068,203.6732 34.2353,203.6732C33.795,203.6732 33.47,203.7503 33.2603,203.9046C33.0505,204.0588 32.8954,204.3318 32.7948,204.7236L31.8796,204.5988C31.9628,204.207 32.0998,203.8907 32.2904,203.6498C32.4811,203.4088 32.7567,203.2233 33.1173,203.0933C33.4778,202.9633 33.8956,202.8983 34.3705,202.8983C34.842,202.8983 35.2251,202.9538 35.5197,203.0647C35.8144,203.1757 36.0311,203.3152 36.1698,203.4834C36.3084,203.6515 36.4055,203.8638 36.461,204.1204C36.4922,204.2798 36.5078,204.5676 36.5078,204.9836L36.5078,206.2317C36.5078,207.1018 36.5277,207.6522 36.5676,207.8827C36.6075,208.1133 36.6863,208.3343 36.8042,208.5457L35.8266,208.5457C35.7295,208.3516 35.6671,208.1245 35.6394,207.8645zM35.5614,205.774C35.2216,205.9127 34.712,206.0306 34.0325,206.1277C33.6477,206.1831 33.3755,206.2455 33.2161,206.3149C33.0566,206.3842 32.9335,206.4856 32.8468,206.6191C32.7602,206.7525 32.7168,206.9007 32.7168,207.0637C32.7168,207.3133 32.8113,207.5213 33.0003,207.6877C33.1892,207.8541 33.4657,207.9373 33.8297,207.9373C34.1902,207.9373 34.5109,207.8584 34.7917,207.7007C35.0725,207.543 35.2788,207.3272 35.4105,207.0533C35.5111,206.8418 35.5614,206.5298 35.5614,206.1173zM40.0023,207.7085L40.1375,208.5353C39.874,208.5908 39.6383,208.6185 39.4303,208.6185C39.0906,208.6185 38.8271,208.5648 38.6399,208.4573C38.4527,208.3499 38.3209,208.2086 38.2447,208.0335C38.1684,207.8584 38.1303,207.4901 38.1303,206.9285L38.1303,203.7512L37.4438,203.7512L37.4438,203.0231L38.1303,203.0231L38.1303,201.6555L39.0611,201.0939L39.0611,203.0231L40.0023,203.0231L40.0023,203.7512L39.0611,203.7512L39.0611,206.9805C39.0611,207.2474 39.0776,207.419 39.1105,207.4953C39.1434,207.5716 39.1972,207.6322 39.2717,207.6773C39.3462,207.7224 39.4528,207.7449 39.5915,207.7449C39.6955,207.7449 39.8324,207.7328 40.0023,207.7085zM40.9228,201.9987L40.9228,200.9223L41.8588,200.9223L41.8588,201.9987zM40.9228,208.5457L40.9228,203.0231L41.8588,203.0231L41.8588,208.5457zM42.9352,205.7844C42.9352,204.7617 43.2195,204.0042 43.7881,203.512C44.263,203.1029 44.842,202.8983 45.5249,202.8983C46.2842,202.8983 46.9047,203.1471 47.3866,203.6446C47.8685,204.142 48.1094,204.8293 48.1094,205.7064C48.1094,206.4171 48.0028,206.9761 47.7896,207.3835C47.5764,207.7908 47.2661,208.1072 46.8588,208.3325C46.4514,208.5579 46.0068,208.6705 45.5249,208.6705C44.7518,208.6705 44.1269,208.4227 43.6503,207.9269C43.1736,207.4312 42.9352,206.717 42.9352,205.7844zM43.8973,205.7844C43.8973,206.4917 44.0515,207.0212 44.3601,207.3731C44.6686,207.725 45.0569,207.9009 45.5249,207.9009C45.9895,207.9009 46.376,207.7241 46.6846,207.3705C46.9931,207.0169 47.1474,206.4778 47.1474,205.7532C47.1474,205.0703 46.9922,204.5529 46.682,204.201C46.3717,203.8491 45.986,203.6732 45.5249,203.6732C45.0569,203.6732 44.6686,203.8482 44.3601,204.1984C44.0515,204.5485 43.8973,205.0772 43.8973,205.7844zM49.2067,208.5457L49.2067,203.0231L50.0491,203.0231L50.0491,203.8084C50.4547,203.2017 51.0406,202.8983 51.8068,202.8983C52.1396,202.8983 52.4455,202.9581 52.7246,203.0777C53.0037,203.1973 53.2126,203.3542 53.3512,203.5484C53.4899,203.7425 53.587,203.973 53.6424,204.24C53.6771,204.4133 53.6944,204.7167 53.6944,205.15L53.6944,208.5457L52.7584,208.5457L52.7584,205.1864C52.7584,204.8051 52.722,204.5199 52.6492,204.331C52.5764,204.142 52.4473,203.9912 52.2618,203.8786C52.0763,203.7659 51.8588,203.7096 51.6092,203.7096C51.2105,203.7096 50.8664,203.8361 50.5769,204.0892C50.2874,204.3422 50.1427,204.8224 50.1427,205.5296L50.1427,208.5457z" style="fill:#0080FF;" />
</svg>