<?xml version="1.0" encoding="utf-8"?>
<svg version="1.1" viewBox="0 0 240 240" width="240" height="240" style="stroke:none;stroke-linecap:butt;stroke-linejoin:miter;stroke-width:1;stroke-dasharray:none;fill:#000000;fill-opacity:1;fill-rule:evenodd" font-family="Arial" font-size="15px" xmlns:xlink="http://www.w3.org/1999/xlink" xmlns="http://www.w3.org/2000/svg">
  <line id="Line" x1="20" y1="120" x2="220" y2="120" style="stroke:#000000;" />
  <line id="Line1" x1="120" y1="20" x2="120" y2="220" style="stroke:#000000;" />
  <path id="x" d="M215.351,123.7586L219.2759,123.7586L219.2759,124.0955C219.0269,124.0955 218.8524,124.138 218.7522,124.223C218.6521,124.308 218.602,124.4203 218.602,124.56C218.602,124.7057 218.7082,124.9303 218.9207,125.2338C218.9875,125.331 219.0877,125.4827 219.2212,125.6892L219.8131,126.6362L220.4961,125.6892C220.9332,125.0881 221.1518,124.7087 221.1518,124.5508C221.1518,124.4234 221.1002,124.3156 220.997,124.2276C220.8938,124.1395 220.7268,124.0955 220.4961,124.0955L220.4961,123.7586L223.3191,123.7586L223.3191,124.0955C223.0216,124.1137 222.7636,124.1957 222.5451,124.3414C222.2476,124.5478 221.8408,124.9971 221.3248,125.6892L220.1865,127.2099L222.2628,130.1968C222.7727,130.9314 223.137,131.3731 223.3555,131.5218C223.5741,131.6706 223.8564,131.754 224.2024,131.7723L224.2024,132.1001L220.2685,132.1001L220.2685,131.7723C220.5417,131.7723 220.7541,131.7115 220.9059,131.5901C221.0213,131.5051 221.0789,131.3928 221.0789,131.2532C221.0789,131.1136 220.8847,130.7614 220.4961,130.1968L219.2759,128.412L217.9372,130.1968C217.5244,130.7493 217.318,131.0771 217.318,131.1803C217.318,131.326 217.3863,131.4581 217.5229,131.5765C217.6595,131.6949 217.8644,131.7601 218.1376,131.7723L218.1376,132.1001L215.4147,132.1001L215.4147,131.7723C215.6333,131.7419 215.8245,131.666 215.9884,131.5446C216.2191,131.3685 216.6077,130.9193 217.1541,130.1968L218.9025,127.8747L217.318,125.5799C216.8687,124.9242 216.5212,124.5129 216.2753,124.346C216.0294,124.179 215.7213,124.0955 215.351,124.0955z" />
  <path id="y" d="M122.7544,16.583L126.6429,16.583L126.6429,16.9199L126.4516,16.9199C126.1784,16.9199 125.9735,16.9791 125.8369,17.0975C125.7003,17.2159 125.632,17.3631 125.632,17.5392C125.632,17.7759 125.7322,18.1038 125.9326,18.5227L127.9633,22.7298L129.8301,18.122C129.9333,17.8731 129.9849,17.6272 129.9849,17.3843C129.9849,17.2751 129.9637,17.1931 129.9212,17.1385C129.8726,17.0717 129.7967,17.0186 129.6935,16.9791C129.5903,16.9396 129.4082,16.9199 129.1471,16.9199L129.1471,16.583L131.8608,16.583L131.8608,16.9199C131.6362,16.9442 131.4632,16.9928 131.3418,17.0656C131.2204,17.1385 131.0868,17.2751 130.9411,17.4754C130.8865,17.5604 130.7833,17.7941 130.6315,18.1766L127.2348,26.4999C126.9069,27.3073 126.4774,27.9175 125.9462,28.3303C125.415,28.7431 124.9035,28.9495 124.4118,28.9495C124.0536,28.9495 123.7591,28.8463 123.5285,28.6399C123.2978,28.4335 123.1824,28.1967 123.1824,27.9296C123.1824,27.6746 123.2659,27.4697 123.4328,27.3149C123.5998,27.1601 123.829,27.0827 124.1204,27.0827C124.3207,27.0827 124.5939,27.1495 124.9399,27.2831C125.1828,27.3741 125.3346,27.4196 125.3953,27.4196C125.5774,27.4196 125.7762,27.3255 125.9917,27.1373C126.2073,26.9491 126.4243,26.5849 126.6429,26.0446L127.2348,24.5967L124.2388,18.3041C124.1477,18.1159 124.002,17.8822 123.8016,17.6029C123.6499,17.3904 123.5254,17.2477 123.4283,17.1749C123.2886,17.0778 123.064,16.9928 122.7544,16.9199z" />
  <line id="Line2" x1="120.2414" y1="120.1074" x2="172.363" y2="46.4933" style="stroke:#0080FF;stroke-width:3;" />
  <path id="Shape" d="M162.5842,52.1975L173.533,44.3506L170.113,56.6437" style="stroke:#0080FF;stroke-linecap:round;stroke-width:3;fill:none;" />
  <line id="Line3" x1="16.4036" y1="221.9633" x2="220.5248" y2="21.4647" style="stroke:#000000;" />
  <path id="Arc" d="M119.454,92.5349C125.1616,92.4709 130.7472,94.204 135.4162,97.4875" style="stroke:#000000;stroke-width:2;fill:none;" />
  <path id="x1" d="M130.3231,82.4171L131.8712,82.4171L130.9333,86.6334C130.7511,87.4347 130.6267,87.9265 130.5599,88.1086C130.8028,89.2257 131.1549,89.7842 131.6163,89.7842C132.1626,89.7842 132.4449,89.4078 132.4632,88.655L132.791,88.655C132.7728,89.3592 132.6438,89.9284 132.404,90.3624C132.1642,90.7965 131.85,91.0136 131.4615,91.0136C131.1397,91.0136 130.8999,90.883 130.742,90.622C130.5842,90.3609 130.4142,89.8267 130.2321,89.0192C129.6007,90.3488 128.5686,91.0136 127.1359,91.0136C126.1585,91.0136 125.3814,90.6326 124.8046,89.8707C124.2279,89.1088 123.9395,88.0175 123.9395,86.5969C123.9395,85.2006 124.2552,84.1139 124.8866,83.3368C125.518,82.5597 126.2768,82.1712 127.1632,82.1712C127.7885,82.1712 128.3015,82.3928 128.7022,82.836C129.1029,83.2791 129.458,84.0016 129.7677,85.0033zM129.5218,85.9868C129.2364,85.0094 128.9177,84.2459 128.5656,83.6965C128.2135,83.1471 127.7916,82.8724 127.2998,82.8724C126.1888,82.8724 125.6333,84.1716 125.6333,86.7699C125.6333,89.2348 126.1645,90.4672 127.227,90.4672C128.1497,90.4672 128.8327,89.3805 129.2759,87.2071z" />
  <path id="Arc1" d="M134.2742,96.6794C138.096,98.8297 141.3354,101.8812 143.7101,105.5677" style="stroke:#000000;stroke-width:2;fill:none;" />
  <path id="x2" d="M158.8693,108.0031L158.8693,109.3326L156.7566,109.3326L156.5744,112.101C156.538,112.5806 156.5198,112.9964 156.5198,113.3486C156.5198,114.1924 156.6185,114.7069 156.8158,114.8921C157.0131,115.0773 157.2514,115.1698 157.5306,115.1698C158.1134,115.1698 158.4595,114.8026 158.5688,114.068L158.8966,114.068C158.6962,115.7557 158.0224,116.5996 156.875,116.5996C156.3407,116.5996 155.9112,116.4356 155.5864,116.1078C155.2616,115.78 155.0992,115.2943 155.0992,114.6508C155.0992,114.2258 155.1629,113.3273 155.2904,111.9553L155.5363,109.3326L153.6057,109.3326C153.4783,111.5424 153.325,113.1573 153.1459,114.1772C152.9668,115.1972 152.7695,115.8559 152.5539,116.1533C152.3384,116.4508 152.0455,116.5996 151.6752,116.5996C151.3959,116.5996 151.1607,116.5176 150.9694,116.3537C150.7782,116.1898 150.6826,115.9742 150.6826,115.7071C150.6826,115.4521 150.8465,115.1031 151.1743,114.6599C151.6539,114.0164 152.0121,113.347 152.2489,112.6519C152.4857,111.9568 152.6647,110.8504 152.7862,109.3326L152.1669,109.3326C151.6691,109.3326 151.2882,109.4434 151.0241,109.665C150.76,109.8866 150.5096,110.2038 150.2728,110.6166L149.945,110.6166C150.121,109.967 150.3487,109.4328 150.6279,109.0139C150.9072,108.595 151.1941,108.3218 151.4885,108.1943C151.7829,108.0668 152.3066,108.0031 153.0594,108.0031zM164.4697,103.3952L159.9985,116.5996L159.27,116.5996L163.7412,103.3952zM172.9752,113.9678L172.11,116.3446L164.8249,116.3446L164.8249,116.0076C166.9679,114.0528 168.4766,112.4561 169.3508,111.2177C170.225,109.9792 170.6621,108.8469 170.6621,107.8209C170.6621,107.0378 170.4223,106.3943 169.9427,105.8904C169.4631,105.3865 168.8894,105.1345 168.2216,105.1345C167.6145,105.1345 167.0696,105.3121 166.587,105.6673C166.1043,106.0224 165.7477,106.543 165.517,107.229L165.18,107.229C165.3318,106.1059 165.7219,105.2438 166.3502,104.6428C166.9786,104.0418 167.7632,103.7413 168.7042,103.7413C169.7059,103.7413 170.5422,104.063 171.2131,104.7065C171.8839,105.3501 172.2193,106.1089 172.2193,106.9832C172.2193,107.6085 172.0736,108.2338 171.7822,108.8591C171.333,109.8426 170.6044,110.8837 169.5967,111.9826C168.085,113.6339 167.141,114.6295 166.7646,114.9695L169.9882,114.9695C170.6439,114.9695 171.1038,114.9452 171.3679,114.8967C171.632,114.8481 171.8702,114.7494 172.0827,114.6007C172.2952,114.452 172.4804,114.241 172.6382,113.9678zM174.505,111.4726L179.2131,111.4726L179.2131,112.8477L174.505,112.8477zM187.1357,108.0031L188.6838,108.0031L187.7458,112.2194C187.5637,113.0207 187.4392,113.5125 187.3724,113.6946C187.6153,114.8117 187.9674,115.3702 188.4288,115.3702C188.9752,115.3702 189.2575,114.9938 189.2757,114.241L189.6035,114.241C189.5853,114.9452 189.4563,115.5144 189.2165,115.9484C188.9767,116.3825 188.6625,116.5996 188.274,116.5996C187.9522,116.5996 187.7124,116.469 187.5546,116.208C187.3967,115.9469 187.2267,115.4127 187.0446,114.6052C186.4132,115.9348 185.3812,116.5996 183.9484,116.5996C182.971,116.5996 182.1939,116.2186 181.6172,115.4567C181.0404,114.6948 180.7521,113.6035 180.7521,112.1829C180.7521,110.7866 181.0677,109.6999 181.6991,108.9228C182.3305,108.1457 183.0894,107.7572 183.9757,107.7572C184.601,107.7572 185.114,107.9788 185.5147,108.422C185.9154,108.8652 186.2706,109.5876 186.5802,110.5893zM186.3343,111.5728C186.049,110.5954 185.7302,109.832 185.3781,109.2825C185.026,108.7331 184.6041,108.4584 184.1123,108.4584C183.0013,108.4584 182.4459,109.7576 182.4459,112.356C182.4459,114.8208 182.9771,116.0532 184.0395,116.0532C184.9623,116.0532 185.6452,114.9665 186.0884,112.7931z" />
  <line id="Line4" x1="201.5288" y1="69.3814" x2="175.9525" y2="40.4691" style="stroke:#000000;stroke-dasharray:2 5;" />
  <line id="Line5" x1="119.4475" y1="120.5668" x2="195.8593" y2="72.6403" style="stroke:#33FF33;stroke-width:3;" />
  <path id="Shape1" d="M189.6175,82.085L198.064,71.5918L185.599,74.3195" style="stroke:#33FF33;stroke-linecap:round;stroke-width:3;fill:none;" />
</svg>