<?xml version="1.0" encoding="utf-8"?>
<svg version="1.1" viewBox="0 0 240 240" width="240" height="240" style="stroke:none;stroke-linecap:butt;stroke-linejoin:miter;stroke-width:1;stroke-dasharray:none;fill:#000000;fill-opacity:1;fill-rule:evenodd" font-family="Arial" font-size="15px" xmlns:xlink="http://www.w3.org/1999/xlink" xmlns="http://www.w3.org/2000/svg">
  <line id="Line" x1="20" y1="120" x2="220" y2="120" style="stroke:#000000;" />
  <line id="Line1" x1="120" y1="20" x2="120" y2="220" style="stroke:#000000;" />
  <path id="x" d="M215.351,123.7586L219.2759,123.7586L219.2759,124.0955C219.0269,124.0955 218.8524,124.138 218.7522,124.223C218.6521,124.308 218.602,124.4203 218.602,124.56C218.602,124.7057 218.7082,124.9303 218.9207,125.2338C218.9875,125.331 219.0877,125.4827 219.2212,125.6892L219.8131,126.6362L220.4961,125.6892C220.9332,125.0881 221.1518,124.7087 221.1518,124.5508C221.1518,124.4234 221.1002,124.3156 220.997,124.2276C220.8938,124.1395 220.7268,124.0955 220.4961,124.0955L220.4961,123.7586L223.3191,123.7586L223.3191,124.0955C223.0216,124.1137 222.7636,124.1957 222.5451,124.3414C222.2476,124.5478 221.8408,124.9971 221.3248,125.6892L220.1865,127.2099L222.2628,130.1968C222.7727,130.9314 223.137,131.3731 223.3555,131.5218C223.5741,131.6706 223.8564,131.754 224.2024,131.7723L224.2024,132.1001L220.2685,132.1001L220.2685,131.7723C220.5417,131.7723 220.7541,131.7115 220.9059,131.5901C221.0213,131.5051 221.0789,131.3928 221.0789,131.2532C221.0789,131.1136 220.8847,130.7614 220.4961,130.1968L219.2759,128.412L217.9372,130.1968C217.5244,130.7493 217.318,131.0771 217.318,131.1803C217.318,131.326 217.3863,131.4581 217.5229,131.5765C217.6595,131.6949 217.8644,131.7601 218.1376,131.7723L218.1376,132.1001L215.4147,132.1001L215.4147,131.7723C215.6333,131.7419 215.8245,131.666 215.9884,131.5446C216.2191,131.3685 216.6077,130.9193 217.1541,130.1968L218.9025,127.8747L217.318,125.5799C216.8687,124.9242 216.5212,124.5129 216.2753,124.346C216.0294,124.179 215.7213,124.0955 215.351,124.0955z" />
  <path id="y" d="M122.7544,16.583L126.6429,16.583L126.6429,16.9199L126.4516,16.9199C126.1784,16.9199 125.9735,16.9791 125.8369,17.0975C125.7003,17.2159 125.632,17.3631 125.632,17.5392C125.632,17.7759 125.7322,18.1038 125.9326,18.5227L127.9633,22.7298L129.8301,18.122C129.9333,17.8731 129.9849,17.6272 129.9849,17.3843C129.9849,17.2751 129.9637,17.1931 129.9212,17.1385C129.8726,17.0717 129.7967,17.0186 129.6935,16.9791C129.5903,16.9396 129.4082,16.9199 129.1471,16.9199L129.1471,16.583L131.8608,16.583L131.8608,16.9199C131.6362,16.9442 131.4632,16.9928 131.3418,17.0656C131.2204,17.1385 131.0868,17.2751 130.9411,17.4754C130.8865,17.5604 130.7833,17.7941 130.6315,18.1766L127.2348,26.4999C126.9069,27.3073 126.4774,27.9175 125.9462,28.3303C125.415,28.7431 124.9035,28.9495 124.4118,28.9495C124.0536,28.9495 123.7591,28.8463 123.5285,28.6399C123.2978,28.4335 123.1824,28.1967 123.1824,27.9296C123.1824,27.6746 123.2659,27.4697 123.4328,27.3149C123.5998,27.1601 123.829,27.0827 124.1204,27.0827C124.3207,27.0827 124.5939,27.1495 124.9399,27.2831C125.1828,27.3741 125.3346,27.4196 125.3953,27.4196C125.5774,27.4196 125.7762,27.3255 125.9917,27.1373C126.2073,26.9491 126.4243,26.5849 126.6429,26.0446L127.2348,24.5967L124.2388,18.3041C124.1477,18.1159 124.002,17.8822 123.8016,17.6029C123.6499,17.3904 123.5254,17.2477 123.4283,17.1749C123.2886,17.0778 123.064,16.9928 122.7544,16.9199z" />
  <line id="Line2" x1="120.2414" y1="120.1074" x2="172.363" y2="46.4933" style="stroke:#0080FF;stroke-width:3;" />
  <path id="Shape" d="M162.5842,52.1975L173.533,44.3506L170.113,56.6437" style="stroke:#0080FF;stroke-linecap:round;stroke-width:3;fill:none;" />
  <path id="Arc" d="M119.454,92.5349C125.1616,92.4709 130.7472,94.204 135.4162,97.4875" style="stroke:#000000;stroke-width:2;fill:none;" />
  <path id="x1" d="M130.3231,82.4171L131.8712,82.4171L130.9333,86.6334C130.7511,87.4347 130.6267,87.9265 130.5599,88.1086C130.8028,89.2257 131.1549,89.7842 131.6163,89.7842C132.1626,89.7842 132.4449,89.4078 132.4632,88.655L132.791,88.655C132.7728,89.3592 132.6438,89.9284 132.404,90.3624C132.1642,90.7965 131.85,91.0136 131.4615,91.0136C131.1397,91.0136 130.8999,90.883 130.742,90.622C130.5842,90.3609 130.4142,89.8267 130.2321,89.0192C129.6007,90.3488 128.5686,91.0136 127.1359,91.0136C126.1585,91.0136 125.3814,90.6326 124.8046,89.8707C124.2279,89.1088 123.9395,88.0175 123.9395,86.5969C123.9395,85.2006 124.2552,84.1139 124.8866,83.3368C125.518,82.5597 126.2768,82.1712 127.1632,82.1712C127.7885,82.1712 128.3015,82.3928 128.7022,82.836C129.1029,83.2791 129.458,84.0016 129.7677,85.0033zM129.5218,85.9868C129.2364,85.0094 128.9177,84.2459 128.5656,83.6965C128.2135,83.1471 127.7916,82.8724 127.2998,82.8724C126.1888,82.8724 125.6333,84.1716 125.6333,86.7699C125.6333,89.2348 126.1645,90.4672 127.227,90.4672C128.1497,90.4672 128.8327,89.3805 129.2759,87.2071z" />
  <path id="Arc1" d="M134.2742,96.6794C151.3631,106.2943 152.4085,131.4509 136.1762,142.4505" style="stroke:#000000;stroke-width:2;fill:none;" />
  <path id="x2" d="M160.1334,127.5285L160.1334,128.858L158.0207,128.858L157.8386,131.6264C157.8021,132.106 157.7839,132.5219 157.7839,132.874C157.7839,133.7178 157.8826,134.2324 158.0799,134.4175C158.2772,134.6027 158.5155,134.6953 158.7947,134.6953C159.3776,134.6953 159.7236,134.328 159.8329,133.5934L160.1607,133.5934C159.9604,135.2811 159.2865,136.125 158.1391,136.125C157.6048,136.125 157.1753,135.9611 156.8505,135.6332C156.5257,135.3054 156.3633,134.8197 156.3633,134.1762C156.3633,133.7512 156.4271,132.8527 156.5546,131.4807L156.8004,128.858L154.8699,128.858C154.7424,131.0679 154.5891,132.6827 154.41,133.7027C154.2309,134.7226 154.0336,135.3813 153.8181,135.6788C153.6026,135.9762 153.3096,136.125 152.9393,136.125C152.66,136.125 152.4248,136.043 152.2336,135.8791C152.0423,135.7152 151.9467,135.4997 151.9467,135.2325C151.9467,134.9776 152.1106,134.6285 152.4384,134.1853C152.9181,133.5418 153.2762,132.8725 153.513,132.1773C153.7498,131.4822 153.9289,130.3758 154.0503,128.858L153.431,128.858C152.9332,128.858 152.5523,128.9688 152.2882,129.1904C152.0241,129.412 151.7737,129.7292 151.5369,130.142L151.2091,130.142C151.3851,129.4925 151.6128,128.9582 151.8921,128.5393C152.1713,128.1204 152.4582,127.8472 152.7526,127.7197C153.0471,127.5922 153.5707,127.5285 154.3235,127.5285zM161.2626,130.9981L165.9706,130.9981L165.9706,132.3731L161.2626,132.3731zM173.8932,127.5285L175.4413,127.5285L174.5034,131.7448C174.3212,132.5461 174.1968,133.0379 174.13,133.22C174.3728,134.3371 174.725,134.8956 175.1863,134.8956C175.7327,134.8956 176.015,134.5192 176.0332,133.7664L176.3611,133.7664C176.3429,134.4706 176.2139,135.0398 175.9741,135.4739C175.7342,135.9079 175.4201,136.125 175.0315,136.125C174.7098,136.125 174.47,135.9945 174.3121,135.7334C174.1543,135.4724 173.9843,134.9381 173.8022,134.1307C173.1708,135.4602 172.1387,136.125 170.706,136.125C169.7285,136.125 168.9515,135.744 168.3747,134.9821C167.798,134.2202 167.5096,133.129 167.5096,131.7084C167.5096,130.312 167.8253,129.2253 168.4567,128.4482C169.0881,127.6712 169.8469,127.2826 170.7333,127.2826C171.3586,127.2826 171.8716,127.5042 172.2723,127.9474C172.673,128.3906 173.0281,129.113 173.3377,130.1147zM173.0919,131.0982C172.8065,130.1208 172.4878,129.3574 172.1357,128.808C171.7836,128.2585 171.3616,127.9838 170.8699,127.9838C169.7589,127.9838 169.2034,129.283 169.2034,131.8814C169.2034,134.3462 169.7346,135.5786 170.797,135.5786C171.7198,135.5786 172.4028,134.4919 172.846,132.3185z" />
  <line id="Line3" x1="175.9525" y1="199.0042" x2="175.9525" y2="40.4691" style="stroke:#000000;stroke-dasharray:2 5;" />
  <line id="Line4" x1="119.8104" y1="119.6641" x2="171.932" y2="193.2782" style="stroke:#33FF33;stroke-width:3;" />
  <path id="Shape1" d="M162.1532,187.574L173.1021,195.4209L169.682,183.1278" style="stroke:#33FF33;stroke-linecap:round;stroke-width:3;fill:none;" />
</svg>