<?xml version="1.0" encoding="utf-8"?>
<svg version="1.1" viewBox="0 0 240 240" width="240" height="240" style="stroke:none;stroke-linecap:butt;stroke-linejoin:miter;stroke-width:1;stroke-dasharray:none;fill:#000000;fill-opacity:1;fill-rule:evenodd" font-family="Arial" font-size="15px" xmlns:xlink="http://www.w3.org/1999/xlink" xmlns="http://www.w3.org/2000/svg">
  <line id="Line" x1="20" y1="120" x2="220" y2="120" style="stroke:#000000;" />
  <line id="Line1" x1="120" y1="20" x2="120" y2="220" style="stroke:#000000;" />
  <path id="x" d="M215.351,123.7586L219.2759,123.7586L219.2759,124.0955C219.0269,124.0955 218.8524,124.138 218.7522,124.223C218.6521,124.308 218.602,124.4203 218.602,124.56C218.602,124.7057 218.7082,124.9303 218.9207,125.2338C218.9875,125.331 219.0877,125.4827 219.2212,125.6892L219.8131,126.6362L220.4961,125.6892C220.9332,125.0881 221.1518,124.7087 221.1518,124.5508C221.1518,124.4234 221.1002,124.3156 220.997,124.2276C220.8938,124.1395 220.7268,124.0955 220.4961,124.0955L220.4961,123.7586L223.3191,123.7586L223.3191,124.0955C223.0216,124.1137 222.7636,124.1957 222.5451,124.3414C222.2476,124.5478 221.8408,124.9971 221.3248,125.6892L220.1865,127.2099L222.2628,130.1968C222.7727,130.9314 223.137,131.3731 223.3555,131.5218C223.5741,131.6706 223.8564,131.754 224.2024,131.7723L224.2024,132.1001L220.2685,132.1001L220.2685,131.7723C220.5417,131.7723 220.7541,131.7115 220.9059,131.5901C221.0213,131.5051 221.0789,131.3928 221.0789,131.2532C221.0789,131.1136 220.8847,130.7614 220.4961,130.1968L219.2759,128.412L217.9372,130.1968C217.5244,130.7493 217.318,131.0771 217.318,131.1803C217.318,131.326 217.3863,131.4581 217.5229,131.5765C217.6595,131.6949 217.8644,131.7601 218.1376,131.7723L218.1376,132.1001L215.4147,132.1001L215.4147,131.7723C215.6333,131.7419 215.8245,131.666 215.9884,131.5446C216.2191,131.3685 216.6077,130.9193 217.1541,130.1968L218.9025,127.8747L217.318,125.5799C216.8687,124.9242 216.5212,124.5129 216.2753,124.346C216.0294,124.179 215.7213,124.0955 215.351,124.0955z" />
  <path id="y" d="M122.7544,16.583L126.6429,16.583L126.6429,16.9199L126.4516,16.9199C126.1784,16.9199 125.9735,16.9791 125.8369,17.0975C125.7003,17.2159 125.632,17.3631 125.632,17.5392C125.632,17.7759 125.7322,18.1038 125.9326,18.5227L127.9633,22.7298L129.8301,18.122C129.9333,17.8731 129.9849,17.6272 129.9849,17.3843C129.9849,17.2751 129.9637,17.1931 129.9212,17.1385C129.8726,17.0717 129.7967,17.0186 129.6935,16.9791C129.5903,16.9396 129.4082,16.9199 129.1471,16.9199L129.1471,16.583L131.8608,16.583L131.8608,16.9199C131.6362,16.9442 131.4632,16.9928 131.3418,17.0656C131.2204,17.1385 131.0868,17.2751 130.9411,17.4754C130.8865,17.5604 130.7833,17.7941 130.6315,18.1766L127.2348,26.4999C126.9069,27.3073 126.4774,27.9175 125.9462,28.3303C125.415,28.7431 124.9035,28.9495 124.4118,28.9495C124.0536,28.9495 123.7591,28.8463 123.5285,28.6399C123.2978,28.4335 123.1824,28.1967 123.1824,27.9296C123.1824,27.6746 123.2659,27.4697 123.4328,27.3149C123.5998,27.1601 123.829,27.0827 124.1204,27.0827C124.3207,27.0827 124.5939,27.1495 124.9399,27.2831C125.1828,27.3741 125.3346,27.4196 125.3953,27.4196C125.5774,27.4196 125.7762,27.3255 125.9917,27.1373C126.2073,26.9491 126.4243,26.5849 126.6429,26.0446L127.2348,24.5967L124.2388,18.3041C124.1477,18.1159 124.002,17.8822 123.8016,17.6029C123.6499,17.3904 123.5254,17.2477 123.4283,17.1749C123.2886,17.0778 123.064,16.9928 122.7544,16.9199z" />
  <line id="Line2" x1="120.2414" y1="120.1074" x2="172.363" y2="46.4933" style="stroke:#0080FF;stroke-width:3;" />
  <path id="Shape" d="M162.5842,52.1975L173.533,44.3506L170.113,56.6437" style="stroke:#0080FF;stroke-linecap:round;stroke-width:3;fill:none;" />
  <path id="Arc" d="M119.454,92.5349C125.1616,92.4709 130.7472,94.204 135.4162,97.4875" style="stroke:#000000;stroke-width:2;fill:none;" />
  <path id="x1" d="M130.3231,82.4171L131.8712,82.4171L130.9333,86.6334C130.7511,87.4347 130.6267,87.9265 130.5599,88.1086C130.8028,89.2257 131.1549,89.7842 131.6163,89.7842C132.1626,89.7842 132.4449,89.4078 132.4632,88.655L132.791,88.655C132.7728,89.3592 132.6438,89.9284 132.404,90.3624C132.1642,90.7965 131.85,91.0136 131.4615,91.0136C131.1397,91.0136 130.8999,90.883 130.742,90.622C130.5842,90.3609 130.4142,89.8267 130.2321,89.0192C129.6007,90.3488 128.5686,91.0136 127.1359,91.0136C126.1585,91.0136 125.3814,90.6326 124.8046,89.8707C124.2279,89.1088 123.9395,88.0175 123.9395,86.5969C123.9395,85.2006 124.2552,84.1139 124.8866,83.3368C125.518,82.5597 126.2768,82.1712 127.1632,82.1712C127.7885,82.1712 128.3015,82.3928 128.7022,82.836C129.1029,83.2791 129.458,84.0016 129.7677,85.0033zM129.5218,85.9868C129.2364,85.0094 128.9177,84.2459 128.5656,83.6965C128.2135,83.1471 127.7916,82.8724 127.2998,82.8724C126.1888,82.8724 125.6333,84.1716 125.6333,86.7699C125.6333,89.2348 126.1645,90.4672 127.227,90.4672C128.1497,90.4672 128.8327,89.3805 129.2759,87.2071z" />
  <line id="Line3" x1="120.0532" y1="119.6674" x2="208.7171" y2="103.102" style="stroke:#33FF33;stroke-width:3;" />
  <path id="Shape1" d="M197.7259,100.3899L211.0487,102.3783L200.0358,108.8229" style="stroke:#33FF33;stroke-linecap:round;stroke-width:3;fill:none;" />
  <path id="Arc1" d="M135.6541,97.6921C141.7177,101.6301 145.9355,107.8603 147.3394,114.9529" style="stroke:#000000;stroke-width:2;fill:none;" />
  <path id="x2" d="M151.3474,96.6261L153.2234,96.6261L149.5717,104.2846C149.6627,105.1042 149.7083,105.8205 149.7083,106.4337C149.7083,108.1396 149.3895,108.9926 148.7521,108.9926C148.2907,108.9926 148.06,108.6344 148.06,107.9181C148.06,106.9831 148.4,105.8114 149.0799,104.403C148.9464,103.5288 148.7597,102.4754 148.5199,101.243C148.2801,100.0106 148.0342,99.1273 147.7823,98.5931C147.5303,98.0588 147.1706,97.7917 146.7031,97.7917C145.9382,97.7917 145.5284,98.3624 145.4738,99.5037L145.1459,99.5037C145.1459,97.5003 145.7409,96.4986 146.9308,96.4986C147.6168,96.4986 148.1268,96.9038 148.4607,97.7143C148.7946,98.5248 149.1376,100.2869 149.4897,103.0006z" />
</svg>