<?xml version="1.0" encoding="utf-8"?>
<svg version="1.1" viewBox="0 0 800 400" width="800" height="400" style="stroke:none;stroke-linecap:butt;stroke-linejoin:miter;stroke-width:1;stroke-dasharray:none;fill:#000000;fill-opacity:1;fill-rule:evenodd" font-family="Arial" font-size="15px" xmlns:xlink="http://www.w3.org/1999/xlink" xmlns="http://www.w3.org/2000/svg">
  <path id="Rectangle" d="M50,50L750,50L750,150L50,150z" style="stroke:#000000;fill:#99CCFF;" />
  <path id="Text" d="M298.9614,97.6122C298.9614,94.4458 299.8115,91.9668 301.5119,90.1754C303.2122,88.384 305.407,87.4883 308.0963,87.4883C309.8573,87.4883 311.4449,87.909 312.8589,88.7505C314.273,89.592 315.3508,90.7653 316.0926,92.2705C316.8343,93.7756 317.2052,95.4824 317.2052,97.391C317.2052,99.3255 316.8148,101.0562 316.034,102.583C315.2533,104.1099 314.1472,105.2658 312.7158,106.0509C311.2844,106.836 309.7402,107.2286 308.0833,107.2286C306.2875,107.2286 304.6826,106.7948 303.2686,105.9273C301.8545,105.0598 300.7831,103.8756 300.0544,102.3748C299.3257,100.874 298.9614,99.2865 298.9614,97.6122zM301.5639,97.6512C301.5639,99.9501 302.182,101.7611 303.4182,103.084C304.6544,104.407 306.2051,105.0685 308.0702,105.0685C309.9701,105.0685 311.5338,104.4005 312.7613,103.0645C313.9889,101.7285 314.6026,99.833 314.6026,97.378C314.6026,95.8251 314.3402,94.4696 313.8153,93.3115C313.2905,92.1534 312.5228,91.2555 311.5121,90.6179C310.5015,89.9802 309.3672,89.6614 308.1093,89.6614C306.3222,89.6614 304.7845,90.2752 303.4963,91.5027C302.208,92.7302 301.5639,94.7797 301.5639,97.6512zM320.159,112.1994L320.159,93.0838L322.2931,93.0838L322.2931,94.8795C322.7963,94.1768 323.3645,93.6498 323.9978,93.2985C324.6311,92.9471 325.3988,92.7715 326.301,92.7715C327.4808,92.7715 328.5219,93.0751 329.4241,93.6823C330.3263,94.2896 331.0073,95.1463 331.4671,96.2524C331.9268,97.3584 332.1567,98.5708 332.1567,99.8894C332.1567,101.3034 331.903,102.5765 331.3955,103.7086C330.888,104.8407 330.1506,105.7082 329.1833,106.3112C328.2161,106.9141 327.1989,107.2155 326.1319,107.2155C325.3511,107.2155 324.6506,107.0507 324.0303,106.7211C323.41,106.3914 322.9004,105.975 322.5013,105.4718L322.5013,112.1994zM322.2801,100.0716C322.2801,101.85 322.6401,103.1643 323.3602,104.0144C324.0802,104.8646 324.952,105.2897 325.9757,105.2897C327.0167,105.2897 327.9081,104.8494 328.6498,103.9689C329.3915,103.0884 329.7624,101.7242 329.7624,99.8764C329.7624,98.1153 329.4002,96.7967 328.6758,95.9205C327.9515,95.0443 327.0861,94.6062 326.0798,94.6062C325.0822,94.6062 324.1995,95.0725 323.4317,96.0051C322.664,96.9377 322.2801,98.2932 322.2801,100.0716zM344.4407,102.4529L346.8611,102.7522C346.4794,104.1662 345.7723,105.2636 344.74,106.0444C343.7077,106.8252 342.389,107.2155 340.7841,107.2155C338.7628,107.2155 337.1601,106.5931 335.976,105.3482C334.7918,104.1033 334.1997,102.3575 334.1997,100.1106C334.1997,97.7857 334.7983,95.9813 335.9955,94.6973C337.1926,93.4134 338.7455,92.7715 340.654,92.7715C342.5018,92.7715 344.0113,93.4004 345.1824,94.6583C346.3536,95.9162 346.9391,97.6859 346.9391,99.9675C346.9391,100.1063 346.9348,100.3145 346.9261,100.5921L336.6201,100.5921C336.7068,102.1102 337.1363,103.2727 337.9083,104.0795C338.6804,104.8863 339.6434,105.2897 340.7972,105.2897C341.656,105.2897 342.389,105.0641 342.9963,104.613C343.6036,104.1619 344.085,103.4419 344.4407,102.4529zM336.7502,98.6662L344.4667,98.6662C344.3626,97.5037 344.0677,96.6319 343.5819,96.0507C342.8358,95.1484 341.8685,94.6973 340.68,94.6973C339.6043,94.6973 338.6999,95.0574 337.9669,95.7774C337.2338,96.4974 336.8283,97.4604 336.7502,98.6662zM349.7759,106.9032L349.7759,93.0838L351.884,93.0838L351.884,95.1788C352.4218,94.1985 352.9185,93.5522 353.3739,93.2399C353.8294,92.9276 354.3303,92.7715 354.8769,92.7715C355.6663,92.7715 356.4688,93.023 357.2842,93.5262L356.4774,95.6993C355.9049,95.361 355.3323,95.1918 354.7598,95.1918C354.2479,95.1918 353.7881,95.3458 353.3804,95.6538C352.9727,95.9617 352.6821,96.389 352.5086,96.9355C352.2483,97.7683 352.1182,98.6792 352.1182,99.6682L352.1182,106.9032zM367.6944,105.1986C366.8269,105.936 365.9919,106.4565 365.1894,106.7601C364.387,107.0637 363.526,107.2155 362.6064,107.2155C361.0883,107.2155 359.9215,106.8447 359.106,106.103C358.2905,105.3612 357.8828,104.4135 357.8828,103.2597C357.8828,102.583 358.0368,101.9649 358.3448,101.4054C358.6527,100.8458 359.0561,100.3969 359.5549,100.0586C360.0538,99.7202 360.6155,99.4643 361.2401,99.2908C361.6999,99.1694 362.3939,99.0523 363.3221,98.9395C365.2133,98.7139 366.6056,98.445 367.4992,98.1327C367.5079,97.8117 367.5122,97.6078 367.5122,97.5211C367.5122,96.5668 367.291,95.8945 366.8486,95.5041C366.25,94.9749 365.3608,94.7103 364.181,94.7103C363.0792,94.7103 362.2659,94.9034 361.7411,95.2894C361.2162,95.6755 360.828,96.3586 360.5764,97.3389L358.2862,97.0266C358.4944,96.0463 358.8371,95.2547 359.3142,94.6518C359.7913,94.0489 360.481,93.5847 361.3832,93.2594C362.2854,92.9341 363.3308,92.7715 364.5193,92.7715C365.6991,92.7715 366.6577,92.9103 367.3951,93.1879C368.1325,93.4655 368.6747,93.8146 369.0217,94.2354C369.3687,94.6561 369.6116,95.1875 369.7504,95.8294C369.8285,96.2285 369.8675,96.9485 369.8675,97.9895L369.8675,101.1126C369.8675,103.2901 369.9174,104.6672 370.0171,105.2441C370.1169,105.821 370.3143,106.3741 370.6092,106.9032L368.1628,106.9032C367.9199,106.4174 367.7638,105.8492 367.6944,105.1986zM367.4992,99.9675C366.649,100.3145 365.3738,100.6094 363.6735,100.8523C362.7105,100.9911 362.0295,101.1473 361.6305,101.3208C361.2314,101.4943 360.9234,101.748 360.7066,102.082C360.4897,102.416 360.3812,102.7869 360.3812,103.1946C360.3812,103.8192 360.6176,104.3397 361.0904,104.7561C361.5632,105.1726 362.2551,105.3808 363.166,105.3808C364.0682,105.3808 364.8706,105.1834 365.5733,104.7887C366.276,104.394 366.7922,103.8539 367.1218,103.1686C367.3734,102.6394 367.4992,101.8587 367.4992,100.8263zM378.612,104.8082L378.9504,106.8772C378.291,107.016 377.7011,107.0854 377.1806,107.0854C376.3305,107.0854 375.6712,106.951 375.2027,106.682C374.7342,106.4131 374.4046,106.0596 374.2137,105.6215C374.0229,105.1834 373.9275,104.2617 373.9275,102.8563L373.9275,94.9055L372.2098,94.9055L372.2098,93.0838L373.9275,93.0838L373.9275,89.6614L376.2567,88.2561L376.2567,93.0838L378.612,93.0838L378.612,94.9055L376.2567,94.9055L376.2567,102.9864C376.2567,103.6544 376.2979,104.0838 376.3803,104.2747C376.4628,104.4655 376.5972,104.6173 376.7837,104.7301C376.9703,104.8429 377.237,104.8993 377.584,104.8993C377.8443,104.8993 378.1869,104.8689 378.612,104.8082zM380.9153,90.5203L380.9153,87.8266L383.2576,87.8266L383.2576,90.5203zM380.9153,106.9032L380.9153,93.0838L383.2576,93.0838L383.2576,106.9032zM386.823,106.9032L386.823,93.0838L388.9311,93.0838L388.9311,95.0487C389.9461,93.5305 391.4122,92.7715 393.3294,92.7715C394.1622,92.7715 394.9278,92.9211 395.6261,93.2204C396.3244,93.5197 396.8471,93.9122 397.1941,94.398C397.5411,94.8839 397.784,95.4607 397.9228,96.1287C398.0096,96.5625 398.053,97.3216 398.053,98.406L398.053,106.9032L395.7107,106.9032L395.7107,98.497C395.7107,97.5428 395.6196,96.8292 395.4374,96.3565C395.2552,95.8837 394.9321,95.5063 394.468,95.2243C394.0039,94.9424 393.4595,94.8014 392.8349,94.8014C391.8372,94.8014 390.9762,95.1181 390.2519,95.7514C389.5275,96.3846 389.1653,97.5862 389.1653,99.3559L389.1653,106.9032zM401.2151,108.0484L403.4923,108.3867C403.5877,109.0894 403.8523,109.6012 404.2861,109.9222C404.8673,110.3559 405.661,110.5728 406.6674,110.5728C407.7518,110.5728 408.5889,110.3559 409.1788,109.9222C409.7687,109.4884 410.1678,108.8812 410.376,108.1004C410.4974,107.6233 410.5538,106.6213 410.5451,105.0945C409.5215,106.3003 408.2462,106.9032 406.7194,106.9032C404.8196,106.9032 403.3491,106.2179 402.3081,104.8472C401.2671,103.4766 400.7466,101.8326 400.7466,99.9154C400.7466,98.5968 400.9852,97.3801 401.4623,96.2654C401.9394,95.1506 402.6313,94.2896 403.5378,93.6823C404.4444,93.0751 405.5092,92.7715 406.7324,92.7715C408.3634,92.7715 409.708,93.4308 410.7664,94.7494L410.7664,93.0838L412.9265,93.0838L412.9265,105.0294C412.9265,107.1808 412.7074,108.7055 412.2693,109.6034C411.8312,110.5013 411.1372,111.2104 410.1873,111.731C409.2374,112.2515 408.0684,112.5117 406.6804,112.5117C405.0321,112.5117 403.7005,112.1409 402.6855,111.3991C401.6705,110.6574 401.1804,109.5405 401.2151,108.0484zM403.1539,99.7463C403.1539,101.5594 403.514,102.8823 404.234,103.7151C404.954,104.5479 405.8562,104.9644 406.9406,104.9644C408.0163,104.9644 408.9186,104.5501 409.6473,103.7216C410.376,102.8932 410.7403,101.5941 410.7403,99.8243C410.7403,98.1327 410.3651,96.8574 409.6147,95.9986C408.8643,95.1398 407.96,94.7103 406.9016,94.7103C405.8606,94.7103 404.9757,95.1333 404.247,95.9791C403.5183,96.8249 403.1539,98.0806 403.1539,99.7463zM423.3106,100.7743L425.6919,100.5661C425.8047,101.5203 426.0671,102.3033 426.4792,102.9149C426.8912,103.5264 427.531,104.0209 428.3986,104.3983C429.2661,104.7757 430.242,104.9644 431.3264,104.9644C432.2893,104.9644 433.1395,104.8212 433.8769,104.5349C434.6143,104.2487 435.163,103.8561 435.523,103.3573C435.883,102.8585 436.063,102.3141 436.063,101.7242C436.063,101.1256 435.8895,100.6029 435.5425,100.1562C435.1955,99.7094 434.6229,99.3342 433.8249,99.0306C433.313,98.831 432.1809,98.5209 430.4285,98.1002C428.6762,97.6794 427.4486,97.2825 426.7459,96.9095C425.835,96.4324 425.1562,95.8403 424.7095,95.1333C424.2627,94.4262 424.0393,93.6346 424.0393,92.7584C424.0393,91.7955 424.3126,90.8955 424.8591,90.0583C425.4056,89.2212 426.2037,88.5857 427.2534,88.1519C428.3031,87.7182 429.4699,87.5013 430.7539,87.5013C432.1679,87.5013 433.4149,87.729 434.495,88.1845C435.575,88.6399 436.4057,89.3101 436.9869,90.1949C437.5682,91.0798 437.8805,92.0818 437.9238,93.2009L435.5035,93.3831C435.3734,92.1772 434.9331,91.2663 434.1827,90.6504C433.4323,90.0345 432.324,89.7265 430.8579,89.7265C429.3311,89.7265 428.2185,90.0063 427.5202,90.5658C426.8218,91.1253 426.4727,91.7998 426.4727,92.5893C426.4727,93.2746 426.7199,93.8385 427.2144,94.2809C427.7002,94.7234 428.9689,95.1766 431.0206,95.6408C433.0723,96.1049 434.4798,96.5104 435.2432,96.8574C436.3536,97.3693 437.1734,98.0177 437.7026,98.8028C438.2318,99.5879 438.4964,100.4923 438.4964,101.516C438.4964,102.531 438.2058,103.4874 437.6245,104.3853C437.0433,105.2832 436.2083,105.9815 435.1196,106.4803C434.0309,106.9791 432.8055,107.2286 431.4435,107.2286C429.7172,107.2286 428.2706,106.977 427.1038,106.4738C425.937,105.9707 425.0218,105.2138 424.3581,104.2031C423.6945,103.1925 423.3453,102.0495 423.3106,100.7743zM441.5414,112.2254L441.2811,110.0263C441.7929,110.1651 442.2397,110.2345 442.6214,110.2345C443.1419,110.2345 443.5583,110.1477 443.8706,109.9742C444.1829,109.8007 444.4389,109.5578 444.6384,109.2455C444.7859,109.0113 445.0244,108.4301 445.3541,107.5018C445.3974,107.3717 445.4669,107.1808 445.5623,106.9293L440.3182,93.0838L442.8426,93.0838L445.7184,101.0866C446.0915,102.1016 446.4255,103.1686 446.7204,104.2877C446.9893,103.212 447.3103,102.1623 447.6833,101.1386L450.6372,93.0838L452.9795,93.0838L447.7224,107.1375C447.1585,108.6556 446.7204,109.701 446.4081,110.2735C445.9917,111.0456 445.5146,111.6117 444.9767,111.9717C444.4389,112.3317 443.7969,112.5117 443.0508,112.5117C442.5997,112.5117 442.0966,112.4163 441.5414,112.2254zM454.0335,102.7782L456.3498,102.4139C456.4799,103.3421 456.8421,104.0535 457.4364,104.5479C458.0306,105.0424 458.8612,105.2897 459.9283,105.2897C461.004,105.2897 461.8021,105.0706 462.3226,104.6325C462.8431,104.1944 463.1034,103.6804 463.1034,103.0905C463.1034,102.5613 462.8735,102.1449 462.4137,101.8413C462.0927,101.6331 461.2946,101.3685 460.0194,101.0475C458.3017,100.6138 457.111,100.2386 456.4474,99.9219C455.7837,99.6053 455.2806,99.1672 454.9379,98.6076C454.5953,98.0481 454.4239,97.43 454.4239,96.7533C454.4239,96.1374 454.5649,95.567 454.8468,95.0422C455.1288,94.5173 455.5126,94.0814 455.9985,93.7344C456.3628,93.4655 456.8595,93.2377 457.4884,93.0512C458.1173,92.8647 458.7918,92.7715 459.5119,92.7715C460.5963,92.7715 461.5484,92.9276 462.3682,93.2399C463.188,93.5522 463.793,93.9751 464.1834,94.5087C464.5738,95.0422 464.8427,95.7557 464.9902,96.6492L462.7,96.9615C462.5959,96.2502 462.2944,95.695 461.7956,95.2959C461.2968,94.8969 460.5919,94.6973 459.6811,94.6973C458.6053,94.6973 457.8376,94.8752 457.3778,95.2309C456.918,95.5865 456.6881,96.0029 456.6881,96.4801C456.6881,96.7837 456.7835,97.057 456.9744,97.2999C457.1653,97.5515 457.4645,97.7597 457.8723,97.9245C458.1065,98.0112 458.7962,98.2108 459.9413,98.5231C461.5982,98.9655 462.7542,99.3277 463.4092,99.6096C464.0642,99.8916 464.5781,100.3015 464.9512,100.8393C465.3242,101.3772 465.5107,102.0452 465.5107,102.8433C465.5107,103.624 465.283,104.3593 464.8276,105.0489C464.3721,105.7386 463.715,106.2721 462.8561,106.6495C461.9973,107.0269 461.0257,107.2155 459.9413,107.2155C458.1455,107.2155 456.777,106.8425 455.8358,106.0965C454.8945,105.3504 454.2938,104.2443 454.0335,102.7782zM473.4094,104.8082L473.7478,106.8772C473.0884,107.016 472.4985,107.0854 471.978,107.0854C471.1279,107.0854 470.4685,106.951 470.0001,106.682C469.5316,106.4131 469.202,106.0596 469.0111,105.6215C468.8203,105.1834 468.7249,104.2617 468.7249,102.8563L468.7249,94.9055L467.0072,94.9055L467.0072,93.0838L468.7249,93.0838L468.7249,89.6614L471.0541,88.2561L471.0541,93.0838L473.4094,93.0838L473.4094,94.9055L471.0541,94.9055L471.0541,102.9864C471.0541,103.6544 471.0953,104.0838 471.1777,104.2747C471.2602,104.4655 471.3946,104.6173 471.5811,104.7301C471.7677,104.8429 472.0344,104.8993 472.3814,104.8993C472.6417,104.8993 472.9843,104.8689 473.4094,104.8082zM485.1599,102.4529L487.5802,102.7522C487.1985,104.1662 486.4915,105.2636 485.4592,106.0444C484.4268,106.8252 483.1082,107.2155 481.5033,107.2155C479.482,107.2155 477.8793,106.5931 476.6951,105.3482C475.511,104.1033 474.9189,102.3575 474.9189,100.1106C474.9189,97.7857 475.5175,95.9813 476.7146,94.6973C477.9118,93.4134 479.4647,92.7715 481.3732,92.7715C483.221,92.7715 484.7305,93.4004 485.9016,94.6583C487.0727,95.9162 487.6583,97.6859 487.6583,99.9675C487.6583,100.1063 487.654,100.3145 487.6453,100.5921L477.3393,100.5921C477.426,102.1102 477.8554,103.2727 478.6275,104.0795C479.3996,104.8863 480.3625,105.2897 481.5163,105.2897C482.3752,105.2897 483.1082,105.0641 483.7155,104.613C484.3227,104.1619 484.8042,103.4419 485.1599,102.4529zM477.4694,98.6662L485.1859,98.6662C485.0818,97.5037 484.7869,96.6319 484.301,96.0507C483.555,95.1484 482.5877,94.6973 481.3992,94.6973C480.3235,94.6973 479.4191,95.0574 478.6861,95.7774C477.953,96.4974 477.5474,97.4604 477.4694,98.6662zM490.5211,106.9032L490.5211,93.0838L492.6161,93.0838L492.6161,95.0227C493.0499,94.346 493.6268,93.8016 494.3468,93.3896C495.0669,92.9775 495.8867,92.7715 496.8062,92.7715C497.8299,92.7715 498.6692,92.984 499.3242,93.4091C499.9792,93.8342 500.4411,94.4284 500.71,95.1918C501.8031,93.5782 503.2258,92.7715 504.9782,92.7715C506.3489,92.7715 507.4029,93.151 508.1403,93.9101C508.8777,94.6691 509.2463,95.8381 509.2464,97.417L509.2464,106.9032L506.9171,106.9032L506.9171,98.1977C506.9171,97.2608 506.8412,96.5863 506.6894,96.1743C506.5375,95.7622 506.2621,95.4304 505.8631,95.1788C505.464,94.9272 504.9955,94.8014 504.4577,94.8014C503.4861,94.8014 502.6793,95.1246 502.0373,95.7709C501.3954,96.4172 501.0744,97.4517 501.0744,98.8744L501.0744,106.9032L498.7321,106.9032L498.7321,97.9245C498.7321,96.8835 498.5413,96.1027 498.1596,95.5822C497.7778,95.0617 497.1532,94.8014 496.2857,94.8014C495.6264,94.8014 495.017,94.9749 494.4574,95.3219C493.8979,95.669 493.4923,96.1764 493.2408,96.8444C492.9892,97.5124 492.8634,98.4754 492.8634,99.7332L492.8634,106.9032z" />
  <path id="Rectangle1" d="M60.371,250L219.629,250C225.3183,250 230,254.2806 230,259.4826L230,340.5174C230,345.7194 225.3183,350 219.629,350L60.371,350C54.6817,350 50,345.7194 50,340.5174L50,259.4826C50,254.2806 54.6817,250 60.371,250z" style="stroke:#000000;fill:#FFFF99;" />
  <path id="Text1" d="M90.7925,291.5678L90.7925,272.4912L97.9885,272.4912C99.2551,272.4912 100.2224,272.5519 100.8904,272.6733C101.8273,272.8295 102.6124,273.1266 103.2457,273.5647C103.879,274.0028 104.3886,274.6166 104.7747,275.406C105.1607,276.1954 105.3537,277.063 105.3537,278.0085C105.3537,279.6308 104.8376,281.0036 103.8052,282.1271C102.7729,283.2505 100.9077,283.8122 98.2098,283.8122L93.317,283.8122L93.317,291.5678zM93.317,281.561L98.2488,281.561C99.8797,281.561 101.0378,281.2574 101.7232,280.6501C102.4085,280.0429 102.7512,279.1884 102.7512,278.0866C102.7512,277.2885 102.5495,276.6053 102.1461,276.0371C101.7427,275.4689 101.2114,275.0937 100.552,274.9115C100.127,274.7987 99.3419,274.7424 98.1967,274.7424L93.317,274.7424zM108.2425,291.5678L108.2425,277.7483L110.3506,277.7483L110.3506,279.8433C110.8885,278.863 111.3851,278.2167 111.8405,277.9044C112.296,277.5921 112.797,277.436 113.3435,277.436C114.1329,277.436 114.9354,277.6876 115.7509,278.1907L114.9441,280.3638C114.3715,280.0255 113.799,279.8563 113.2264,279.8563C112.7146,279.8563 112.2548,280.0103 111.8471,280.3183C111.4393,280.6263 111.1487,281.0535 110.9752,281.6C110.7149,282.4329 110.5848,283.3438 110.5848,284.3327L110.5848,291.5678zM116.2714,284.658C116.2714,282.0989 116.9827,280.2034 118.4054,278.9715C119.5939,277.9478 121.0427,277.436 122.7517,277.436C124.6515,277.436 126.2044,278.0584 127.4102,279.3033C128.6161,280.5482 129.219,282.268 129.219,284.4628C129.219,286.2412 128.9522,287.6401 128.4187,288.6594C127.8852,289.6788 127.1088,290.4704 126.0894,291.0343C125.0701,291.5981 123.9575,291.8801 122.7517,291.8801C120.8171,291.8801 119.2534,291.2598 118.0606,290.0193C116.8678,288.7787 116.2714,286.9916 116.2714,284.658zM118.6787,284.658C118.6787,286.4278 119.0648,287.7529 119.8368,288.6334C120.6089,289.5139 121.5805,289.9542 122.7517,289.9542C123.9142,289.9542 124.8814,289.5118 125.6535,288.6269C126.4256,287.742 126.8116,286.3931 126.8116,284.58C126.8116,282.871 126.4234,281.5762 125.647,280.6957C124.8706,279.8151 123.9055,279.3749 122.7517,279.3749C121.5805,279.3749 120.6089,279.813 119.8368,280.6892C119.0648,281.5653 118.6787,282.8883 118.6787,284.658zM131.5352,292.7129L133.8125,293.0512C133.9079,293.7539 134.1725,294.2657 134.6062,294.5867C135.1875,295.0205 135.9812,295.2374 136.9876,295.2374C138.072,295.2374 138.9091,295.0205 139.499,294.5867C140.0889,294.153 140.488,293.5457 140.6962,292.7649C140.8176,292.2878 140.874,291.2858 140.8653,289.759C139.8417,290.9649 138.5664,291.5678 137.0396,291.5678C135.1398,291.5678 133.6693,290.8824 132.6283,289.5118C131.5873,288.1411 131.0668,286.4972 131.0668,284.58C131.0668,283.2613 131.3054,282.0447 131.7825,280.9299C132.2596,279.8151 132.9515,278.9541 133.858,278.3469C134.7646,277.7396 135.8294,277.436 137.0526,277.436C138.6836,277.436 140.0282,278.0953 141.0866,279.4139L141.0866,277.7483L143.2467,277.7483L143.2467,289.6939C143.2467,291.8454 143.0276,293.37 142.5895,294.2679C142.1514,295.1658 141.4574,295.875 140.5075,296.3955C139.5576,296.916 138.3886,297.1762 137.0006,297.1762C135.3523,297.1762 134.0207,296.8054 133.0057,296.0637C131.9907,295.3219 131.5005,294.205 131.5352,292.7129zM133.4741,284.4108C133.4741,286.2239 133.8342,287.5469 134.5542,288.3797C135.2742,289.2125 136.1764,289.6289 137.2608,289.6289C138.3365,289.6289 139.2388,289.2146 139.9675,288.3862C140.6962,287.5577 141.0605,286.2586 141.0605,284.4889C141.0605,282.7972 140.6853,281.522 139.9349,280.6631C139.1845,279.8043 138.2802,279.3749 137.2218,279.3749C136.1808,279.3749 135.2959,279.7978 134.5672,280.6436C133.8385,281.4894 133.4741,282.7452 133.4741,284.4108zM146.7601,291.5678L146.7601,277.7483L148.8681,277.7483L148.8681,279.8433C149.406,278.863 149.9027,278.2167 150.3581,277.9044C150.8135,277.5921 151.3145,277.436 151.8611,277.436C152.6505,277.436 153.453,277.6876 154.2684,278.1907L153.4616,280.3638C152.8891,280.0255 152.3165,279.8563 151.744,279.8563C151.2321,279.8563 150.7723,280.0103 150.3646,280.3183C149.9569,280.6263 149.6663,281.0535 149.4928,281.6C149.2325,282.4329 149.1024,283.3438 149.1024,284.3327L149.1024,291.5678zM164.6786,289.8631C163.8111,290.6005 162.9761,291.121 162.1736,291.4246C161.3712,291.7283 160.5102,291.8801 159.5906,291.8801C158.0725,291.8801 156.9057,291.5092 156.0902,290.7675C155.2747,290.0258 154.867,289.078 154.867,287.9242C154.867,287.2476 155.021,286.6295 155.3289,286.0699C155.6369,285.5104 156.0403,285.0614 156.5391,284.7231C157.0379,284.3848 157.5997,284.1289 158.2243,283.9553C158.684,283.8339 159.3781,283.7168 160.3063,283.604C162.1975,283.3785 163.5898,283.1095 164.4834,282.7972C164.492,282.4762 164.4964,282.2724 164.4964,282.1856C164.4964,281.2314 164.2752,280.559 163.8327,280.1687C163.2342,279.6395 162.345,279.3749 161.1651,279.3749C160.0634,279.3749 159.2501,279.5679 158.7253,279.9539C158.2004,280.34 157.8122,281.0232 157.5606,282.0034L155.2704,281.6911C155.4786,280.7108 155.8213,279.9192 156.2984,279.3163C156.7755,278.7134 157.4652,278.2493 158.3674,277.924C159.2696,277.5986 160.315,277.436 161.5035,277.436C162.6833,277.436 163.6419,277.5748 164.3793,277.8524C165.1167,278.13 165.6589,278.4792 166.0059,278.8999C166.3529,279.3207 166.5958,279.852 166.7346,280.494C166.8126,280.893 166.8517,281.6131 166.8517,282.6541L166.8517,285.7771C166.8517,287.9546 166.9016,289.3318 167.0013,289.9087C167.1011,290.4856 167.2985,291.0386 167.5934,291.5678L165.147,291.5678C164.9041,291.082 164.748,290.5137 164.6786,289.8631zM164.4834,284.632C163.6332,284.979 162.358,285.274 160.6576,285.5169C159.6947,285.6557 159.0137,285.8118 158.6147,285.9853C158.2156,286.1588 157.9076,286.4126 157.6908,286.7466C157.4739,287.0806 157.3654,287.4514 157.3654,287.8592C157.3654,288.4838 157.6018,289.0043 158.0746,289.4207C158.5474,289.8371 159.2393,290.0453 160.1502,290.0453C161.0524,290.0453 161.8548,289.8479 162.5575,289.4532C163.2602,289.0585 163.7763,288.5185 164.106,287.8331C164.3576,287.3039 164.4834,286.5232 164.4834,285.4908zM170.4822,291.5678L170.4822,277.7483L172.5773,277.7483L172.5773,279.6872C173.011,279.0105 173.5879,278.4662 174.3079,278.0541C175.028,277.642 175.8478,277.436 176.7674,277.436C177.791,277.436 178.6303,277.6485 179.2853,278.0736C179.9403,278.4987 180.4022,279.0929 180.6712,279.8563C181.7642,278.2428 183.1869,277.436 184.9393,277.436C186.31,277.436 187.364,277.8155 188.1014,278.5746C188.8388,279.3337 189.2075,280.5026 189.2075,282.0815L189.2075,291.5678L186.8782,291.5678L186.8782,282.8623C186.8782,281.9254 186.8023,281.2509 186.6505,280.8388C186.4987,280.4267 186.2232,280.0949 185.8242,279.8433C185.4251,279.5918 184.9567,279.466 184.4188,279.466C183.4472,279.466 182.6404,279.7891 181.9984,280.4354C181.3565,281.0817 181.0355,282.1162 181.0355,283.5389L181.0355,291.5678L178.6932,291.5678L178.6932,282.589C178.6932,281.548 178.5024,280.7672 178.1207,280.2467C177.739,279.7262 177.1144,279.466 176.2468,279.466C175.5875,279.466 174.9781,279.6395 174.4186,279.9865C173.859,280.3335 173.4534,280.841 173.2019,281.509C172.9503,282.1769 172.8245,283.1399 172.8245,284.3978L172.8245,291.5678zM99.9144,318.0876L102.2307,317.7233C102.3608,318.6515 102.723,319.3629 103.3172,319.8574C103.9115,320.3519 104.7421,320.5991 105.8092,320.5991C106.8849,320.5991 107.683,320.38 108.2035,319.942C108.724,319.5039 108.9843,318.9899 108.9843,318.4C108.9843,317.8708 108.7544,317.4544 108.2946,317.1507C107.9736,316.9425 107.1755,316.6779 105.9003,316.357C104.1826,315.9232 102.9919,315.548 102.3283,315.2314C101.6646,314.9147 101.1615,314.4766 100.8188,313.9171C100.4761,313.3575 100.3048,312.7394 100.3048,312.0628C100.3048,311.4468 100.4458,310.8764 100.7277,310.3516C101.0097,309.8268 101.3935,309.3908 101.8793,309.0438C102.2437,308.7749 102.7403,308.5472 103.3693,308.3607C103.9982,308.1741 104.6727,308.0809 105.3928,308.0809C106.4772,308.0809 107.4292,308.237 108.249,308.5493C109.0688,308.8616 109.6739,309.2846 110.0643,309.8181C110.4547,310.3516 110.7236,311.0651 110.8711,311.9587L108.5809,312.271C108.4768,311.5596 108.1753,311.0044 107.6765,310.6053C107.1777,310.2063 106.4728,310.0068 105.5619,310.0068C104.4862,310.0068 103.7185,310.1846 103.2587,310.5403C102.7989,310.896 102.569,311.3124 102.569,311.7895C102.569,312.0931 102.6644,312.3664 102.8553,312.6093C103.0461,312.8609 103.3454,313.0691 103.7532,313.2339C103.9874,313.3207 104.6771,313.5202 105.8222,313.8325C107.4791,314.2749 108.6351,314.6371 109.2901,314.9191C109.945,315.201 110.459,315.6109 110.8321,316.1488C111.2051,316.6866 111.3916,317.3546 111.3916,318.1527C111.3916,318.9335 111.1639,319.6687 110.7084,320.3584C110.253,321.048 109.5959,321.5816 108.737,321.9589C107.8782,322.3363 106.9066,322.525 105.8222,322.525C104.0264,322.525 102.6579,322.1519 101.7167,321.4059C100.7754,320.6598 100.1747,319.5537 99.9144,318.0876zM119.2903,320.1176L119.6286,322.1866C118.9693,322.3254 118.3794,322.3948 117.8589,322.3948C117.0088,322.3948 116.3494,322.2604 115.881,321.9915C115.4125,321.7225 115.0829,321.369 114.892,320.9309C114.7012,320.4928 114.6057,319.5711 114.6057,318.1657L114.6057,310.215L112.8881,310.215L112.8881,308.3932L114.6057,308.3932L114.6057,304.9708L116.935,303.5655L116.935,308.3932L119.2903,308.3932L119.2903,310.215L116.935,310.215L116.935,318.2959C116.935,318.9638 116.9762,319.3933 117.0586,319.5841C117.141,319.775 117.2755,319.9268 117.462,320.0396C117.6485,320.1523 117.9153,320.2087 118.2623,320.2087C118.5226,320.2087 118.8652,320.1784 119.2903,320.1176zM130.5983,320.508C129.7308,321.2454 128.8958,321.7659 128.0934,322.0695C127.2909,322.3732 126.4299,322.525 125.5104,322.525C123.9922,322.525 122.8254,322.1541 122.01,321.4124C121.1945,320.6707 120.7868,319.7229 120.7868,318.5691C120.7868,317.8925 120.9408,317.2744 121.2487,316.7148C121.5567,316.1553 121.9601,315.7063 122.4589,315.368C122.9577,315.0297 123.5194,314.7737 124.144,314.6002C124.6038,314.4788 125.2978,314.3617 126.2261,314.2489C128.1172,314.0233 129.5096,313.7544 130.4031,313.4421C130.4118,313.1211 130.4162,312.9173 130.4162,312.8305C130.4162,311.8763 130.1949,311.2039 129.7525,310.8136C129.1539,310.2844 128.2647,310.0198 127.0849,310.0198C125.9832,310.0198 125.1699,310.2128 124.645,310.5988C124.1202,310.9849 123.732,311.6681 123.4804,312.6483L121.1902,312.336C121.3984,311.3557 121.741,310.5641 122.2182,309.9612C122.6953,309.3583 123.385,308.8942 124.2872,308.5689C125.1894,308.2435 126.2347,308.0809 127.4232,308.0809C128.6031,308.0809 129.5617,308.2197 130.299,308.4973C131.0364,308.7749 131.5786,309.1241 131.9256,309.5448C132.2726,309.9656 132.5155,310.4969 132.6543,311.1389C132.7324,311.5379 132.7715,312.258 132.7715,313.299L132.7715,316.422C132.7715,318.5995 132.8213,319.9767 132.9211,320.5536C133.0209,321.1304 133.2182,321.6835 133.5132,322.2127L131.0668,322.2127C130.8239,321.7269 130.6677,321.1586 130.5983,320.508zM130.4031,315.2769C129.553,315.6239 128.2777,315.9189 126.5774,316.1618C125.6145,316.3006 124.9335,316.4567 124.5344,316.6302C124.1354,316.8037 123.8274,317.0575 123.6105,317.3915C123.3936,317.7255 123.2852,318.0963 123.2852,318.5041C123.2852,319.1287 123.5216,319.6492 123.9944,320.0656C124.4672,320.482 125.159,320.6902 126.0699,320.6902C126.9721,320.6902 127.7746,320.4928 128.4773,320.0981C129.18,319.7034 129.6961,319.1634 130.0258,318.478C130.2774,317.9488 130.4031,317.1681 130.4031,316.1357zM136.376,322.2127L136.376,308.3932L138.484,308.3932L138.484,310.4882C139.0219,309.5079 139.5185,308.8616 139.974,308.5493C140.4294,308.237 140.9304,308.0809 141.4769,308.0809C142.2664,308.0809 143.0688,308.3325 143.8843,308.8356L143.0775,311.0087C142.5049,310.6704 141.9324,310.5012 141.3598,310.5012C140.848,310.5012 140.3882,310.6552 139.9805,310.9632C139.5728,311.2712 139.2821,311.6984 139.1086,312.2449C138.8484,313.0778 138.7183,313.9886 138.7183,314.9776L138.7183,322.2127zM150.3906,320.1176L150.729,322.1866C150.0696,322.3254 149.4797,322.3948 148.9592,322.3948C148.1091,322.3948 147.4498,322.2604 146.9813,321.9915C146.5128,321.7225 146.1832,321.369 145.9923,320.9309C145.8015,320.4928 145.7061,319.5711 145.7061,318.1657L145.7061,310.215L143.9884,310.215L143.9884,308.3932L145.7061,308.3932L145.7061,304.9708L148.0353,303.5655L148.0353,308.3932L150.3906,308.3932L150.3906,310.215L148.0353,310.215L148.0353,318.2959C148.0353,318.9638 148.0765,319.3933 148.159,319.5841C148.2414,319.775 148.3758,319.9268 148.5623,320.0396C148.7489,320.1523 149.0156,320.2087 149.3626,320.2087C149.6229,320.2087 149.9655,320.1784 150.3906,320.1176zM161.7377,322.2127L161.7377,320.1827C160.662,321.7442 159.2002,322.525 157.3524,322.525C156.537,322.525 155.7757,322.3688 155.0687,322.0565C154.3617,321.7442 153.8368,321.3517 153.4942,320.8789C153.1515,320.4061 152.9108,319.827 152.772,319.1417C152.6765,318.6819 152.6288,317.9532 152.6288,316.9555L152.6288,308.3932L154.9711,308.3932L154.9711,316.0577C154.9711,317.2809 155.0188,318.105 155.1142,318.5301C155.2617,319.146 155.574,319.6297 156.0511,319.981C156.5283,320.3323 157.1182,320.508 157.8209,320.508C158.5236,320.508 159.1829,320.328 159.7988,319.968C160.4147,319.608 160.8507,319.1178 161.1066,318.4975C161.3625,317.8773 161.4904,316.9772 161.4905,315.7974L161.4905,308.3932L163.8327,308.3932L163.8327,322.2127zM167.5023,327.5088L167.5023,308.3932L169.6364,308.3932L169.6364,310.1889C170.1395,309.4863 170.7078,308.9592 171.3411,308.6079C171.9743,308.2566 172.7421,308.0809 173.6443,308.0809C174.8241,308.0809 175.8651,308.3845 176.7674,308.9918C177.6696,309.599 178.3506,310.4557 178.8103,311.5618C179.2701,312.6679 179.5,313.8802 179.5,315.1988C179.5,316.6129 179.2463,317.886 178.7388,319.0181C178.2313,320.1502 177.4939,321.0177 176.5266,321.6206C175.5593,322.2235 174.5422,322.525 173.4751,322.525C172.6944,322.525 171.9939,322.3601 171.3736,322.0305C170.7533,321.7008 170.2437,321.2844 169.8446,320.7813L169.8446,327.5088zM169.6234,315.381C169.6234,317.1594 169.9834,318.4737 170.7034,319.3239C171.4235,320.174 172.2953,320.5991 173.319,320.5991C174.36,320.5991 175.2514,320.1588 175.9931,319.2783C176.7348,318.3978 177.1057,317.0336 177.1057,315.1858C177.1057,313.4248 176.7435,312.1061 176.0191,311.23C175.2947,310.3538 174.4294,309.9157 173.4231,309.9157C172.4254,309.9157 171.5427,310.382 170.775,311.3145C170.0073,312.2471 169.6234,313.6026 169.6234,315.381z" />
  <path id="Rectangle2" d="M320.371,250L479.629,250C485.3183,250 490,254.2806 490,259.4826L490,340.5174C490,345.7194 485.3183,350 479.629,350L320.371,350C314.6817,350 310,345.7194 310,340.5174L310,259.4826C310,254.2806 314.6817,250 320.371,250z" style="stroke:#000000;fill:#FFFF99;" />
  <path id="Text2" d="M358.3139,309.4212L358.3139,290.3446L372.1073,290.3446L372.1073,292.5958L360.8383,292.5958L360.8383,298.4385L371.3916,298.4385L371.3916,300.6767L360.8383,300.6767L360.8383,307.17L372.5497,307.17L372.5497,309.4212zM379.5766,309.4212L374.3195,295.6017L376.7919,295.6017L379.7588,303.8778C380.0797,304.7713 380.3747,305.6996 380.6436,306.6625C380.8518,305.9338 381.1424,305.0576 381.5155,304.0339L384.5865,295.6017L386.9938,295.6017L381.7627,309.4212zM398.5231,304.9708L400.9434,305.2701C400.5617,306.6842 399.8547,307.7816 398.8224,308.5624C397.79,309.3431 396.4714,309.7335 394.8665,309.7335C392.8452,309.7335 391.2425,309.1111 390.0583,307.8662C388.8742,306.6213 388.2821,304.8754 388.2821,302.6286C388.2821,300.3036 388.8807,298.4992 390.0778,297.2153C391.275,295.9314 392.8278,295.2894 394.7364,295.2894C396.5842,295.2894 398.0936,295.9184 399.2648,297.1762C400.4359,298.4341 401.0215,300.2039 401.0215,302.4854C401.0215,302.6242 401.0172,302.8324 401.0085,303.11L390.7024,303.11C390.7892,304.6282 391.2186,305.7906 391.9907,306.5974C392.7628,307.4042 393.7257,307.8076 394.8795,307.8076C395.7383,307.8076 396.4714,307.5821 397.0787,307.131C397.6859,306.6799 398.1674,305.9598 398.5231,304.9708zM390.8326,301.1842L398.5491,301.1842C398.445,300.0217 398.15,299.1498 397.6642,298.5686C396.9182,297.6664 395.9509,297.2153 394.7624,297.2153C393.6867,297.2153 392.7823,297.5753 392.0492,298.2953C391.3162,299.0154 390.9106,299.9783 390.8326,301.1842zM403.8843,309.4212L403.8843,295.6017L405.9923,295.6017L405.9923,297.5666C407.0073,296.0485 408.4734,295.2894 410.3906,295.2894C411.2234,295.2894 411.989,295.439 412.6874,295.7383C413.3857,296.0376 413.9084,296.4302 414.2554,296.916C414.6024,297.4018 414.8453,297.9787 414.9841,298.6467C415.0709,299.0804 415.1142,299.8395 415.1142,300.9239L415.1142,309.4212L412.772,309.4212L412.772,301.015C412.772,300.0607 412.6809,299.3472 412.4987,298.8744C412.3165,298.4016 411.9934,298.0242 411.5292,297.7423C411.0651,297.4604 410.5208,297.3194 409.8961,297.3194C408.8985,297.3194 408.0375,297.636 407.3131,298.2693C406.5888,298.9026 406.2266,300.1041 406.2266,301.8738L406.2266,309.4212zM423.8197,307.3261L424.1581,309.3952C423.4987,309.534 422.9088,309.6034 422.3883,309.6034C421.5382,309.6034 420.8789,309.4689 420.4104,309.2C419.9419,308.931 419.6123,308.5775 419.4214,308.1394C419.2306,307.7013 419.1352,306.7796 419.1352,305.3742L419.1352,297.4235L417.4175,297.4235L417.4175,295.6017L419.1352,295.6017L419.1352,292.1794L421.4644,290.774L421.4644,295.6017L423.8197,295.6017L423.8197,297.4235L421.4644,297.4235L421.4644,305.5044C421.4644,306.1724 421.5056,306.6018 421.588,306.7926C421.6705,306.9835 421.8049,307.1353 421.9914,307.2481C422.178,307.3608 422.4447,307.4172 422.7917,307.4172C423.052,307.4172 423.3946,307.3869 423.8197,307.3261zM441.6861,309.4212L439.3439,309.4212L439.3439,294.4956C438.78,295.0335 438.0404,295.5713 437.1252,296.1092C436.21,296.6471 435.388,297.0505 434.6593,297.3194L434.6593,295.0552C435.9692,294.4392 437.1143,293.6932 438.0946,292.817C439.0749,291.9408 439.7689,291.0906 440.1767,290.2665L441.6861,290.2665z" />
  <path id="Rectangle3" d="M580.371,250L739.629,250C745.3183,250 750,254.2806 750,259.4826L750,340.5174C750,345.7194 745.3183,350 739.629,350L580.371,350C574.6817,350 570,345.7194 570,340.5174L570,259.4826C570,254.2806 574.6817,250 580.371,250z" style="stroke:#000000;fill:#FFFF99;" />
  <path id="Text3" d="M616.5702,309.4212L616.5702,290.3446L630.3636,290.3446L630.3636,292.5958L619.0946,292.5958L619.0946,298.4385L629.6479,298.4385L629.6479,300.6767L619.0946,300.6767L619.0946,307.17L630.806,307.17L630.806,309.4212zM637.8329,309.4212L632.5758,295.6017L635.0482,295.6017L638.0151,303.8778C638.336,304.7713 638.631,305.6996 638.8999,306.6625C639.1081,305.9338 639.3987,305.0576 639.7718,304.0339L642.8428,295.6017L645.2501,295.6017L640.019,309.4212zM656.7794,304.9708L659.1997,305.2701C658.818,306.6842 658.111,307.7816 657.0787,308.5624C656.0463,309.3431 654.7277,309.7335 653.1228,309.7335C651.1015,309.7335 649.4988,309.1111 648.3146,307.8662C647.1305,306.6213 646.5384,304.8754 646.5384,302.6286C646.5384,300.3036 647.137,298.4992 648.3341,297.2153C649.5313,295.9314 651.0841,295.2894 652.9927,295.2894C654.8405,295.2894 656.3499,295.9184 657.5211,297.1762C658.6922,298.4341 659.2778,300.2039 659.2778,302.4854C659.2778,302.6242 659.2735,302.8324 659.2648,303.11L648.9587,303.11C649.0455,304.6282 649.4749,305.7906 650.247,306.5974C651.0191,307.4042 651.982,307.8076 653.1358,307.8076C653.9946,307.8076 654.7277,307.5821 655.335,307.131C655.9422,306.6799 656.4237,305.9598 656.7794,304.9708zM649.0889,301.1842L656.8054,301.1842C656.7013,300.0217 656.4063,299.1498 655.9205,298.5686C655.1745,297.6664 654.2072,297.2153 653.0187,297.2153C651.943,297.2153 651.0386,297.5753 650.3055,298.2953C649.5725,299.0154 649.1669,299.9783 649.0889,301.1842zM662.1406,309.4212L662.1406,295.6017L664.2486,295.6017L664.2486,297.5666C665.2636,296.0485 666.7297,295.2894 668.6469,295.2894C669.4797,295.2894 670.2453,295.439 670.9437,295.7383C671.642,296.0376 672.1647,296.4302 672.5117,296.916C672.8587,297.4018 673.1016,297.9787 673.2404,298.6467C673.3272,299.0804 673.3705,299.8395 673.3705,300.9239L673.3705,309.4212L671.0283,309.4212L671.0283,301.015C671.0283,300.0607 670.9372,299.3472 670.755,298.8744C670.5728,298.4016 670.2497,298.0242 669.7855,297.7423C669.3214,297.4604 668.7771,297.3194 668.1524,297.3194C667.1548,297.3194 666.2938,297.636 665.5694,298.2693C664.8451,298.9026 664.4829,300.1041 664.4829,301.8738L664.4829,309.4212zM682.076,307.3261L682.4144,309.3952C681.755,309.534 681.1651,309.6034 680.6446,309.6034C679.7945,309.6034 679.1352,309.4689 678.6667,309.2C678.1982,308.931 677.8686,308.5775 677.6777,308.1394C677.4869,307.7013 677.3915,306.7796 677.3915,305.3742L677.3915,297.4235L675.6738,297.4235L675.6738,295.6017L677.3915,295.6017L677.3915,292.1794L679.7207,290.774L679.7207,295.6017L682.076,295.6017L682.076,297.4235L679.7207,297.4235L679.7207,305.5044C679.7207,306.1724 679.7619,306.6018 679.8443,306.7926C679.9268,306.9835 680.0612,307.1353 680.2477,307.2481C680.4343,307.3608 680.701,307.4172 681.048,307.4172C681.3083,307.4172 681.6509,307.3869 682.076,307.3261zM703.4298,307.17L703.4298,309.4212L690.8205,309.4212C690.8032,308.8573 690.8943,308.3151 691.0938,307.7946C691.4148,306.9358 691.9288,306.0899 692.6358,305.2571C693.3428,304.4243 694.3643,303.4614 695.7003,302.3683C697.7737,300.668 699.1747,299.3212 699.9034,298.3279C700.6321,297.3346 700.9965,296.3955 700.9965,295.5106C700.9965,294.5824 700.6646,293.7995 700.001,293.1618C699.3373,292.5242 698.472,292.2054 697.405,292.2054C696.2772,292.2054 695.375,292.5437 694.6983,293.2204C694.0217,293.897 693.679,294.834 693.6703,296.0311L691.263,295.7839C691.4278,293.9881 692.0481,292.6196 693.1238,291.6784C694.1995,290.7371 695.6439,290.2665 697.457,290.2665C699.2875,290.2665 700.7362,290.774 701.8033,291.789C702.8703,292.804 703.4038,294.0619 703.4038,295.5627C703.4038,296.3261 703.2477,297.0765 702.9354,297.8139C702.623,298.5513 702.1047,299.3277 701.3803,300.1431C700.656,300.9586 699.4523,302.0777 697.7693,303.5004C696.364,304.6802 695.4617,305.4805 695.0627,305.9013C694.6636,306.322 694.334,306.7449 694.0737,307.17z" />
  <line id="Line" x1="85" y1="150" x2="85" y2="250" style="stroke:#000000;stroke-linecap:round;stroke-linejoin:round;" />
  <line id="Line1" x1="85" y1="250" x2="91" y2="238" style="stroke:#000000;stroke-linecap:round;stroke-linejoin:round;" />
  <line id="Line2" x1="85" y1="250" x2="79" y2="238" style="stroke:#000000;stroke-linecap:round;stroke-linejoin:round;" />
  <line id="Line3" x1="191" y1="250" x2="191" y2="150" style="stroke:#000000;stroke-linecap:round;stroke-linejoin:round;" />
  <line id="Line4" x1="191" y1="150" x2="185" y2="162" style="stroke:#000000;stroke-linecap:round;stroke-linejoin:round;" />
  <line id="Line5" x1="191" y1="150" x2="197" y2="162" style="stroke:#000000;stroke-linecap:round;stroke-linejoin:round;" />
  <line id="Line6" x1="346" y1="150" x2="346" y2="250" style="stroke:#000000;stroke-linecap:round;stroke-linejoin:round;" />
  <line id="Line7" x1="346" y1="250" x2="352" y2="238" style="stroke:#000000;stroke-linecap:round;stroke-linejoin:round;" />
  <line id="Line8" x1="346" y1="250" x2="340" y2="238" style="stroke:#000000;stroke-linecap:round;stroke-linejoin:round;" />
  <line id="Line9" x1="452" y1="250" x2="452" y2="150" style="stroke:#000000;stroke-linecap:round;stroke-linejoin:round;" />
  <line id="Line10" x1="452" y1="150" x2="446" y2="162" style="stroke:#000000;stroke-linecap:round;stroke-linejoin:round;" />
  <line id="Line11" x1="452" y1="150" x2="458" y2="162" style="stroke:#000000;stroke-linecap:round;stroke-linejoin:round;" />
  <line id="Line12" x1="606" y1="150" x2="606" y2="250" style="stroke:#000000;stroke-linecap:round;stroke-linejoin:round;" />
  <line id="Line13" x1="606" y1="250" x2="612" y2="238" style="stroke:#000000;stroke-linecap:round;stroke-linejoin:round;" />
  <line id="Line14" x1="606" y1="250" x2="600" y2="238" style="stroke:#000000;stroke-linecap:round;stroke-linejoin:round;" />
  <line id="Line15" x1="712" y1="250" x2="712" y2="150" style="stroke:#000000;stroke-linecap:round;stroke-linejoin:round;" />
  <line id="Line16" x1="712" y1="150" x2="706" y2="162" style="stroke:#000000;stroke-linecap:round;stroke-linejoin:round;" />
  <line id="Line17" x1="712" y1="150" x2="718" y2="162" style="stroke:#000000;stroke-linecap:round;stroke-linejoin:round;" />
</svg>