<?xml version="1.0" encoding="utf-8"?>
<svg version="1.1" viewBox="0 0 800 400" width="800" height="400" style="stroke:none;stroke-linecap:butt;stroke-linejoin:miter;stroke-width:1;stroke-dasharray:none;fill:#000000;fill-opacity:1;fill-rule:evenodd" font-family="Arial" font-size="15px" xmlns:xlink="http://www.w3.org/1999/xlink" xmlns="http://www.w3.org/2000/svg">
  <path id="Rectangle" d="M50,300L750,300L750,380L50,380z" style="stroke:#000000;stroke-dasharray:10 5;fill:#FFFFFF;" />
  <path id="Rectangle1" d="M50,200L750,200L750,280L50,280z" style="stroke:#000000;stroke-dasharray:10 5;fill:#FFFFFF;" />
  <line id="Line" x1="195" y1="150" x2="195" y2="200" style="stroke:#000000;stroke-linecap:round;stroke-linejoin:round;" />
  <line id="Line1" x1="195" y1="200" x2="201" y2="188" style="stroke:#000000;stroke-linecap:round;stroke-linejoin:round;" />
  <line id="Line2" x1="195" y1="200" x2="189" y2="188" style="stroke:#000000;stroke-linecap:round;stroke-linejoin:round;" />
  <line id="Line3" x1="307" y1="200" x2="307" y2="150" style="stroke:#000000;stroke-linecap:round;stroke-linejoin:round;" />
  <line id="Line4" x1="307" y1="150" x2="301" y2="162" style="stroke:#000000;stroke-linecap:round;stroke-linejoin:round;" />
  <line id="Line5" x1="307" y1="150" x2="313" y2="162" style="stroke:#000000;stroke-linecap:round;stroke-linejoin:round;" />
  <line id="Line6" x1="396" y1="150" x2="396" y2="300" style="stroke:#000000;stroke-linecap:round;stroke-linejoin:round;" />
  <line id="Line7" x1="396" y1="300" x2="402" y2="288" style="stroke:#000000;stroke-linecap:round;stroke-linejoin:round;" />
  <line id="Line8" x1="396" y1="300" x2="390" y2="288" style="stroke:#000000;stroke-linecap:round;stroke-linejoin:round;" />
  <line id="Line9" x1="508" y1="300" x2="508" y2="150" style="stroke:#000000;stroke-linecap:round;stroke-linejoin:round;" />
  <line id="Line10" x1="508" y1="150" x2="502" y2="162" style="stroke:#000000;stroke-linecap:round;stroke-linejoin:round;" />
  <line id="Line11" x1="508" y1="150" x2="514" y2="162" style="stroke:#000000;stroke-linecap:round;stroke-linejoin:round;" />
  <line id="Line12" x1="606" y1="150" x2="606" y2="200" style="stroke:#000000;stroke-linecap:round;stroke-linejoin:round;" />
  <line id="Line13" x1="606" y1="200" x2="612" y2="188" style="stroke:#000000;stroke-linecap:round;stroke-linejoin:round;" />
  <line id="Line14" x1="606" y1="200" x2="600" y2="188" style="stroke:#000000;stroke-linecap:round;stroke-linejoin:round;" />
  <line id="Line15" x1="718" y1="200" x2="718" y2="150" style="stroke:#000000;stroke-linecap:round;stroke-linejoin:round;" />
  <line id="Line16" x1="718" y1="150" x2="712" y2="162" style="stroke:#000000;stroke-linecap:round;stroke-linejoin:round;" />
  <line id="Line17" x1="718" y1="150" x2="724" y2="162" style="stroke:#000000;stroke-linecap:round;stroke-linejoin:round;" />
  <path id="Text" d="M68.2851,249.4212L68.2851,232.5958L62,232.5958L62,230.3446L77.1207,230.3446L77.1207,232.5958L70.8096,232.5958L70.8096,249.4212zM85.4749,247.7165C84.6074,248.4539 83.7724,248.9744 82.9699,249.2781C82.1675,249.5817 81.3065,249.7335 80.3869,249.7335C78.8688,249.7335 77.702,249.3626 76.8865,248.6209C76.0711,247.8792 75.6633,246.9314 75.6633,245.7776C75.6633,245.101 75.8173,244.4829 76.1253,243.9233C76.4332,243.3638 76.8366,242.9148 77.3355,242.5765C77.8343,242.2382 78.396,241.9823 79.0206,241.8088C79.4804,241.6873 80.1744,241.5702 81.1026,241.4574C82.9938,241.2319 84.3862,240.9629 85.2797,240.6506C85.2884,240.3297 85.2927,240.1258 85.2927,240.039C85.2927,239.0848 85.0715,238.4125 84.6291,238.0221C84.0305,237.4929 83.1413,237.2283 81.9615,237.2283C80.8597,237.2283 80.0464,237.4213 79.5216,237.8074C78.9967,238.1934 78.6085,238.8766 78.3569,239.8569L76.0667,239.5446C76.2749,238.5643 76.6176,237.7727 77.0947,237.1697C77.5718,236.5668 78.2615,236.1027 79.1637,235.7774C80.0659,235.4521 81.1113,235.2894 82.2998,235.2894C83.4796,235.2894 84.4382,235.4282 85.1756,235.7058C85.913,235.9834 86.4552,236.3326 86.8022,236.7533C87.1492,237.1741 87.3921,237.7054 87.5309,238.3474C87.609,238.7464 87.648,239.4665 87.648,240.5075L87.648,243.6305C87.648,245.808 87.6979,247.1852 87.7977,247.7621C87.8974,248.339 88.0948,248.892 88.3897,249.4212L85.9433,249.4212C85.7004,248.9354 85.5443,248.3672 85.4749,247.7165zM85.2797,242.4854C84.4295,242.8324 83.1543,243.1274 81.454,243.3703C80.491,243.5091 79.81,243.6652 79.411,243.8387C79.0119,244.0122 78.704,244.266 78.4871,244.6C78.2702,244.934 78.1618,245.3048 78.1618,245.7126C78.1618,246.3372 78.3982,246.8577 78.8709,247.2741C79.3437,247.6905 80.0356,247.8987 80.9465,247.8987C81.8487,247.8987 82.6511,247.7013 83.3538,247.3066C84.0565,246.9119 84.5727,246.3719 84.9023,245.6865C85.1539,245.1574 85.2797,244.3766 85.2797,243.3443zM90.3416,245.2962L92.6579,244.9318C92.788,245.8601 93.1502,246.5714 93.7445,247.0659C94.3387,247.5604 95.1693,247.8076 96.2364,247.8076C97.3121,247.8076 98.1102,247.5886 98.6307,247.1505C99.1512,246.7124 99.4115,246.1984 99.4115,245.6085C99.4115,245.0793 99.1816,244.6629 98.7218,244.3593C98.4008,244.151 97.6027,243.8865 96.3275,243.5655C94.6098,243.1317 93.4191,242.7565 92.7555,242.4399C92.0918,242.1232 91.5887,241.6851 91.246,241.1256C90.9033,240.5661 90.732,239.9479 90.732,239.2713C90.732,238.6554 90.873,238.085 91.1549,237.5601C91.4369,237.0353 91.8207,236.5993 92.3065,236.2523C92.6709,235.9834 93.1676,235.7557 93.7965,235.5692C94.4254,235.3827 95.0999,235.2894 95.82,235.2894C96.9044,235.2894 97.8565,235.4456 98.6763,235.7579C99.4961,236.0702 100.1011,236.4931 100.4915,237.0266C100.8819,237.5601 101.1508,238.2736 101.2983,239.1672L99.0081,239.4795C98.904,238.7681 98.6025,238.2129 98.1037,237.8139C97.6049,237.4148 96.9,237.2153 95.9891,237.2153C94.9134,237.2153 94.1457,237.3931 93.6859,237.7488C93.2261,238.1045 92.9962,238.5209 92.9962,238.998C92.9962,239.3017 93.0916,239.5749 93.2825,239.8178C93.4734,240.0694 93.7726,240.2776 94.1804,240.4424C94.4146,240.5292 95.1043,240.7287 96.2494,241.041C97.9063,241.4834 99.0623,241.8456 99.7173,242.1276C100.3722,242.4095 100.8862,242.8194 101.2593,243.3573C101.6323,243.8951 101.8188,244.5631 101.8188,245.3612C101.8188,246.142 101.5911,246.8772 101.1357,247.5669C100.6802,248.2566 100.0231,248.7901 99.1642,249.1674C98.3054,249.5448 97.3338,249.7335 96.2494,249.7335C94.4536,249.7335 93.0851,249.3605 92.1439,248.6144C91.2026,247.8683 90.6019,246.7623 90.3416,245.2962zM104.6165,249.4212L104.6165,230.3446L106.9588,230.3446L106.9588,241.2232L112.5022,235.6017L115.5342,235.6017L110.251,240.7287L116.0677,249.4212L113.1789,249.4212L108.6114,242.3553L106.9588,243.9428L106.9588,249.4212zM133.5047,249.4212L131.1624,249.4212L131.1624,234.4956C130.5986,235.0335 129.859,235.5713 128.9438,236.1092C128.0285,236.6471 127.2066,237.0505 126.4779,237.3194L126.4779,235.0552C127.7878,234.4392 128.9329,233.6932 129.9132,232.817C130.8935,231.9408 131.5875,231.0906 131.9952,230.2665L133.5047,230.2665z" />
  <path id="Text1" d="M68.2851,349.4212L68.2851,332.5958L62,332.5958L62,330.3446L77.1207,330.3446L77.1207,332.5958L70.8096,332.5958L70.8096,349.4212zM85.4749,347.7165C84.6074,348.4539 83.7724,348.9744 82.9699,349.2781C82.1675,349.5817 81.3065,349.7335 80.3869,349.7335C78.8688,349.7335 77.702,349.3626 76.8865,348.6209C76.0711,347.8792 75.6633,346.9314 75.6633,345.7776C75.6633,345.101 75.8173,344.4829 76.1253,343.9233C76.4332,343.3638 76.8366,342.9148 77.3355,342.5765C77.8343,342.2382 78.396,341.9823 79.0206,341.8088C79.4804,341.6873 80.1744,341.5702 81.1026,341.4574C82.9938,341.2319 84.3862,340.9629 85.2797,340.6506C85.2884,340.3297 85.2927,340.1258 85.2927,340.039C85.2927,339.0848 85.0715,338.4125 84.6291,338.0221C84.0305,337.4929 83.1413,337.2283 81.9615,337.2283C80.8597,337.2283 80.0464,337.4213 79.5216,337.8074C78.9967,338.1934 78.6085,338.8766 78.3569,339.8569L76.0667,339.5446C76.2749,338.5643 76.6176,337.7727 77.0947,337.1697C77.5718,336.5668 78.2615,336.1027 79.1637,335.7774C80.0659,335.4521 81.1113,335.2894 82.2998,335.2894C83.4796,335.2894 84.4382,335.4282 85.1756,335.7058C85.913,335.9834 86.4552,336.3326 86.8022,336.7533C87.1492,337.1741 87.3921,337.7054 87.5309,338.3474C87.609,338.7464 87.648,339.4665 87.648,340.5075L87.648,343.6305C87.648,345.808 87.6979,347.1852 87.7977,347.7621C87.8974,348.339 88.0948,348.892 88.3897,349.4212L85.9433,349.4212C85.7004,348.9354 85.5443,348.3672 85.4749,347.7165zM85.2797,342.4854C84.4295,342.8324 83.1543,343.1274 81.454,343.3703C80.491,343.5091 79.81,343.6652 79.411,343.8387C79.0119,344.0122 78.704,344.266 78.4871,344.6C78.2702,344.934 78.1618,345.3048 78.1618,345.7126C78.1618,346.3372 78.3982,346.8577 78.8709,347.2741C79.3437,347.6905 80.0356,347.8987 80.9465,347.8987C81.8487,347.8987 82.6511,347.7013 83.3538,347.3066C84.0565,346.9119 84.5727,346.3719 84.9023,345.6865C85.1539,345.1574 85.2797,344.3766 85.2797,343.3443zM90.3416,345.2962L92.6579,344.9318C92.788,345.8601 93.1502,346.5714 93.7445,347.0659C94.3387,347.5604 95.1693,347.8076 96.2364,347.8076C97.3121,347.8076 98.1102,347.5886 98.6307,347.1505C99.1512,346.7124 99.4115,346.1984 99.4115,345.6085C99.4115,345.0793 99.1816,344.6629 98.7218,344.3593C98.4008,344.151 97.6027,343.8865 96.3275,343.5655C94.6098,343.1317 93.4191,342.7565 92.7555,342.4399C92.0918,342.1232 91.5887,341.6851 91.246,341.1256C90.9033,340.5661 90.732,339.9479 90.732,339.2713C90.732,338.6554 90.873,338.085 91.1549,337.5601C91.4369,337.0353 91.8207,336.5993 92.3065,336.2523C92.6709,335.9834 93.1676,335.7557 93.7965,335.5692C94.4254,335.3827 95.0999,335.2894 95.82,335.2894C96.9044,335.2894 97.8565,335.4456 98.6763,335.7579C99.4961,336.0702 100.1011,336.4931 100.4915,337.0266C100.8819,337.5601 101.1508,338.2736 101.2983,339.1672L99.0081,339.4795C98.904,338.7681 98.6025,338.2129 98.1037,337.8139C97.6049,337.4148 96.9,337.2153 95.9891,337.2153C94.9134,337.2153 94.1457,337.3931 93.6859,337.7488C93.2261,338.1045 92.9962,338.5209 92.9962,338.998C92.9962,339.3017 93.0916,339.5749 93.2825,339.8178C93.4734,340.0694 93.7726,340.2776 94.1804,340.4424C94.4146,340.5292 95.1043,340.7287 96.2494,341.041C97.9063,341.4834 99.0623,341.8456 99.7173,342.1276C100.3722,342.4095 100.8862,342.8194 101.2593,343.3573C101.6323,343.8951 101.8188,344.5631 101.8188,345.3612C101.8188,346.142 101.5911,346.8772 101.1357,347.5669C100.6802,348.2566 100.0231,348.7901 99.1642,349.1674C98.3054,349.5448 97.3338,349.7335 96.2494,349.7335C94.4536,349.7335 93.0851,349.3605 92.1439,348.6144C91.2026,347.8683 90.6019,346.7623 90.3416,345.2962zM104.6165,349.4212L104.6165,330.3446L106.9588,330.3446L106.9588,341.2232L112.5022,335.6017L115.5342,335.6017L110.251,340.7287L116.0677,349.4212L113.1789,349.4212L108.6114,342.3553L106.9588,343.9428L106.9588,349.4212zM136.9921,347.17L136.9921,349.4212L124.3828,349.4212C124.3655,348.8573 124.4566,348.3151 124.6561,347.7946C124.9771,346.9358 125.4911,346.0899 126.1981,345.2571C126.9051,344.4243 127.9266,343.4614 129.2626,342.3683C131.3359,340.668 132.737,339.3212 133.4657,338.3279C134.1944,337.3346 134.5587,336.3955 134.5587,335.5106C134.5587,334.5824 134.2269,333.7995 133.5633,333.1618C132.8996,332.5242 132.0343,332.2054 130.9672,332.2054C129.8395,332.2054 128.9373,332.5437 128.2606,333.2204C127.5839,333.897 127.2413,334.834 127.2326,336.0311L124.8253,335.7839C124.9901,333.9881 125.6104,332.6196 126.6861,331.6784C127.7618,330.7371 129.2062,330.2665 131.0193,330.2665C132.8497,330.2665 134.2985,330.774 135.3655,331.789C136.4326,332.804 136.9661,334.0619 136.9661,335.5627C136.9661,336.3261 136.8099,337.0765 136.4976,337.8139C136.1853,338.5513 135.667,339.3277 134.9426,340.1431C134.2182,340.9586 133.0146,342.0777 131.3316,343.5004C129.9262,344.6802 129.024,345.4805 128.625,345.9013C128.2259,346.322 127.8962,346.7449 127.636,347.17z" />
  <path id="Rectangle2" d="M194.3224,200L307.0883,200L307.0883,280L194.3224,280z" style="stroke:#000000;fill:#FFFF99;" />
  <path id="Rectangle3" d="M50,50L750,50L750,150L50,150z" style="stroke:#000000;fill:#99CCFF;" />
  <path id="Text2" d="M298.9614,97.6122C298.9614,94.4458 299.8115,91.9668 301.5119,90.1754C303.2122,88.384 305.407,87.4883 308.0963,87.4883C309.8573,87.4883 311.4449,87.909 312.8589,88.7505C314.273,89.592 315.3508,90.7653 316.0926,92.2705C316.8343,93.7756 317.2052,95.4824 317.2052,97.391C317.2052,99.3255 316.8148,101.0562 316.034,102.583C315.2533,104.1099 314.1472,105.2658 312.7158,106.0509C311.2844,106.836 309.7402,107.2286 308.0833,107.2286C306.2875,107.2286 304.6826,106.7948 303.2686,105.9273C301.8545,105.0598 300.7831,103.8756 300.0544,102.3748C299.3257,100.874 298.9614,99.2865 298.9614,97.6122zM301.5639,97.6512C301.5639,99.9501 302.182,101.7611 303.4182,103.084C304.6544,104.407 306.2051,105.0685 308.0702,105.0685C309.9701,105.0685 311.5338,104.4005 312.7613,103.0645C313.9889,101.7285 314.6026,99.833 314.6026,97.378C314.6026,95.8251 314.3402,94.4696 313.8153,93.3115C313.2905,92.1534 312.5228,91.2555 311.5121,90.6179C310.5015,89.9802 309.3672,89.6614 308.1093,89.6614C306.3222,89.6614 304.7845,90.2752 303.4963,91.5027C302.208,92.7302 301.5639,94.7797 301.5639,97.6512zM320.159,112.1994L320.159,93.0838L322.2931,93.0838L322.2931,94.8795C322.7963,94.1768 323.3645,93.6498 323.9978,93.2985C324.6311,92.9471 325.3988,92.7715 326.301,92.7715C327.4808,92.7715 328.5219,93.0751 329.4241,93.6823C330.3263,94.2896 331.0073,95.1463 331.4671,96.2524C331.9268,97.3584 332.1567,98.5708 332.1567,99.8894C332.1567,101.3034 331.903,102.5765 331.3955,103.7086C330.888,104.8407 330.1506,105.7082 329.1833,106.3112C328.2161,106.9141 327.1989,107.2155 326.1319,107.2155C325.3511,107.2155 324.6506,107.0507 324.0303,106.7211C323.41,106.3914 322.9004,105.975 322.5013,105.4718L322.5013,112.1994zM322.2801,100.0716C322.2801,101.85 322.6401,103.1643 323.3602,104.0144C324.0802,104.8646 324.952,105.2897 325.9757,105.2897C327.0167,105.2897 327.9081,104.8494 328.6498,103.9689C329.3915,103.0884 329.7624,101.7242 329.7624,99.8764C329.7624,98.1153 329.4002,96.7967 328.6758,95.9205C327.9515,95.0443 327.0861,94.6062 326.0798,94.6062C325.0822,94.6062 324.1995,95.0725 323.4317,96.0051C322.664,96.9377 322.2801,98.2932 322.2801,100.0716zM344.4407,102.4529L346.8611,102.7522C346.4794,104.1662 345.7723,105.2636 344.74,106.0444C343.7077,106.8252 342.389,107.2155 340.7841,107.2155C338.7628,107.2155 337.1601,106.5931 335.976,105.3482C334.7918,104.1033 334.1997,102.3575 334.1997,100.1106C334.1997,97.7857 334.7983,95.9813 335.9955,94.6973C337.1926,93.4134 338.7455,92.7715 340.654,92.7715C342.5018,92.7715 344.0113,93.4004 345.1824,94.6583C346.3536,95.9162 346.9391,97.6859 346.9391,99.9675C346.9391,100.1063 346.9348,100.3145 346.9261,100.5921L336.6201,100.5921C336.7068,102.1102 337.1363,103.2727 337.9083,104.0795C338.6804,104.8863 339.6434,105.2897 340.7972,105.2897C341.656,105.2897 342.389,105.0641 342.9963,104.613C343.6036,104.1619 344.085,103.4419 344.4407,102.4529zM336.7502,98.6662L344.4667,98.6662C344.3626,97.5037 344.0677,96.6319 343.5819,96.0507C342.8358,95.1484 341.8685,94.6973 340.68,94.6973C339.6043,94.6973 338.6999,95.0574 337.9669,95.7774C337.2338,96.4974 336.8283,97.4604 336.7502,98.6662zM349.7759,106.9032L349.7759,93.0838L351.884,93.0838L351.884,95.1788C352.4218,94.1985 352.9185,93.5522 353.3739,93.2399C353.8294,92.9276 354.3303,92.7715 354.8769,92.7715C355.6663,92.7715 356.4688,93.023 357.2842,93.5262L356.4774,95.6993C355.9049,95.361 355.3323,95.1918 354.7598,95.1918C354.2479,95.1918 353.7881,95.3458 353.3804,95.6538C352.9727,95.9617 352.6821,96.389 352.5086,96.9355C352.2483,97.7683 352.1182,98.6792 352.1182,99.6682L352.1182,106.9032zM367.6944,105.1986C366.8269,105.936 365.9919,106.4565 365.1894,106.7601C364.387,107.0637 363.526,107.2155 362.6064,107.2155C361.0883,107.2155 359.9215,106.8447 359.106,106.103C358.2905,105.3612 357.8828,104.4135 357.8828,103.2597C357.8828,102.583 358.0368,101.9649 358.3448,101.4054C358.6527,100.8458 359.0561,100.3969 359.5549,100.0586C360.0538,99.7202 360.6155,99.4643 361.2401,99.2908C361.6999,99.1694 362.3939,99.0523 363.3221,98.9395C365.2133,98.7139 366.6056,98.445 367.4992,98.1327C367.5079,97.8117 367.5122,97.6078 367.5122,97.5211C367.5122,96.5668 367.291,95.8945 366.8486,95.5041C366.25,94.9749 365.3608,94.7103 364.181,94.7103C363.0792,94.7103 362.2659,94.9034 361.7411,95.2894C361.2162,95.6755 360.828,96.3586 360.5764,97.3389L358.2862,97.0266C358.4944,96.0463 358.8371,95.2547 359.3142,94.6518C359.7913,94.0489 360.481,93.5847 361.3832,93.2594C362.2854,92.9341 363.3308,92.7715 364.5193,92.7715C365.6991,92.7715 366.6577,92.9103 367.3951,93.1879C368.1325,93.4655 368.6747,93.8146 369.0217,94.2354C369.3687,94.6561 369.6116,95.1875 369.7504,95.8294C369.8285,96.2285 369.8675,96.9485 369.8675,97.9895L369.8675,101.1126C369.8675,103.2901 369.9174,104.6672 370.0171,105.2441C370.1169,105.821 370.3143,106.3741 370.6092,106.9032L368.1628,106.9032C367.9199,106.4174 367.7638,105.8492 367.6944,105.1986zM367.4992,99.9675C366.649,100.3145 365.3738,100.6094 363.6735,100.8523C362.7105,100.9911 362.0295,101.1473 361.6305,101.3208C361.2314,101.4943 360.9234,101.748 360.7066,102.082C360.4897,102.416 360.3812,102.7869 360.3812,103.1946C360.3812,103.8192 360.6176,104.3397 361.0904,104.7561C361.5632,105.1726 362.2551,105.3808 363.166,105.3808C364.0682,105.3808 364.8706,105.1834 365.5733,104.7887C366.276,104.394 366.7922,103.8539 367.1218,103.1686C367.3734,102.6394 367.4992,101.8587 367.4992,100.8263zM378.612,104.8082L378.9504,106.8772C378.291,107.016 377.7011,107.0854 377.1806,107.0854C376.3305,107.0854 375.6712,106.951 375.2027,106.682C374.7342,106.4131 374.4046,106.0596 374.2137,105.6215C374.0229,105.1834 373.9275,104.2617 373.9275,102.8563L373.9275,94.9055L372.2098,94.9055L372.2098,93.0838L373.9275,93.0838L373.9275,89.6614L376.2567,88.2561L376.2567,93.0838L378.612,93.0838L378.612,94.9055L376.2567,94.9055L376.2567,102.9864C376.2567,103.6544 376.2979,104.0838 376.3803,104.2747C376.4628,104.4655 376.5972,104.6173 376.7837,104.7301C376.9703,104.8429 377.237,104.8993 377.584,104.8993C377.8443,104.8993 378.1869,104.8689 378.612,104.8082zM380.9153,90.5203L380.9153,87.8266L383.2576,87.8266L383.2576,90.5203zM380.9153,106.9032L380.9153,93.0838L383.2576,93.0838L383.2576,106.9032zM386.823,106.9032L386.823,93.0838L388.9311,93.0838L388.9311,95.0487C389.9461,93.5305 391.4122,92.7715 393.3294,92.7715C394.1622,92.7715 394.9278,92.9211 395.6261,93.2204C396.3244,93.5197 396.8471,93.9122 397.1941,94.398C397.5411,94.8839 397.784,95.4607 397.9228,96.1287C398.0096,96.5625 398.053,97.3216 398.053,98.406L398.053,106.9032L395.7107,106.9032L395.7107,98.497C395.7107,97.5428 395.6196,96.8292 395.4374,96.3565C395.2552,95.8837 394.9321,95.5063 394.468,95.2243C394.0039,94.9424 393.4595,94.8014 392.8349,94.8014C391.8372,94.8014 390.9762,95.1181 390.2519,95.7514C389.5275,96.3846 389.1653,97.5862 389.1653,99.3559L389.1653,106.9032zM401.2151,108.0484L403.4923,108.3867C403.5877,109.0894 403.8523,109.6012 404.2861,109.9222C404.8673,110.3559 405.661,110.5728 406.6674,110.5728C407.7518,110.5728 408.5889,110.3559 409.1788,109.9222C409.7687,109.4884 410.1678,108.8812 410.376,108.1004C410.4974,107.6233 410.5538,106.6213 410.5451,105.0945C409.5215,106.3003 408.2462,106.9032 406.7194,106.9032C404.8196,106.9032 403.3491,106.2179 402.3081,104.8472C401.2671,103.4766 400.7466,101.8326 400.7466,99.9154C400.7466,98.5968 400.9852,97.3801 401.4623,96.2654C401.9394,95.1506 402.6313,94.2896 403.5378,93.6823C404.4444,93.0751 405.5092,92.7715 406.7324,92.7715C408.3634,92.7715 409.708,93.4308 410.7664,94.7494L410.7664,93.0838L412.9265,93.0838L412.9265,105.0294C412.9265,107.1808 412.7074,108.7055 412.2693,109.6034C411.8312,110.5013 411.1372,111.2104 410.1873,111.731C409.2374,112.2515 408.0684,112.5117 406.6804,112.5117C405.0321,112.5117 403.7005,112.1409 402.6855,111.3991C401.6705,110.6574 401.1804,109.5405 401.2151,108.0484zM403.1539,99.7463C403.1539,101.5594 403.514,102.8823 404.234,103.7151C404.954,104.5479 405.8562,104.9644 406.9406,104.9644C408.0163,104.9644 408.9186,104.5501 409.6473,103.7216C410.376,102.8932 410.7403,101.5941 410.7403,99.8243C410.7403,98.1327 410.3651,96.8574 409.6147,95.9986C408.8643,95.1398 407.96,94.7103 406.9016,94.7103C405.8606,94.7103 404.9757,95.1333 404.247,95.9791C403.5183,96.8249 403.1539,98.0806 403.1539,99.7463zM423.3106,100.7743L425.6919,100.5661C425.8047,101.5203 426.0671,102.3033 426.4792,102.9149C426.8912,103.5264 427.531,104.0209 428.3986,104.3983C429.2661,104.7757 430.242,104.9644 431.3264,104.9644C432.2893,104.9644 433.1395,104.8212 433.8769,104.5349C434.6143,104.2487 435.163,103.8561 435.523,103.3573C435.883,102.8585 436.063,102.3141 436.063,101.7242C436.063,101.1256 435.8895,100.6029 435.5425,100.1562C435.1955,99.7094 434.6229,99.3342 433.8249,99.0306C433.313,98.831 432.1809,98.5209 430.4285,98.1002C428.6762,97.6794 427.4486,97.2825 426.7459,96.9095C425.835,96.4324 425.1562,95.8403 424.7095,95.1333C424.2627,94.4262 424.0393,93.6346 424.0393,92.7584C424.0393,91.7955 424.3126,90.8955 424.8591,90.0583C425.4056,89.2212 426.2037,88.5857 427.2534,88.1519C428.3031,87.7182 429.4699,87.5013 430.7539,87.5013C432.1679,87.5013 433.4149,87.729 434.495,88.1845C435.575,88.6399 436.4057,89.3101 436.9869,90.1949C437.5682,91.0798 437.8805,92.0818 437.9238,93.2009L435.5035,93.3831C435.3734,92.1772 434.9331,91.2663 434.1827,90.6504C433.4323,90.0345 432.324,89.7265 430.8579,89.7265C429.3311,89.7265 428.2185,90.0063 427.5202,90.5658C426.8218,91.1253 426.4727,91.7998 426.4727,92.5893C426.4727,93.2746 426.7199,93.8385 427.2144,94.2809C427.7002,94.7234 428.9689,95.1766 431.0206,95.6408C433.0723,96.1049 434.4798,96.5104 435.2432,96.8574C436.3536,97.3693 437.1734,98.0177 437.7026,98.8028C438.2318,99.5879 438.4964,100.4923 438.4964,101.516C438.4964,102.531 438.2058,103.4874 437.6245,104.3853C437.0433,105.2832 436.2083,105.9815 435.1196,106.4803C434.0309,106.9791 432.8055,107.2286 431.4435,107.2286C429.7172,107.2286 428.2706,106.977 427.1038,106.4738C425.937,105.9707 425.0218,105.2138 424.3581,104.2031C423.6945,103.1925 423.3453,102.0495 423.3106,100.7743zM441.5414,112.2254L441.2811,110.0263C441.7929,110.1651 442.2397,110.2345 442.6214,110.2345C443.1419,110.2345 443.5583,110.1477 443.8706,109.9742C444.1829,109.8007 444.4389,109.5578 444.6384,109.2455C444.7859,109.0113 445.0244,108.4301 445.3541,107.5018C445.3974,107.3717 445.4669,107.1808 445.5623,106.9293L440.3182,93.0838L442.8426,93.0838L445.7184,101.0866C446.0915,102.1016 446.4255,103.1686 446.7204,104.2877C446.9893,103.212 447.3103,102.1623 447.6833,101.1386L450.6372,93.0838L452.9795,93.0838L447.7224,107.1375C447.1585,108.6556 446.7204,109.701 446.4081,110.2735C445.9917,111.0456 445.5146,111.6117 444.9767,111.9717C444.4389,112.3317 443.7969,112.5117 443.0508,112.5117C442.5997,112.5117 442.0966,112.4163 441.5414,112.2254zM454.0335,102.7782L456.3498,102.4139C456.4799,103.3421 456.8421,104.0535 457.4364,104.5479C458.0306,105.0424 458.8612,105.2897 459.9283,105.2897C461.004,105.2897 461.8021,105.0706 462.3226,104.6325C462.8431,104.1944 463.1034,103.6804 463.1034,103.0905C463.1034,102.5613 462.8735,102.1449 462.4137,101.8413C462.0927,101.6331 461.2946,101.3685 460.0194,101.0475C458.3017,100.6138 457.111,100.2386 456.4474,99.9219C455.7837,99.6053 455.2806,99.1672 454.9379,98.6076C454.5953,98.0481 454.4239,97.43 454.4239,96.7533C454.4239,96.1374 454.5649,95.567 454.8468,95.0422C455.1288,94.5173 455.5126,94.0814 455.9985,93.7344C456.3628,93.4655 456.8595,93.2377 457.4884,93.0512C458.1173,92.8647 458.7918,92.7715 459.5119,92.7715C460.5963,92.7715 461.5484,92.9276 462.3682,93.2399C463.188,93.5522 463.793,93.9751 464.1834,94.5087C464.5738,95.0422 464.8427,95.7557 464.9902,96.6492L462.7,96.9615C462.5959,96.2502 462.2944,95.695 461.7956,95.2959C461.2968,94.8969 460.5919,94.6973 459.6811,94.6973C458.6053,94.6973 457.8376,94.8752 457.3778,95.2309C456.918,95.5865 456.6881,96.0029 456.6881,96.4801C456.6881,96.7837 456.7835,97.057 456.9744,97.2999C457.1653,97.5515 457.4645,97.7597 457.8723,97.9245C458.1065,98.0112 458.7962,98.2108 459.9413,98.5231C461.5982,98.9655 462.7542,99.3277 463.4092,99.6096C464.0642,99.8916 464.5781,100.3015 464.9512,100.8393C465.3242,101.3772 465.5107,102.0452 465.5107,102.8433C465.5107,103.624 465.283,104.3593 464.8276,105.0489C464.3721,105.7386 463.715,106.2721 462.8561,106.6495C461.9973,107.0269 461.0257,107.2155 459.9413,107.2155C458.1455,107.2155 456.777,106.8425 455.8358,106.0965C454.8945,105.3504 454.2938,104.2443 454.0335,102.7782zM473.4094,104.8082L473.7478,106.8772C473.0884,107.016 472.4985,107.0854 471.978,107.0854C471.1279,107.0854 470.4685,106.951 470.0001,106.682C469.5316,106.4131 469.202,106.0596 469.0111,105.6215C468.8203,105.1834 468.7249,104.2617 468.7249,102.8563L468.7249,94.9055L467.0072,94.9055L467.0072,93.0838L468.7249,93.0838L468.7249,89.6614L471.0541,88.2561L471.0541,93.0838L473.4094,93.0838L473.4094,94.9055L471.0541,94.9055L471.0541,102.9864C471.0541,103.6544 471.0953,104.0838 471.1777,104.2747C471.2602,104.4655 471.3946,104.6173 471.5811,104.7301C471.7677,104.8429 472.0344,104.8993 472.3814,104.8993C472.6417,104.8993 472.9843,104.8689 473.4094,104.8082zM485.1599,102.4529L487.5802,102.7522C487.1985,104.1662 486.4915,105.2636 485.4592,106.0444C484.4268,106.8252 483.1082,107.2155 481.5033,107.2155C479.482,107.2155 477.8793,106.5931 476.6951,105.3482C475.511,104.1033 474.9189,102.3575 474.9189,100.1106C474.9189,97.7857 475.5175,95.9813 476.7146,94.6973C477.9118,93.4134 479.4647,92.7715 481.3732,92.7715C483.221,92.7715 484.7305,93.4004 485.9016,94.6583C487.0727,95.9162 487.6583,97.6859 487.6583,99.9675C487.6583,100.1063 487.654,100.3145 487.6453,100.5921L477.3393,100.5921C477.426,102.1102 477.8554,103.2727 478.6275,104.0795C479.3996,104.8863 480.3625,105.2897 481.5163,105.2897C482.3752,105.2897 483.1082,105.0641 483.7155,104.613C484.3227,104.1619 484.8042,103.4419 485.1599,102.4529zM477.4694,98.6662L485.1859,98.6662C485.0818,97.5037 484.7869,96.6319 484.301,96.0507C483.555,95.1484 482.5877,94.6973 481.3992,94.6973C480.3235,94.6973 479.4191,95.0574 478.6861,95.7774C477.953,96.4974 477.5474,97.4604 477.4694,98.6662zM490.5211,106.9032L490.5211,93.0838L492.6161,93.0838L492.6161,95.0227C493.0499,94.346 493.6268,93.8016 494.3468,93.3896C495.0669,92.9775 495.8867,92.7715 496.8062,92.7715C497.8299,92.7715 498.6692,92.984 499.3242,93.4091C499.9792,93.8342 500.4411,94.4284 500.71,95.1918C501.8031,93.5782 503.2258,92.7715 504.9782,92.7715C506.3489,92.7715 507.4029,93.151 508.1403,93.9101C508.8777,94.6691 509.2463,95.8381 509.2464,97.417L509.2464,106.9032L506.9171,106.9032L506.9171,98.1977C506.9171,97.2608 506.8412,96.5863 506.6894,96.1743C506.5375,95.7622 506.2621,95.4304 505.8631,95.1788C505.464,94.9272 504.9955,94.8014 504.4577,94.8014C503.4861,94.8014 502.6793,95.1246 502.0373,95.7709C501.3954,96.4172 501.0744,97.4517 501.0744,98.8744L501.0744,106.9032L498.7321,106.9032L498.7321,97.9245C498.7321,96.8835 498.5413,96.1027 498.1596,95.5822C497.7778,95.0617 497.1532,94.8014 496.2857,94.8014C495.6264,94.8014 495.017,94.9749 494.4574,95.3219C493.8979,95.669 493.4923,96.1764 493.2408,96.8444C492.9892,97.5124 492.8634,98.4754 492.8634,99.7332L492.8634,106.9032z" />
  <path id="Rectangle4" d="M395.3756,299.839L508.1415,299.839L508.1415,379.839L395.3756,379.839z" style="stroke:#000000;fill:#FFFF99;" />
  <path id="Rectangle5" d="M605,200L717.7659,200L717.7659,280L605,280z" style="stroke:#000000;fill:#FFFF99;" />
</svg>